M48
; DRILL file {KiCad (5.1.5-0-10_14)} date 2021 September 10, Friday 16:44:17
; FORMAT={-:-/ absolute / inch / decimal}
; #@! TF.CreationDate,2021-09-10T16:44:17+02:00
; #@! TF.GenerationSoftware,Kicad,Pcbnew,(5.1.5-0-10_14)
FMAT,2
INCH
T1C0.0157
T2C0.0236
T3C0.0433
T4C0.0472
T5C0.0591
%
G90
G05
T1
X3.2549Y-3.2205
X3.3031Y-3.5157
X3.3443Y-3.22
X3.3898Y-3.8976
X3.5118Y-3.0433
X3.5118Y-3.6102
X3.5315Y-3.8858
X3.626Y-3.9803
X3.6378Y-3.7047
X3.7402Y-3.9646
X3.7874Y-3.0689
X3.8077Y-3.6434
X3.874Y-3.0689
X3.9377Y-3.3977
X3.998Y-3.7087
X4.0276Y-3.3976
X4.0315Y-3.626
X4.0472Y-4.0591
X4.0945Y-4.0433
X4.1339Y-3.8465
X4.1339Y-3.9173
X4.2008Y-3.7264
X4.2008Y-3.9094
X4.2087Y-2.9606
X4.248Y-3.815
X4.248Y-3.9114
X4.2585Y-3.1588
X4.3386Y-3.2606
X4.3583Y-3.9921
T2
X3.4988Y-3.6962
X3.5098Y-3.811
X3.6004Y-3.2539
X3.6004Y-3.4035
X3.6752Y-3.2559
X3.7146Y-3.4055
X3.7362Y-3.9016
X3.7894Y-3.8365
X3.8307Y-3.4469
X3.9488Y-3.4882
T3
X3.837Y-3.937
X3.937Y-3.937
X4.037Y-3.937
T5
X3.7402Y-3.6614
X4.1339Y-3.6614
T4
G00X4.3378Y-3.0028
M15
G01X4.322Y-3.0028
M16
G05
G00X4.3382Y-3.6776
M15
G01X4.3224Y-3.6776
M16
G05
G00X4.3374Y-3.2035
M15
G01X4.3217Y-3.2035
M16
G05
G00X4.3386Y-3.878
M15
G01X4.3228Y-3.878
M16
G05
G00X4.3378Y-3.1031
M15
G01X4.322Y-3.1031
M16
G05
G00X4.3382Y-3.778
M15
G01X4.3224Y-3.778
M16
G05
G00X3.2953Y-3.063
M15
G01X3.311Y-3.063
M16
G05
G00X3.2949Y-3.1626
M15
G01X3.3106Y-3.1626
M16
G05
T0
M30
