G04 #@! TF.GenerationSoftware,KiCad,Pcbnew,(5.1.5-0-10_14)*
G04 #@! TF.CreationDate,2021-09-10T16:44:22+02:00*
G04 #@! TF.ProjectId,cleanblend,636c6561-6e62-46c6-956e-642e6b696361,rev?*
G04 #@! TF.SameCoordinates,Original*
G04 #@! TF.FileFunction,Copper,L2,Bot*
G04 #@! TF.FilePolarity,Positive*
%FSLAX46Y46*%
G04 Gerber Fmt 4.6, Leading zero omitted, Abs format (unit mm)*
G04 Created by KiCad (PCBNEW (5.1.5-0-10_14)) date 2021-09-10 16:44:22*
%MOMM*%
%LPD*%
G04 APERTURE LIST*
%ADD10O,2.250000X2.250000*%
%ADD11O,1.930400X1.930400*%
%ADD12R,1.930400X1.930400*%
%ADD13O,3.000000X1.600000*%
%ADD14C,0.800000*%
%ADD15C,1.000000*%
%ADD16C,0.300000*%
%ADD17C,0.450000*%
%ADD18C,0.400000*%
%ADD19C,0.254000*%
G04 APERTURE END LIST*
D10*
X105000000Y-93000000D03*
X95000000Y-93000000D03*
D11*
X97460000Y-100000000D03*
X100000000Y-100000000D03*
D12*
X102540000Y-100000000D03*
D13*
X109980000Y-76270000D03*
X109970000Y-81370000D03*
X109980000Y-78820000D03*
X109990000Y-93410000D03*
X109990000Y-95960000D03*
X110000000Y-98500000D03*
X83890000Y-80330000D03*
X83900000Y-77800000D03*
D14*
X92400000Y-94100000D03*
X92100000Y-101100000D03*
X86100000Y-99000000D03*
X89700000Y-98700000D03*
X106900000Y-75200000D03*
X84945698Y-81787217D03*
X82675022Y-81800000D03*
X102300000Y-86299977D03*
X101550000Y-94200000D03*
X106700000Y-99300000D03*
X106700000Y-94650000D03*
X107900000Y-96900000D03*
X107900000Y-99350000D03*
X102400000Y-92100000D03*
X104000000Y-102700000D03*
X105000000Y-97700000D03*
X105000000Y-99500000D03*
X96200000Y-77950000D03*
X98400000Y-77950000D03*
X108165686Y-80234314D03*
X96715069Y-92542649D03*
X110700000Y-101400000D03*
X102800000Y-103100000D03*
X110200000Y-82820000D03*
X89200000Y-91700000D03*
X83900000Y-89300000D03*
X89200000Y-77300000D03*
X100018268Y-86300706D03*
D15*
X91450000Y-82650000D03*
X93350000Y-82700000D03*
X100300000Y-88600717D03*
X97300000Y-87550002D03*
X94900000Y-99100000D03*
X96251752Y-97448248D03*
X89150000Y-96800000D03*
X88870672Y-93884477D03*
X91450000Y-86450000D03*
X94350000Y-86500000D03*
D14*
X95000000Y-100700000D03*
D16*
X92400000Y-100800000D02*
X92100000Y-101100000D01*
X92400000Y-94100000D02*
X92400000Y-100800000D01*
X89400000Y-99000000D02*
X89700000Y-98700000D01*
X86100000Y-99000000D02*
X89400000Y-99000000D01*
X108170000Y-81370000D02*
X109970000Y-81370000D01*
X106900000Y-80100000D02*
X108170000Y-81370000D01*
X106900000Y-75200000D02*
X106900000Y-80100000D01*
X84945698Y-81787217D02*
X82687805Y-81787217D01*
X82687805Y-81787217D02*
X82675022Y-81800000D01*
X102300000Y-86299977D02*
X101550000Y-87049977D01*
X101550000Y-87049977D02*
X101550000Y-94200000D01*
X106700000Y-99300000D02*
X106700000Y-94650000D01*
X107900000Y-96900000D02*
X107900000Y-99350000D01*
X102400000Y-97209598D02*
X104000000Y-98809598D01*
X102400000Y-92100000D02*
X102400000Y-97209598D01*
X104000000Y-98809598D02*
X104000000Y-102134315D01*
X104000000Y-102134315D02*
X104000000Y-102700000D01*
X105000000Y-97700000D02*
X105000000Y-99500000D01*
X96200000Y-77950000D02*
X98400000Y-77950000D01*
X108079990Y-80148618D02*
X108165686Y-80234314D01*
X108079990Y-76370010D02*
X108079990Y-80148618D01*
X108180000Y-76270000D02*
X108079990Y-76370010D01*
X109980000Y-76270000D02*
X108180000Y-76270000D01*
D17*
X93300000Y-82650000D02*
X93350000Y-82700000D01*
X91450000Y-82650000D02*
X93300000Y-82650000D01*
X100300000Y-88600717D02*
X98350715Y-88600717D01*
X98350715Y-88600717D02*
X97300000Y-87550002D01*
D18*
X94900000Y-98800000D02*
X96251752Y-97448248D01*
X94900000Y-99100000D02*
X94900000Y-98800000D01*
X89150000Y-94163805D02*
X88870672Y-93884477D01*
X89150000Y-96800000D02*
X89150000Y-94163805D01*
D17*
X91450000Y-86450000D02*
X94300000Y-86450000D01*
X94300000Y-86450000D02*
X94350000Y-86500000D01*
D16*
X102439999Y-98634799D02*
X102540000Y-98734800D01*
X95000000Y-100439502D02*
X96804703Y-98634799D01*
X102540000Y-98734800D02*
X102540000Y-100000000D01*
X96804703Y-98634799D02*
X102439999Y-98634799D01*
X95000000Y-100700000D02*
X95000000Y-100439502D01*
D19*
G36*
X105865000Y-75301939D02*
G01*
X105904774Y-75501898D01*
X105982795Y-75690256D01*
X106096063Y-75859774D01*
X106115000Y-75878711D01*
X106115001Y-80061437D01*
X106111203Y-80100000D01*
X106126359Y-80253886D01*
X106171246Y-80401859D01*
X106205177Y-80465340D01*
X106244139Y-80538233D01*
X106282520Y-80585000D01*
X106317655Y-80627812D01*
X106317659Y-80627816D01*
X106342237Y-80657764D01*
X106372185Y-80682342D01*
X107587658Y-81897815D01*
X107612236Y-81927764D01*
X107642184Y-81952342D01*
X107642187Y-81952345D01*
X107644065Y-81953886D01*
X107731767Y-82025862D01*
X107868140Y-82098754D01*
X107981672Y-82133194D01*
X108016112Y-82143641D01*
X108030490Y-82145057D01*
X108058629Y-82147829D01*
X108071068Y-82171101D01*
X108250392Y-82389608D01*
X108468899Y-82568932D01*
X108718192Y-82702182D01*
X108988691Y-82784236D01*
X109199508Y-82805000D01*
X110740492Y-82805000D01*
X110951309Y-82784236D01*
X111221808Y-82702182D01*
X111340001Y-82639007D01*
X111340000Y-92130303D01*
X111241808Y-92077818D01*
X110971309Y-91995764D01*
X110760492Y-91975000D01*
X109219508Y-91975000D01*
X109008691Y-91995764D01*
X108738192Y-92077818D01*
X108488899Y-92211068D01*
X108270392Y-92390392D01*
X108091068Y-92608899D01*
X107957818Y-92858192D01*
X107875764Y-93128691D01*
X107848057Y-93410000D01*
X107875764Y-93691309D01*
X107957818Y-93961808D01*
X108091068Y-94211101D01*
X108270392Y-94429608D01*
X108488899Y-94608932D01*
X108631212Y-94685000D01*
X108488899Y-94761068D01*
X108270392Y-94940392D01*
X108091068Y-95158899D01*
X107957818Y-95408192D01*
X107875764Y-95678691D01*
X107857414Y-95865000D01*
X107798061Y-95865000D01*
X107598102Y-95904774D01*
X107485000Y-95951623D01*
X107485000Y-95328711D01*
X107503937Y-95309774D01*
X107617205Y-95140256D01*
X107695226Y-94951898D01*
X107735000Y-94751939D01*
X107735000Y-94548061D01*
X107695226Y-94348102D01*
X107617205Y-94159744D01*
X107503937Y-93990226D01*
X107359774Y-93846063D01*
X107190256Y-93732795D01*
X107001898Y-93654774D01*
X106801939Y-93615000D01*
X106650269Y-93615000D01*
X106692364Y-93513373D01*
X106760000Y-93173345D01*
X106760000Y-92826655D01*
X106692364Y-92486627D01*
X106559692Y-92166327D01*
X106367081Y-91878065D01*
X106121935Y-91632919D01*
X105833673Y-91440308D01*
X105513373Y-91307636D01*
X105173345Y-91240000D01*
X104826655Y-91240000D01*
X104486627Y-91307636D01*
X104166327Y-91440308D01*
X103878065Y-91632919D01*
X103632919Y-91878065D01*
X103440308Y-92166327D01*
X103435000Y-92179142D01*
X103435000Y-91998061D01*
X103395226Y-91798102D01*
X103317205Y-91609744D01*
X103203937Y-91440226D01*
X103059774Y-91296063D01*
X102890256Y-91182795D01*
X102701898Y-91104774D01*
X102501939Y-91065000D01*
X102335000Y-91065000D01*
X102335000Y-87375134D01*
X102375157Y-87334977D01*
X102401939Y-87334977D01*
X102601898Y-87295203D01*
X102790256Y-87217182D01*
X102959774Y-87103914D01*
X103103937Y-86959751D01*
X103217205Y-86790233D01*
X103295226Y-86601875D01*
X103335000Y-86401916D01*
X103335000Y-86198038D01*
X103295226Y-85998079D01*
X103217205Y-85809721D01*
X103103937Y-85640203D01*
X102959774Y-85496040D01*
X102790256Y-85382772D01*
X102601898Y-85304751D01*
X102401939Y-85264977D01*
X102198061Y-85264977D01*
X101998102Y-85304751D01*
X101809744Y-85382772D01*
X101640226Y-85496040D01*
X101496063Y-85640203D01*
X101382795Y-85809721D01*
X101304774Y-85998079D01*
X101265000Y-86198038D01*
X101265000Y-86224820D01*
X101022189Y-86467630D01*
X100992236Y-86492213D01*
X100894138Y-86611745D01*
X100821246Y-86748118D01*
X100776359Y-86896091D01*
X100765000Y-87011417D01*
X100765000Y-87011424D01*
X100761203Y-87049977D01*
X100765000Y-87088530D01*
X100765000Y-87564811D01*
X100631067Y-87509334D01*
X100411788Y-87465717D01*
X100188212Y-87465717D01*
X99968933Y-87509334D01*
X99762376Y-87594893D01*
X99576480Y-87719105D01*
X99554868Y-87740717D01*
X98706938Y-87740717D01*
X98435000Y-87468779D01*
X98435000Y-87438214D01*
X98391383Y-87218935D01*
X98305824Y-87012378D01*
X98181612Y-86826482D01*
X98023520Y-86668390D01*
X97837624Y-86544178D01*
X97631067Y-86458619D01*
X97411788Y-86415002D01*
X97188212Y-86415002D01*
X96968933Y-86458619D01*
X96762376Y-86544178D01*
X96576480Y-86668390D01*
X96418388Y-86826482D01*
X96294176Y-87012378D01*
X96208617Y-87218935D01*
X96165000Y-87438214D01*
X96165000Y-87661790D01*
X96208617Y-87881069D01*
X96294176Y-88087626D01*
X96418388Y-88273522D01*
X96576480Y-88431614D01*
X96762376Y-88555826D01*
X96968933Y-88641385D01*
X97188212Y-88685002D01*
X97218777Y-88685002D01*
X97712727Y-89178952D01*
X97739661Y-89211771D01*
X97870613Y-89319241D01*
X98020015Y-89399098D01*
X98106665Y-89425382D01*
X98182124Y-89448273D01*
X98213253Y-89451339D01*
X98308469Y-89460717D01*
X98308475Y-89460717D01*
X98350714Y-89464877D01*
X98392953Y-89460717D01*
X99554868Y-89460717D01*
X99576480Y-89482329D01*
X99762376Y-89606541D01*
X99968933Y-89692100D01*
X100188212Y-89735717D01*
X100411788Y-89735717D01*
X100631067Y-89692100D01*
X100765000Y-89636623D01*
X100765001Y-93521288D01*
X100746063Y-93540226D01*
X100632795Y-93709744D01*
X100554774Y-93898102D01*
X100515000Y-94098061D01*
X100515000Y-94301939D01*
X100554774Y-94501898D01*
X100632795Y-94690256D01*
X100746063Y-94859774D01*
X100890226Y-95003937D01*
X101059744Y-95117205D01*
X101248102Y-95195226D01*
X101448061Y-95235000D01*
X101615001Y-95235000D01*
X101615001Y-97171035D01*
X101611203Y-97209598D01*
X101626359Y-97363484D01*
X101671246Y-97511457D01*
X101671247Y-97511458D01*
X101744139Y-97647831D01*
X101771863Y-97681612D01*
X101817655Y-97737410D01*
X101817659Y-97737414D01*
X101842237Y-97767362D01*
X101872185Y-97791940D01*
X101930044Y-97849799D01*
X97313939Y-97849799D01*
X97343135Y-97779315D01*
X97386752Y-97560036D01*
X97386752Y-97336460D01*
X97343135Y-97117181D01*
X97257576Y-96910624D01*
X97133364Y-96724728D01*
X96975272Y-96566636D01*
X96789376Y-96442424D01*
X96582819Y-96356865D01*
X96363540Y-96313248D01*
X96139964Y-96313248D01*
X95920685Y-96356865D01*
X95714128Y-96442424D01*
X95528232Y-96566636D01*
X95370140Y-96724728D01*
X95245928Y-96910624D01*
X95160369Y-97117181D01*
X95116752Y-97336460D01*
X95116752Y-97402380D01*
X94469208Y-98049924D01*
X94362376Y-98094176D01*
X94176480Y-98218388D01*
X94018388Y-98376480D01*
X93894176Y-98562376D01*
X93808617Y-98768933D01*
X93765000Y-98988212D01*
X93765000Y-99211788D01*
X93808617Y-99431067D01*
X93894176Y-99637624D01*
X94018388Y-99823520D01*
X94176480Y-99981612D01*
X94223356Y-100012933D01*
X94196063Y-100040226D01*
X94082795Y-100209744D01*
X94004774Y-100398102D01*
X93965000Y-100598061D01*
X93965000Y-100801939D01*
X94004774Y-101001898D01*
X94082795Y-101190256D01*
X94196063Y-101359774D01*
X94340226Y-101503937D01*
X94509744Y-101617205D01*
X94698102Y-101695226D01*
X94898061Y-101735000D01*
X95101939Y-101735000D01*
X95301898Y-101695226D01*
X95490256Y-101617205D01*
X95659774Y-101503937D01*
X95803937Y-101359774D01*
X95917205Y-101190256D01*
X95995226Y-101001898D01*
X96035000Y-100801939D01*
X96035000Y-100741270D01*
X96041921Y-100757979D01*
X96217043Y-101020068D01*
X96439932Y-101242957D01*
X96702021Y-101418079D01*
X96993239Y-101538706D01*
X97302394Y-101600200D01*
X97617606Y-101600200D01*
X97926761Y-101538706D01*
X98217979Y-101418079D01*
X98480068Y-101242957D01*
X98702957Y-101020068D01*
X98730000Y-100979595D01*
X98757043Y-101020068D01*
X98979932Y-101242957D01*
X99242021Y-101418079D01*
X99533239Y-101538706D01*
X99842394Y-101600200D01*
X100157606Y-101600200D01*
X100466761Y-101538706D01*
X100757979Y-101418079D01*
X101007673Y-101251239D01*
X101044263Y-101319694D01*
X101123615Y-101416385D01*
X101220306Y-101495737D01*
X101330620Y-101554702D01*
X101450318Y-101591012D01*
X101574800Y-101603272D01*
X103215001Y-101603272D01*
X103215001Y-102021288D01*
X103196063Y-102040226D01*
X103082795Y-102209744D01*
X103004774Y-102398102D01*
X102965000Y-102598061D01*
X102965000Y-102801939D01*
X103004774Y-103001898D01*
X103082795Y-103190256D01*
X103196063Y-103359774D01*
X103340226Y-103503937D01*
X103509744Y-103617205D01*
X103698102Y-103695226D01*
X103898061Y-103735000D01*
X104101939Y-103735000D01*
X104301898Y-103695226D01*
X104490256Y-103617205D01*
X104659774Y-103503937D01*
X104803937Y-103359774D01*
X104917205Y-103190256D01*
X104995226Y-103001898D01*
X105035000Y-102801939D01*
X105035000Y-102598061D01*
X104995226Y-102398102D01*
X104917205Y-102209744D01*
X104803937Y-102040226D01*
X104785000Y-102021289D01*
X104785000Y-100512511D01*
X104898061Y-100535000D01*
X105101939Y-100535000D01*
X105301898Y-100495226D01*
X105490256Y-100417205D01*
X105659774Y-100303937D01*
X105803937Y-100159774D01*
X105917205Y-99990256D01*
X105919941Y-99983652D01*
X106040226Y-100103937D01*
X106209744Y-100217205D01*
X106398102Y-100295226D01*
X106598061Y-100335000D01*
X106801939Y-100335000D01*
X107001898Y-100295226D01*
X107190256Y-100217205D01*
X107262585Y-100168877D01*
X107409744Y-100267205D01*
X107598102Y-100345226D01*
X107798061Y-100385000D01*
X108001939Y-100385000D01*
X108201898Y-100345226D01*
X108390256Y-100267205D01*
X108559774Y-100153937D01*
X108703937Y-100009774D01*
X108810060Y-99850949D01*
X109018691Y-99914236D01*
X109229508Y-99935000D01*
X110770492Y-99935000D01*
X110981309Y-99914236D01*
X111251808Y-99832182D01*
X111340000Y-99785042D01*
X111340000Y-103840000D01*
X82660000Y-103840000D01*
X82660000Y-100998061D01*
X91065000Y-100998061D01*
X91065000Y-101201939D01*
X91104774Y-101401898D01*
X91182795Y-101590256D01*
X91296063Y-101759774D01*
X91440226Y-101903937D01*
X91609744Y-102017205D01*
X91798102Y-102095226D01*
X91998061Y-102135000D01*
X92201939Y-102135000D01*
X92401898Y-102095226D01*
X92590256Y-102017205D01*
X92759774Y-101903937D01*
X92903937Y-101759774D01*
X93017205Y-101590256D01*
X93095226Y-101401898D01*
X93135000Y-101201939D01*
X93135000Y-101081270D01*
X93173641Y-100953887D01*
X93185000Y-100838561D01*
X93185000Y-100838554D01*
X93188797Y-100800001D01*
X93185000Y-100761448D01*
X93185000Y-94778711D01*
X93203937Y-94759774D01*
X93317205Y-94590256D01*
X93395226Y-94401898D01*
X93435000Y-94201939D01*
X93435000Y-93998061D01*
X93395226Y-93798102D01*
X93317205Y-93609744D01*
X93203937Y-93440226D01*
X93059774Y-93296063D01*
X92890256Y-93182795D01*
X92701898Y-93104774D01*
X92501939Y-93065000D01*
X92298061Y-93065000D01*
X92098102Y-93104774D01*
X91909744Y-93182795D01*
X91740226Y-93296063D01*
X91596063Y-93440226D01*
X91482795Y-93609744D01*
X91404774Y-93798102D01*
X91365000Y-93998061D01*
X91365000Y-94201939D01*
X91404774Y-94401898D01*
X91482795Y-94590256D01*
X91596063Y-94759774D01*
X91615000Y-94778711D01*
X91615001Y-100180618D01*
X91609744Y-100182795D01*
X91440226Y-100296063D01*
X91296063Y-100440226D01*
X91182795Y-100609744D01*
X91104774Y-100798102D01*
X91065000Y-100998061D01*
X82660000Y-100998061D01*
X82660000Y-98898061D01*
X85065000Y-98898061D01*
X85065000Y-99101939D01*
X85104774Y-99301898D01*
X85182795Y-99490256D01*
X85296063Y-99659774D01*
X85440226Y-99803937D01*
X85609744Y-99917205D01*
X85798102Y-99995226D01*
X85998061Y-100035000D01*
X86201939Y-100035000D01*
X86401898Y-99995226D01*
X86590256Y-99917205D01*
X86759774Y-99803937D01*
X86778711Y-99785000D01*
X89361447Y-99785000D01*
X89400000Y-99788797D01*
X89438553Y-99785000D01*
X89438561Y-99785000D01*
X89553887Y-99773641D01*
X89681270Y-99735000D01*
X89801939Y-99735000D01*
X90001898Y-99695226D01*
X90190256Y-99617205D01*
X90359774Y-99503937D01*
X90503937Y-99359774D01*
X90617205Y-99190256D01*
X90695226Y-99001898D01*
X90735000Y-98801939D01*
X90735000Y-98598061D01*
X90695226Y-98398102D01*
X90617205Y-98209744D01*
X90503937Y-98040226D01*
X90359774Y-97896063D01*
X90190256Y-97782795D01*
X90001898Y-97704774D01*
X89875500Y-97679632D01*
X90031612Y-97523520D01*
X90155824Y-97337624D01*
X90241383Y-97131067D01*
X90285000Y-96911788D01*
X90285000Y-96688212D01*
X90241383Y-96468933D01*
X90155824Y-96262376D01*
X90031612Y-96076480D01*
X89985000Y-96029868D01*
X89985000Y-94204812D01*
X89989039Y-94163804D01*
X89985000Y-94122796D01*
X89985000Y-94122786D01*
X89983512Y-94107674D01*
X90005672Y-93996265D01*
X90005672Y-93772689D01*
X89962055Y-93553410D01*
X89876496Y-93346853D01*
X89752284Y-93160957D01*
X89594192Y-93002865D01*
X89408296Y-92878653D01*
X89282763Y-92826655D01*
X93240000Y-92826655D01*
X93240000Y-93173345D01*
X93307636Y-93513373D01*
X93440308Y-93833673D01*
X93632919Y-94121935D01*
X93878065Y-94367081D01*
X94166327Y-94559692D01*
X94486627Y-94692364D01*
X94826655Y-94760000D01*
X95173345Y-94760000D01*
X95513373Y-94692364D01*
X95833673Y-94559692D01*
X96121935Y-94367081D01*
X96367081Y-94121935D01*
X96559692Y-93833673D01*
X96692364Y-93513373D01*
X96760000Y-93173345D01*
X96760000Y-92826655D01*
X96692364Y-92486627D01*
X96559692Y-92166327D01*
X96367081Y-91878065D01*
X96121935Y-91632919D01*
X95833673Y-91440308D01*
X95513373Y-91307636D01*
X95173345Y-91240000D01*
X94826655Y-91240000D01*
X94486627Y-91307636D01*
X94166327Y-91440308D01*
X93878065Y-91632919D01*
X93632919Y-91878065D01*
X93440308Y-92166327D01*
X93307636Y-92486627D01*
X93240000Y-92826655D01*
X89282763Y-92826655D01*
X89201739Y-92793094D01*
X88982460Y-92749477D01*
X88758884Y-92749477D01*
X88539605Y-92793094D01*
X88333048Y-92878653D01*
X88147152Y-93002865D01*
X87989060Y-93160957D01*
X87864848Y-93346853D01*
X87779289Y-93553410D01*
X87735672Y-93772689D01*
X87735672Y-93996265D01*
X87779289Y-94215544D01*
X87864848Y-94422101D01*
X87989060Y-94607997D01*
X88147152Y-94766089D01*
X88315001Y-94878242D01*
X88315000Y-96029868D01*
X88268388Y-96076480D01*
X88144176Y-96262376D01*
X88058617Y-96468933D01*
X88015000Y-96688212D01*
X88015000Y-96911788D01*
X88058617Y-97131067D01*
X88144176Y-97337624D01*
X88268388Y-97523520D01*
X88426480Y-97681612D01*
X88612376Y-97805824D01*
X88818933Y-97891383D01*
X89007415Y-97928874D01*
X88896063Y-98040226D01*
X88782795Y-98209744D01*
X88780618Y-98215000D01*
X86778711Y-98215000D01*
X86759774Y-98196063D01*
X86590256Y-98082795D01*
X86401898Y-98004774D01*
X86201939Y-97965000D01*
X85998061Y-97965000D01*
X85798102Y-98004774D01*
X85609744Y-98082795D01*
X85440226Y-98196063D01*
X85296063Y-98340226D01*
X85182795Y-98509744D01*
X85104774Y-98698102D01*
X85065000Y-98898061D01*
X82660000Y-98898061D01*
X82660000Y-86338212D01*
X90315000Y-86338212D01*
X90315000Y-86561788D01*
X90358617Y-86781067D01*
X90444176Y-86987624D01*
X90568388Y-87173520D01*
X90726480Y-87331612D01*
X90912376Y-87455824D01*
X91118933Y-87541383D01*
X91338212Y-87585000D01*
X91561788Y-87585000D01*
X91781067Y-87541383D01*
X91987624Y-87455824D01*
X92173520Y-87331612D01*
X92195132Y-87310000D01*
X93554868Y-87310000D01*
X93626480Y-87381612D01*
X93812376Y-87505824D01*
X94018933Y-87591383D01*
X94238212Y-87635000D01*
X94461788Y-87635000D01*
X94681067Y-87591383D01*
X94887624Y-87505824D01*
X95073520Y-87381612D01*
X95231612Y-87223520D01*
X95355824Y-87037624D01*
X95441383Y-86831067D01*
X95485000Y-86611788D01*
X95485000Y-86388212D01*
X95441383Y-86168933D01*
X95355824Y-85962376D01*
X95231612Y-85776480D01*
X95073520Y-85618388D01*
X94887624Y-85494176D01*
X94681067Y-85408617D01*
X94461788Y-85365000D01*
X94238212Y-85365000D01*
X94018933Y-85408617D01*
X93812376Y-85494176D01*
X93668966Y-85590000D01*
X92195132Y-85590000D01*
X92173520Y-85568388D01*
X91987624Y-85444176D01*
X91781067Y-85358617D01*
X91561788Y-85315000D01*
X91338212Y-85315000D01*
X91118933Y-85358617D01*
X90912376Y-85444176D01*
X90726480Y-85568388D01*
X90568388Y-85726480D01*
X90444176Y-85912376D01*
X90358617Y-86118933D01*
X90315000Y-86338212D01*
X82660000Y-86338212D01*
X82660000Y-82835000D01*
X82776961Y-82835000D01*
X82976920Y-82795226D01*
X83165278Y-82717205D01*
X83334796Y-82603937D01*
X83366516Y-82572217D01*
X84266987Y-82572217D01*
X84285924Y-82591154D01*
X84455442Y-82704422D01*
X84643800Y-82782443D01*
X84843759Y-82822217D01*
X85047637Y-82822217D01*
X85247596Y-82782443D01*
X85435954Y-82704422D01*
X85605472Y-82591154D01*
X85658414Y-82538212D01*
X90315000Y-82538212D01*
X90315000Y-82761788D01*
X90358617Y-82981067D01*
X90444176Y-83187624D01*
X90568388Y-83373520D01*
X90726480Y-83531612D01*
X90912376Y-83655824D01*
X91118933Y-83741383D01*
X91338212Y-83785000D01*
X91561788Y-83785000D01*
X91781067Y-83741383D01*
X91987624Y-83655824D01*
X92173520Y-83531612D01*
X92195132Y-83510000D01*
X92554868Y-83510000D01*
X92626480Y-83581612D01*
X92812376Y-83705824D01*
X93018933Y-83791383D01*
X93238212Y-83835000D01*
X93461788Y-83835000D01*
X93681067Y-83791383D01*
X93887624Y-83705824D01*
X94073520Y-83581612D01*
X94231612Y-83423520D01*
X94355824Y-83237624D01*
X94441383Y-83031067D01*
X94485000Y-82811788D01*
X94485000Y-82588212D01*
X94441383Y-82368933D01*
X94355824Y-82162376D01*
X94231612Y-81976480D01*
X94073520Y-81818388D01*
X93887624Y-81694176D01*
X93681067Y-81608617D01*
X93461788Y-81565000D01*
X93238212Y-81565000D01*
X93018933Y-81608617D01*
X92812376Y-81694176D01*
X92668966Y-81790000D01*
X92195132Y-81790000D01*
X92173520Y-81768388D01*
X91987624Y-81644176D01*
X91781067Y-81558617D01*
X91561788Y-81515000D01*
X91338212Y-81515000D01*
X91118933Y-81558617D01*
X90912376Y-81644176D01*
X90726480Y-81768388D01*
X90568388Y-81926480D01*
X90444176Y-82112376D01*
X90358617Y-82318933D01*
X90315000Y-82538212D01*
X85658414Y-82538212D01*
X85749635Y-82446991D01*
X85862903Y-82277473D01*
X85940924Y-82089115D01*
X85980698Y-81889156D01*
X85980698Y-81685278D01*
X85940924Y-81485319D01*
X85862903Y-81296961D01*
X85768618Y-81155853D01*
X85788932Y-81131101D01*
X85922182Y-80881808D01*
X86004236Y-80611309D01*
X86031943Y-80330000D01*
X86004236Y-80048691D01*
X85922182Y-79778192D01*
X85788932Y-79528899D01*
X85609608Y-79310392D01*
X85391101Y-79131068D01*
X85277176Y-79070174D01*
X85502839Y-78922601D01*
X85704500Y-78724895D01*
X85863715Y-78491646D01*
X85974367Y-78231818D01*
X85991904Y-78149039D01*
X85869915Y-77927000D01*
X84027000Y-77927000D01*
X84027000Y-77947000D01*
X83773000Y-77947000D01*
X83773000Y-77927000D01*
X83753000Y-77927000D01*
X83753000Y-77848061D01*
X95165000Y-77848061D01*
X95165000Y-78051939D01*
X95204774Y-78251898D01*
X95282795Y-78440256D01*
X95396063Y-78609774D01*
X95540226Y-78753937D01*
X95709744Y-78867205D01*
X95898102Y-78945226D01*
X96098061Y-78985000D01*
X96301939Y-78985000D01*
X96501898Y-78945226D01*
X96690256Y-78867205D01*
X96859774Y-78753937D01*
X96878711Y-78735000D01*
X97721289Y-78735000D01*
X97740226Y-78753937D01*
X97909744Y-78867205D01*
X98098102Y-78945226D01*
X98298061Y-78985000D01*
X98501939Y-78985000D01*
X98701898Y-78945226D01*
X98890256Y-78867205D01*
X99059774Y-78753937D01*
X99203937Y-78609774D01*
X99317205Y-78440256D01*
X99395226Y-78251898D01*
X99435000Y-78051939D01*
X99435000Y-77848061D01*
X99395226Y-77648102D01*
X99317205Y-77459744D01*
X99203937Y-77290226D01*
X99059774Y-77146063D01*
X98890256Y-77032795D01*
X98701898Y-76954774D01*
X98501939Y-76915000D01*
X98298061Y-76915000D01*
X98098102Y-76954774D01*
X97909744Y-77032795D01*
X97740226Y-77146063D01*
X97721289Y-77165000D01*
X96878711Y-77165000D01*
X96859774Y-77146063D01*
X96690256Y-77032795D01*
X96501898Y-76954774D01*
X96301939Y-76915000D01*
X96098061Y-76915000D01*
X95898102Y-76954774D01*
X95709744Y-77032795D01*
X95540226Y-77146063D01*
X95396063Y-77290226D01*
X95282795Y-77459744D01*
X95204774Y-77648102D01*
X95165000Y-77848061D01*
X83753000Y-77848061D01*
X83753000Y-77673000D01*
X83773000Y-77673000D01*
X83773000Y-76365000D01*
X84027000Y-76365000D01*
X84027000Y-77673000D01*
X85869915Y-77673000D01*
X85991904Y-77450961D01*
X85974367Y-77368182D01*
X85863715Y-77108354D01*
X85704500Y-76875105D01*
X85502839Y-76677399D01*
X85266483Y-76522834D01*
X85004514Y-76417350D01*
X84727000Y-76365000D01*
X84027000Y-76365000D01*
X83773000Y-76365000D01*
X83073000Y-76365000D01*
X82795486Y-76417350D01*
X82660000Y-76471905D01*
X82660000Y-75160000D01*
X105865000Y-75160000D01*
X105865000Y-75301939D01*
G37*
X105865000Y-75301939D02*
X105904774Y-75501898D01*
X105982795Y-75690256D01*
X106096063Y-75859774D01*
X106115000Y-75878711D01*
X106115001Y-80061437D01*
X106111203Y-80100000D01*
X106126359Y-80253886D01*
X106171246Y-80401859D01*
X106205177Y-80465340D01*
X106244139Y-80538233D01*
X106282520Y-80585000D01*
X106317655Y-80627812D01*
X106317659Y-80627816D01*
X106342237Y-80657764D01*
X106372185Y-80682342D01*
X107587658Y-81897815D01*
X107612236Y-81927764D01*
X107642184Y-81952342D01*
X107642187Y-81952345D01*
X107644065Y-81953886D01*
X107731767Y-82025862D01*
X107868140Y-82098754D01*
X107981672Y-82133194D01*
X108016112Y-82143641D01*
X108030490Y-82145057D01*
X108058629Y-82147829D01*
X108071068Y-82171101D01*
X108250392Y-82389608D01*
X108468899Y-82568932D01*
X108718192Y-82702182D01*
X108988691Y-82784236D01*
X109199508Y-82805000D01*
X110740492Y-82805000D01*
X110951309Y-82784236D01*
X111221808Y-82702182D01*
X111340001Y-82639007D01*
X111340000Y-92130303D01*
X111241808Y-92077818D01*
X110971309Y-91995764D01*
X110760492Y-91975000D01*
X109219508Y-91975000D01*
X109008691Y-91995764D01*
X108738192Y-92077818D01*
X108488899Y-92211068D01*
X108270392Y-92390392D01*
X108091068Y-92608899D01*
X107957818Y-92858192D01*
X107875764Y-93128691D01*
X107848057Y-93410000D01*
X107875764Y-93691309D01*
X107957818Y-93961808D01*
X108091068Y-94211101D01*
X108270392Y-94429608D01*
X108488899Y-94608932D01*
X108631212Y-94685000D01*
X108488899Y-94761068D01*
X108270392Y-94940392D01*
X108091068Y-95158899D01*
X107957818Y-95408192D01*
X107875764Y-95678691D01*
X107857414Y-95865000D01*
X107798061Y-95865000D01*
X107598102Y-95904774D01*
X107485000Y-95951623D01*
X107485000Y-95328711D01*
X107503937Y-95309774D01*
X107617205Y-95140256D01*
X107695226Y-94951898D01*
X107735000Y-94751939D01*
X107735000Y-94548061D01*
X107695226Y-94348102D01*
X107617205Y-94159744D01*
X107503937Y-93990226D01*
X107359774Y-93846063D01*
X107190256Y-93732795D01*
X107001898Y-93654774D01*
X106801939Y-93615000D01*
X106650269Y-93615000D01*
X106692364Y-93513373D01*
X106760000Y-93173345D01*
X106760000Y-92826655D01*
X106692364Y-92486627D01*
X106559692Y-92166327D01*
X106367081Y-91878065D01*
X106121935Y-91632919D01*
X105833673Y-91440308D01*
X105513373Y-91307636D01*
X105173345Y-91240000D01*
X104826655Y-91240000D01*
X104486627Y-91307636D01*
X104166327Y-91440308D01*
X103878065Y-91632919D01*
X103632919Y-91878065D01*
X103440308Y-92166327D01*
X103435000Y-92179142D01*
X103435000Y-91998061D01*
X103395226Y-91798102D01*
X103317205Y-91609744D01*
X103203937Y-91440226D01*
X103059774Y-91296063D01*
X102890256Y-91182795D01*
X102701898Y-91104774D01*
X102501939Y-91065000D01*
X102335000Y-91065000D01*
X102335000Y-87375134D01*
X102375157Y-87334977D01*
X102401939Y-87334977D01*
X102601898Y-87295203D01*
X102790256Y-87217182D01*
X102959774Y-87103914D01*
X103103937Y-86959751D01*
X103217205Y-86790233D01*
X103295226Y-86601875D01*
X103335000Y-86401916D01*
X103335000Y-86198038D01*
X103295226Y-85998079D01*
X103217205Y-85809721D01*
X103103937Y-85640203D01*
X102959774Y-85496040D01*
X102790256Y-85382772D01*
X102601898Y-85304751D01*
X102401939Y-85264977D01*
X102198061Y-85264977D01*
X101998102Y-85304751D01*
X101809744Y-85382772D01*
X101640226Y-85496040D01*
X101496063Y-85640203D01*
X101382795Y-85809721D01*
X101304774Y-85998079D01*
X101265000Y-86198038D01*
X101265000Y-86224820D01*
X101022189Y-86467630D01*
X100992236Y-86492213D01*
X100894138Y-86611745D01*
X100821246Y-86748118D01*
X100776359Y-86896091D01*
X100765000Y-87011417D01*
X100765000Y-87011424D01*
X100761203Y-87049977D01*
X100765000Y-87088530D01*
X100765000Y-87564811D01*
X100631067Y-87509334D01*
X100411788Y-87465717D01*
X100188212Y-87465717D01*
X99968933Y-87509334D01*
X99762376Y-87594893D01*
X99576480Y-87719105D01*
X99554868Y-87740717D01*
X98706938Y-87740717D01*
X98435000Y-87468779D01*
X98435000Y-87438214D01*
X98391383Y-87218935D01*
X98305824Y-87012378D01*
X98181612Y-86826482D01*
X98023520Y-86668390D01*
X97837624Y-86544178D01*
X97631067Y-86458619D01*
X97411788Y-86415002D01*
X97188212Y-86415002D01*
X96968933Y-86458619D01*
X96762376Y-86544178D01*
X96576480Y-86668390D01*
X96418388Y-86826482D01*
X96294176Y-87012378D01*
X96208617Y-87218935D01*
X96165000Y-87438214D01*
X96165000Y-87661790D01*
X96208617Y-87881069D01*
X96294176Y-88087626D01*
X96418388Y-88273522D01*
X96576480Y-88431614D01*
X96762376Y-88555826D01*
X96968933Y-88641385D01*
X97188212Y-88685002D01*
X97218777Y-88685002D01*
X97712727Y-89178952D01*
X97739661Y-89211771D01*
X97870613Y-89319241D01*
X98020015Y-89399098D01*
X98106665Y-89425382D01*
X98182124Y-89448273D01*
X98213253Y-89451339D01*
X98308469Y-89460717D01*
X98308475Y-89460717D01*
X98350714Y-89464877D01*
X98392953Y-89460717D01*
X99554868Y-89460717D01*
X99576480Y-89482329D01*
X99762376Y-89606541D01*
X99968933Y-89692100D01*
X100188212Y-89735717D01*
X100411788Y-89735717D01*
X100631067Y-89692100D01*
X100765000Y-89636623D01*
X100765001Y-93521288D01*
X100746063Y-93540226D01*
X100632795Y-93709744D01*
X100554774Y-93898102D01*
X100515000Y-94098061D01*
X100515000Y-94301939D01*
X100554774Y-94501898D01*
X100632795Y-94690256D01*
X100746063Y-94859774D01*
X100890226Y-95003937D01*
X101059744Y-95117205D01*
X101248102Y-95195226D01*
X101448061Y-95235000D01*
X101615001Y-95235000D01*
X101615001Y-97171035D01*
X101611203Y-97209598D01*
X101626359Y-97363484D01*
X101671246Y-97511457D01*
X101671247Y-97511458D01*
X101744139Y-97647831D01*
X101771863Y-97681612D01*
X101817655Y-97737410D01*
X101817659Y-97737414D01*
X101842237Y-97767362D01*
X101872185Y-97791940D01*
X101930044Y-97849799D01*
X97313939Y-97849799D01*
X97343135Y-97779315D01*
X97386752Y-97560036D01*
X97386752Y-97336460D01*
X97343135Y-97117181D01*
X97257576Y-96910624D01*
X97133364Y-96724728D01*
X96975272Y-96566636D01*
X96789376Y-96442424D01*
X96582819Y-96356865D01*
X96363540Y-96313248D01*
X96139964Y-96313248D01*
X95920685Y-96356865D01*
X95714128Y-96442424D01*
X95528232Y-96566636D01*
X95370140Y-96724728D01*
X95245928Y-96910624D01*
X95160369Y-97117181D01*
X95116752Y-97336460D01*
X95116752Y-97402380D01*
X94469208Y-98049924D01*
X94362376Y-98094176D01*
X94176480Y-98218388D01*
X94018388Y-98376480D01*
X93894176Y-98562376D01*
X93808617Y-98768933D01*
X93765000Y-98988212D01*
X93765000Y-99211788D01*
X93808617Y-99431067D01*
X93894176Y-99637624D01*
X94018388Y-99823520D01*
X94176480Y-99981612D01*
X94223356Y-100012933D01*
X94196063Y-100040226D01*
X94082795Y-100209744D01*
X94004774Y-100398102D01*
X93965000Y-100598061D01*
X93965000Y-100801939D01*
X94004774Y-101001898D01*
X94082795Y-101190256D01*
X94196063Y-101359774D01*
X94340226Y-101503937D01*
X94509744Y-101617205D01*
X94698102Y-101695226D01*
X94898061Y-101735000D01*
X95101939Y-101735000D01*
X95301898Y-101695226D01*
X95490256Y-101617205D01*
X95659774Y-101503937D01*
X95803937Y-101359774D01*
X95917205Y-101190256D01*
X95995226Y-101001898D01*
X96035000Y-100801939D01*
X96035000Y-100741270D01*
X96041921Y-100757979D01*
X96217043Y-101020068D01*
X96439932Y-101242957D01*
X96702021Y-101418079D01*
X96993239Y-101538706D01*
X97302394Y-101600200D01*
X97617606Y-101600200D01*
X97926761Y-101538706D01*
X98217979Y-101418079D01*
X98480068Y-101242957D01*
X98702957Y-101020068D01*
X98730000Y-100979595D01*
X98757043Y-101020068D01*
X98979932Y-101242957D01*
X99242021Y-101418079D01*
X99533239Y-101538706D01*
X99842394Y-101600200D01*
X100157606Y-101600200D01*
X100466761Y-101538706D01*
X100757979Y-101418079D01*
X101007673Y-101251239D01*
X101044263Y-101319694D01*
X101123615Y-101416385D01*
X101220306Y-101495737D01*
X101330620Y-101554702D01*
X101450318Y-101591012D01*
X101574800Y-101603272D01*
X103215001Y-101603272D01*
X103215001Y-102021288D01*
X103196063Y-102040226D01*
X103082795Y-102209744D01*
X103004774Y-102398102D01*
X102965000Y-102598061D01*
X102965000Y-102801939D01*
X103004774Y-103001898D01*
X103082795Y-103190256D01*
X103196063Y-103359774D01*
X103340226Y-103503937D01*
X103509744Y-103617205D01*
X103698102Y-103695226D01*
X103898061Y-103735000D01*
X104101939Y-103735000D01*
X104301898Y-103695226D01*
X104490256Y-103617205D01*
X104659774Y-103503937D01*
X104803937Y-103359774D01*
X104917205Y-103190256D01*
X104995226Y-103001898D01*
X105035000Y-102801939D01*
X105035000Y-102598061D01*
X104995226Y-102398102D01*
X104917205Y-102209744D01*
X104803937Y-102040226D01*
X104785000Y-102021289D01*
X104785000Y-100512511D01*
X104898061Y-100535000D01*
X105101939Y-100535000D01*
X105301898Y-100495226D01*
X105490256Y-100417205D01*
X105659774Y-100303937D01*
X105803937Y-100159774D01*
X105917205Y-99990256D01*
X105919941Y-99983652D01*
X106040226Y-100103937D01*
X106209744Y-100217205D01*
X106398102Y-100295226D01*
X106598061Y-100335000D01*
X106801939Y-100335000D01*
X107001898Y-100295226D01*
X107190256Y-100217205D01*
X107262585Y-100168877D01*
X107409744Y-100267205D01*
X107598102Y-100345226D01*
X107798061Y-100385000D01*
X108001939Y-100385000D01*
X108201898Y-100345226D01*
X108390256Y-100267205D01*
X108559774Y-100153937D01*
X108703937Y-100009774D01*
X108810060Y-99850949D01*
X109018691Y-99914236D01*
X109229508Y-99935000D01*
X110770492Y-99935000D01*
X110981309Y-99914236D01*
X111251808Y-99832182D01*
X111340000Y-99785042D01*
X111340000Y-103840000D01*
X82660000Y-103840000D01*
X82660000Y-100998061D01*
X91065000Y-100998061D01*
X91065000Y-101201939D01*
X91104774Y-101401898D01*
X91182795Y-101590256D01*
X91296063Y-101759774D01*
X91440226Y-101903937D01*
X91609744Y-102017205D01*
X91798102Y-102095226D01*
X91998061Y-102135000D01*
X92201939Y-102135000D01*
X92401898Y-102095226D01*
X92590256Y-102017205D01*
X92759774Y-101903937D01*
X92903937Y-101759774D01*
X93017205Y-101590256D01*
X93095226Y-101401898D01*
X93135000Y-101201939D01*
X93135000Y-101081270D01*
X93173641Y-100953887D01*
X93185000Y-100838561D01*
X93185000Y-100838554D01*
X93188797Y-100800001D01*
X93185000Y-100761448D01*
X93185000Y-94778711D01*
X93203937Y-94759774D01*
X93317205Y-94590256D01*
X93395226Y-94401898D01*
X93435000Y-94201939D01*
X93435000Y-93998061D01*
X93395226Y-93798102D01*
X93317205Y-93609744D01*
X93203937Y-93440226D01*
X93059774Y-93296063D01*
X92890256Y-93182795D01*
X92701898Y-93104774D01*
X92501939Y-93065000D01*
X92298061Y-93065000D01*
X92098102Y-93104774D01*
X91909744Y-93182795D01*
X91740226Y-93296063D01*
X91596063Y-93440226D01*
X91482795Y-93609744D01*
X91404774Y-93798102D01*
X91365000Y-93998061D01*
X91365000Y-94201939D01*
X91404774Y-94401898D01*
X91482795Y-94590256D01*
X91596063Y-94759774D01*
X91615000Y-94778711D01*
X91615001Y-100180618D01*
X91609744Y-100182795D01*
X91440226Y-100296063D01*
X91296063Y-100440226D01*
X91182795Y-100609744D01*
X91104774Y-100798102D01*
X91065000Y-100998061D01*
X82660000Y-100998061D01*
X82660000Y-98898061D01*
X85065000Y-98898061D01*
X85065000Y-99101939D01*
X85104774Y-99301898D01*
X85182795Y-99490256D01*
X85296063Y-99659774D01*
X85440226Y-99803937D01*
X85609744Y-99917205D01*
X85798102Y-99995226D01*
X85998061Y-100035000D01*
X86201939Y-100035000D01*
X86401898Y-99995226D01*
X86590256Y-99917205D01*
X86759774Y-99803937D01*
X86778711Y-99785000D01*
X89361447Y-99785000D01*
X89400000Y-99788797D01*
X89438553Y-99785000D01*
X89438561Y-99785000D01*
X89553887Y-99773641D01*
X89681270Y-99735000D01*
X89801939Y-99735000D01*
X90001898Y-99695226D01*
X90190256Y-99617205D01*
X90359774Y-99503937D01*
X90503937Y-99359774D01*
X90617205Y-99190256D01*
X90695226Y-99001898D01*
X90735000Y-98801939D01*
X90735000Y-98598061D01*
X90695226Y-98398102D01*
X90617205Y-98209744D01*
X90503937Y-98040226D01*
X90359774Y-97896063D01*
X90190256Y-97782795D01*
X90001898Y-97704774D01*
X89875500Y-97679632D01*
X90031612Y-97523520D01*
X90155824Y-97337624D01*
X90241383Y-97131067D01*
X90285000Y-96911788D01*
X90285000Y-96688212D01*
X90241383Y-96468933D01*
X90155824Y-96262376D01*
X90031612Y-96076480D01*
X89985000Y-96029868D01*
X89985000Y-94204812D01*
X89989039Y-94163804D01*
X89985000Y-94122796D01*
X89985000Y-94122786D01*
X89983512Y-94107674D01*
X90005672Y-93996265D01*
X90005672Y-93772689D01*
X89962055Y-93553410D01*
X89876496Y-93346853D01*
X89752284Y-93160957D01*
X89594192Y-93002865D01*
X89408296Y-92878653D01*
X89282763Y-92826655D01*
X93240000Y-92826655D01*
X93240000Y-93173345D01*
X93307636Y-93513373D01*
X93440308Y-93833673D01*
X93632919Y-94121935D01*
X93878065Y-94367081D01*
X94166327Y-94559692D01*
X94486627Y-94692364D01*
X94826655Y-94760000D01*
X95173345Y-94760000D01*
X95513373Y-94692364D01*
X95833673Y-94559692D01*
X96121935Y-94367081D01*
X96367081Y-94121935D01*
X96559692Y-93833673D01*
X96692364Y-93513373D01*
X96760000Y-93173345D01*
X96760000Y-92826655D01*
X96692364Y-92486627D01*
X96559692Y-92166327D01*
X96367081Y-91878065D01*
X96121935Y-91632919D01*
X95833673Y-91440308D01*
X95513373Y-91307636D01*
X95173345Y-91240000D01*
X94826655Y-91240000D01*
X94486627Y-91307636D01*
X94166327Y-91440308D01*
X93878065Y-91632919D01*
X93632919Y-91878065D01*
X93440308Y-92166327D01*
X93307636Y-92486627D01*
X93240000Y-92826655D01*
X89282763Y-92826655D01*
X89201739Y-92793094D01*
X88982460Y-92749477D01*
X88758884Y-92749477D01*
X88539605Y-92793094D01*
X88333048Y-92878653D01*
X88147152Y-93002865D01*
X87989060Y-93160957D01*
X87864848Y-93346853D01*
X87779289Y-93553410D01*
X87735672Y-93772689D01*
X87735672Y-93996265D01*
X87779289Y-94215544D01*
X87864848Y-94422101D01*
X87989060Y-94607997D01*
X88147152Y-94766089D01*
X88315001Y-94878242D01*
X88315000Y-96029868D01*
X88268388Y-96076480D01*
X88144176Y-96262376D01*
X88058617Y-96468933D01*
X88015000Y-96688212D01*
X88015000Y-96911788D01*
X88058617Y-97131067D01*
X88144176Y-97337624D01*
X88268388Y-97523520D01*
X88426480Y-97681612D01*
X88612376Y-97805824D01*
X88818933Y-97891383D01*
X89007415Y-97928874D01*
X88896063Y-98040226D01*
X88782795Y-98209744D01*
X88780618Y-98215000D01*
X86778711Y-98215000D01*
X86759774Y-98196063D01*
X86590256Y-98082795D01*
X86401898Y-98004774D01*
X86201939Y-97965000D01*
X85998061Y-97965000D01*
X85798102Y-98004774D01*
X85609744Y-98082795D01*
X85440226Y-98196063D01*
X85296063Y-98340226D01*
X85182795Y-98509744D01*
X85104774Y-98698102D01*
X85065000Y-98898061D01*
X82660000Y-98898061D01*
X82660000Y-86338212D01*
X90315000Y-86338212D01*
X90315000Y-86561788D01*
X90358617Y-86781067D01*
X90444176Y-86987624D01*
X90568388Y-87173520D01*
X90726480Y-87331612D01*
X90912376Y-87455824D01*
X91118933Y-87541383D01*
X91338212Y-87585000D01*
X91561788Y-87585000D01*
X91781067Y-87541383D01*
X91987624Y-87455824D01*
X92173520Y-87331612D01*
X92195132Y-87310000D01*
X93554868Y-87310000D01*
X93626480Y-87381612D01*
X93812376Y-87505824D01*
X94018933Y-87591383D01*
X94238212Y-87635000D01*
X94461788Y-87635000D01*
X94681067Y-87591383D01*
X94887624Y-87505824D01*
X95073520Y-87381612D01*
X95231612Y-87223520D01*
X95355824Y-87037624D01*
X95441383Y-86831067D01*
X95485000Y-86611788D01*
X95485000Y-86388212D01*
X95441383Y-86168933D01*
X95355824Y-85962376D01*
X95231612Y-85776480D01*
X95073520Y-85618388D01*
X94887624Y-85494176D01*
X94681067Y-85408617D01*
X94461788Y-85365000D01*
X94238212Y-85365000D01*
X94018933Y-85408617D01*
X93812376Y-85494176D01*
X93668966Y-85590000D01*
X92195132Y-85590000D01*
X92173520Y-85568388D01*
X91987624Y-85444176D01*
X91781067Y-85358617D01*
X91561788Y-85315000D01*
X91338212Y-85315000D01*
X91118933Y-85358617D01*
X90912376Y-85444176D01*
X90726480Y-85568388D01*
X90568388Y-85726480D01*
X90444176Y-85912376D01*
X90358617Y-86118933D01*
X90315000Y-86338212D01*
X82660000Y-86338212D01*
X82660000Y-82835000D01*
X82776961Y-82835000D01*
X82976920Y-82795226D01*
X83165278Y-82717205D01*
X83334796Y-82603937D01*
X83366516Y-82572217D01*
X84266987Y-82572217D01*
X84285924Y-82591154D01*
X84455442Y-82704422D01*
X84643800Y-82782443D01*
X84843759Y-82822217D01*
X85047637Y-82822217D01*
X85247596Y-82782443D01*
X85435954Y-82704422D01*
X85605472Y-82591154D01*
X85658414Y-82538212D01*
X90315000Y-82538212D01*
X90315000Y-82761788D01*
X90358617Y-82981067D01*
X90444176Y-83187624D01*
X90568388Y-83373520D01*
X90726480Y-83531612D01*
X90912376Y-83655824D01*
X91118933Y-83741383D01*
X91338212Y-83785000D01*
X91561788Y-83785000D01*
X91781067Y-83741383D01*
X91987624Y-83655824D01*
X92173520Y-83531612D01*
X92195132Y-83510000D01*
X92554868Y-83510000D01*
X92626480Y-83581612D01*
X92812376Y-83705824D01*
X93018933Y-83791383D01*
X93238212Y-83835000D01*
X93461788Y-83835000D01*
X93681067Y-83791383D01*
X93887624Y-83705824D01*
X94073520Y-83581612D01*
X94231612Y-83423520D01*
X94355824Y-83237624D01*
X94441383Y-83031067D01*
X94485000Y-82811788D01*
X94485000Y-82588212D01*
X94441383Y-82368933D01*
X94355824Y-82162376D01*
X94231612Y-81976480D01*
X94073520Y-81818388D01*
X93887624Y-81694176D01*
X93681067Y-81608617D01*
X93461788Y-81565000D01*
X93238212Y-81565000D01*
X93018933Y-81608617D01*
X92812376Y-81694176D01*
X92668966Y-81790000D01*
X92195132Y-81790000D01*
X92173520Y-81768388D01*
X91987624Y-81644176D01*
X91781067Y-81558617D01*
X91561788Y-81515000D01*
X91338212Y-81515000D01*
X91118933Y-81558617D01*
X90912376Y-81644176D01*
X90726480Y-81768388D01*
X90568388Y-81926480D01*
X90444176Y-82112376D01*
X90358617Y-82318933D01*
X90315000Y-82538212D01*
X85658414Y-82538212D01*
X85749635Y-82446991D01*
X85862903Y-82277473D01*
X85940924Y-82089115D01*
X85980698Y-81889156D01*
X85980698Y-81685278D01*
X85940924Y-81485319D01*
X85862903Y-81296961D01*
X85768618Y-81155853D01*
X85788932Y-81131101D01*
X85922182Y-80881808D01*
X86004236Y-80611309D01*
X86031943Y-80330000D01*
X86004236Y-80048691D01*
X85922182Y-79778192D01*
X85788932Y-79528899D01*
X85609608Y-79310392D01*
X85391101Y-79131068D01*
X85277176Y-79070174D01*
X85502839Y-78922601D01*
X85704500Y-78724895D01*
X85863715Y-78491646D01*
X85974367Y-78231818D01*
X85991904Y-78149039D01*
X85869915Y-77927000D01*
X84027000Y-77927000D01*
X84027000Y-77947000D01*
X83773000Y-77947000D01*
X83773000Y-77927000D01*
X83753000Y-77927000D01*
X83753000Y-77848061D01*
X95165000Y-77848061D01*
X95165000Y-78051939D01*
X95204774Y-78251898D01*
X95282795Y-78440256D01*
X95396063Y-78609774D01*
X95540226Y-78753937D01*
X95709744Y-78867205D01*
X95898102Y-78945226D01*
X96098061Y-78985000D01*
X96301939Y-78985000D01*
X96501898Y-78945226D01*
X96690256Y-78867205D01*
X96859774Y-78753937D01*
X96878711Y-78735000D01*
X97721289Y-78735000D01*
X97740226Y-78753937D01*
X97909744Y-78867205D01*
X98098102Y-78945226D01*
X98298061Y-78985000D01*
X98501939Y-78985000D01*
X98701898Y-78945226D01*
X98890256Y-78867205D01*
X99059774Y-78753937D01*
X99203937Y-78609774D01*
X99317205Y-78440256D01*
X99395226Y-78251898D01*
X99435000Y-78051939D01*
X99435000Y-77848061D01*
X99395226Y-77648102D01*
X99317205Y-77459744D01*
X99203937Y-77290226D01*
X99059774Y-77146063D01*
X98890256Y-77032795D01*
X98701898Y-76954774D01*
X98501939Y-76915000D01*
X98298061Y-76915000D01*
X98098102Y-76954774D01*
X97909744Y-77032795D01*
X97740226Y-77146063D01*
X97721289Y-77165000D01*
X96878711Y-77165000D01*
X96859774Y-77146063D01*
X96690256Y-77032795D01*
X96501898Y-76954774D01*
X96301939Y-76915000D01*
X96098061Y-76915000D01*
X95898102Y-76954774D01*
X95709744Y-77032795D01*
X95540226Y-77146063D01*
X95396063Y-77290226D01*
X95282795Y-77459744D01*
X95204774Y-77648102D01*
X95165000Y-77848061D01*
X83753000Y-77848061D01*
X83753000Y-77673000D01*
X83773000Y-77673000D01*
X83773000Y-76365000D01*
X84027000Y-76365000D01*
X84027000Y-77673000D01*
X85869915Y-77673000D01*
X85991904Y-77450961D01*
X85974367Y-77368182D01*
X85863715Y-77108354D01*
X85704500Y-76875105D01*
X85502839Y-76677399D01*
X85266483Y-76522834D01*
X85004514Y-76417350D01*
X84727000Y-76365000D01*
X84027000Y-76365000D01*
X83773000Y-76365000D01*
X83073000Y-76365000D01*
X82795486Y-76417350D01*
X82660000Y-76471905D01*
X82660000Y-75160000D01*
X105865000Y-75160000D01*
X105865000Y-75301939D01*
M02*
