G04 #@! TF.GenerationSoftware,KiCad,Pcbnew,(5.1.5-0-10_14)*
G04 #@! TF.CreationDate,2021-09-10T16:44:22+02:00*
G04 #@! TF.ProjectId,cleanblend,636c6561-6e62-46c6-956e-642e6b696361,rev?*
G04 #@! TF.SameCoordinates,Original*
G04 #@! TF.FileFunction,Legend,Bot*
G04 #@! TF.FilePolarity,Positive*
%FSLAX46Y46*%
G04 Gerber Fmt 4.6, Leading zero omitted, Abs format (unit mm)*
G04 Created by KiCad (PCBNEW (5.1.5-0-10_14)) date 2021-09-10 16:44:22*
%MOMM*%
%LPD*%
G04 APERTURE LIST*
%ADD10C,0.110000*%
%ADD11C,0.150000*%
%ADD12C,0.120000*%
%ADD13C,0.100000*%
%ADD14C,0.127000*%
%ADD15C,0.081280*%
%ADD16C,0.048768*%
G04 APERTURE END LIST*
D10*
X83443333Y-94228500D02*
X83476666Y-94328500D01*
X83476666Y-94495166D01*
X83443333Y-94561833D01*
X83410000Y-94595166D01*
X83343333Y-94628500D01*
X83276666Y-94628500D01*
X83210000Y-94595166D01*
X83176666Y-94561833D01*
X83143333Y-94495166D01*
X83110000Y-94361833D01*
X83076666Y-94295166D01*
X83043333Y-94261833D01*
X82976666Y-94228500D01*
X82910000Y-94228500D01*
X82843333Y-94261833D01*
X82810000Y-94295166D01*
X82776666Y-94361833D01*
X82776666Y-94528500D01*
X82810000Y-94628500D01*
X83476666Y-95461833D02*
X82776666Y-95461833D01*
X82776666Y-95728500D01*
X82810000Y-95795166D01*
X82843333Y-95828500D01*
X82910000Y-95861833D01*
X83010000Y-95861833D01*
X83076666Y-95828500D01*
X83110000Y-95795166D01*
X83143333Y-95728500D01*
X83143333Y-95461833D01*
X83476666Y-97028500D02*
X83476666Y-96695166D01*
X82776666Y-96695166D01*
X83476666Y-97795166D02*
X82776666Y-97795166D01*
X82776666Y-98561833D02*
X82776666Y-98961833D01*
X83476666Y-98761833D02*
X82776666Y-98761833D01*
X83476666Y-100295166D02*
X83476666Y-100261833D01*
X83443333Y-100195166D01*
X83343333Y-100095166D01*
X83143333Y-99928500D01*
X83043333Y-99861833D01*
X82943333Y-99828500D01*
X82876666Y-99828500D01*
X82810000Y-99861833D01*
X82776666Y-99928500D01*
X82776666Y-99961833D01*
X82810000Y-100028500D01*
X82876666Y-100061833D01*
X82910000Y-100061833D01*
X82976666Y-100028500D01*
X83010000Y-99995166D01*
X83143333Y-99795166D01*
X83176666Y-99761833D01*
X83243333Y-99728500D01*
X83343333Y-99728500D01*
X83410000Y-99761833D01*
X83443333Y-99795166D01*
X83476666Y-99861833D01*
X83476666Y-99961833D01*
X83443333Y-100028500D01*
X83410000Y-100061833D01*
X83276666Y-100161833D01*
X83176666Y-100195166D01*
X83110000Y-100195166D01*
X83476666Y-101128500D02*
X82776666Y-101128500D01*
X83276666Y-101361833D01*
X82776666Y-101595166D01*
X83476666Y-101595166D01*
X83476666Y-102461833D02*
X82776666Y-102461833D01*
X82776666Y-103261833D02*
X83476666Y-103728500D01*
X82776666Y-103728500D02*
X83476666Y-103261833D01*
X84170000Y-102195166D02*
X84636666Y-102361833D01*
X84170000Y-102528500D01*
X84636666Y-103695166D02*
X84636666Y-103295166D01*
X84636666Y-103495166D02*
X83936666Y-103495166D01*
X84036666Y-103428500D01*
X84103333Y-103361833D01*
X84136666Y-103295166D01*
X85730000Y-95628500D02*
X85763333Y-95595166D01*
X85796666Y-95495166D01*
X85796666Y-95428500D01*
X85763333Y-95328500D01*
X85696666Y-95261833D01*
X85630000Y-95228500D01*
X85496666Y-95195166D01*
X85396666Y-95195166D01*
X85263333Y-95228500D01*
X85196666Y-95261833D01*
X85130000Y-95328500D01*
X85096666Y-95428500D01*
X85096666Y-95495166D01*
X85130000Y-95595166D01*
X85163333Y-95628500D01*
X85796666Y-95928500D02*
X85330000Y-95928500D01*
X85096666Y-95928500D02*
X85130000Y-95895166D01*
X85163333Y-95928500D01*
X85130000Y-95961833D01*
X85096666Y-95928500D01*
X85163333Y-95928500D01*
X85796666Y-96261833D02*
X85330000Y-96261833D01*
X85463333Y-96261833D02*
X85396666Y-96295166D01*
X85363333Y-96328500D01*
X85330000Y-96395166D01*
X85330000Y-96461833D01*
X85763333Y-96995166D02*
X85796666Y-96928500D01*
X85796666Y-96795166D01*
X85763333Y-96728500D01*
X85730000Y-96695166D01*
X85663333Y-96661833D01*
X85463333Y-96661833D01*
X85396666Y-96695166D01*
X85363333Y-96728500D01*
X85330000Y-96795166D01*
X85330000Y-96928500D01*
X85363333Y-96995166D01*
X85330000Y-97595166D02*
X85796666Y-97595166D01*
X85330000Y-97295166D02*
X85696666Y-97295166D01*
X85763333Y-97328500D01*
X85796666Y-97395166D01*
X85796666Y-97495166D01*
X85763333Y-97561833D01*
X85730000Y-97595166D01*
X85796666Y-97928500D02*
X85330000Y-97928500D01*
X85096666Y-97928500D02*
X85130000Y-97895166D01*
X85163333Y-97928500D01*
X85130000Y-97961833D01*
X85096666Y-97928500D01*
X85163333Y-97928500D01*
X85330000Y-98161833D02*
X85330000Y-98428500D01*
X85096666Y-98261833D02*
X85696666Y-98261833D01*
X85763333Y-98295166D01*
X85796666Y-98361833D01*
X85796666Y-98428500D01*
X85796666Y-99761833D02*
X85796666Y-99728500D01*
X85763333Y-99661833D01*
X85663333Y-99561833D01*
X85463333Y-99395166D01*
X85363333Y-99328500D01*
X85263333Y-99295166D01*
X85196666Y-99295166D01*
X85130000Y-99328500D01*
X85096666Y-99395166D01*
X85096666Y-99428500D01*
X85130000Y-99495166D01*
X85196666Y-99528500D01*
X85230000Y-99528500D01*
X85296666Y-99495166D01*
X85330000Y-99461833D01*
X85463333Y-99261833D01*
X85496666Y-99228500D01*
X85563333Y-99195166D01*
X85663333Y-99195166D01*
X85730000Y-99228500D01*
X85763333Y-99261833D01*
X85796666Y-99328500D01*
X85796666Y-99428500D01*
X85763333Y-99495166D01*
X85730000Y-99528500D01*
X85596666Y-99628500D01*
X85496666Y-99661833D01*
X85430000Y-99661833D01*
X85796666Y-100928500D02*
X85796666Y-100595166D01*
X85096666Y-100595166D01*
X85796666Y-101461833D02*
X85430000Y-101461833D01*
X85363333Y-101428500D01*
X85330000Y-101361833D01*
X85330000Y-101228500D01*
X85363333Y-101161833D01*
X85763333Y-101461833D02*
X85796666Y-101395166D01*
X85796666Y-101228500D01*
X85763333Y-101161833D01*
X85696666Y-101128500D01*
X85630000Y-101128500D01*
X85563333Y-101161833D01*
X85530000Y-101228500D01*
X85530000Y-101395166D01*
X85496666Y-101461833D01*
X85330000Y-101728500D02*
X85796666Y-101895166D01*
X85330000Y-102061833D02*
X85796666Y-101895166D01*
X85963333Y-101828500D01*
X85996666Y-101795166D01*
X86030000Y-101728500D01*
X85796666Y-102428500D02*
X85763333Y-102361833D01*
X85730000Y-102328500D01*
X85663333Y-102295166D01*
X85463333Y-102295166D01*
X85396666Y-102328500D01*
X85363333Y-102361833D01*
X85330000Y-102428500D01*
X85330000Y-102528500D01*
X85363333Y-102595166D01*
X85396666Y-102628500D01*
X85463333Y-102661833D01*
X85663333Y-102661833D01*
X85730000Y-102628500D01*
X85763333Y-102595166D01*
X85796666Y-102528500D01*
X85796666Y-102428500D01*
X85330000Y-103261833D02*
X85796666Y-103261833D01*
X85330000Y-102961833D02*
X85696666Y-102961833D01*
X85763333Y-102995166D01*
X85796666Y-103061833D01*
X85796666Y-103161833D01*
X85763333Y-103228500D01*
X85730000Y-103261833D01*
X85330000Y-103495166D02*
X85330000Y-103761833D01*
X85096666Y-103595166D02*
X85696666Y-103595166D01*
X85763333Y-103628500D01*
X85796666Y-103695166D01*
X85796666Y-103761833D01*
X86956666Y-93095166D02*
X86256666Y-93095166D01*
X86523333Y-93095166D02*
X86490000Y-93161833D01*
X86490000Y-93295166D01*
X86523333Y-93361833D01*
X86556666Y-93395166D01*
X86623333Y-93428500D01*
X86823333Y-93428500D01*
X86890000Y-93395166D01*
X86923333Y-93361833D01*
X86956666Y-93295166D01*
X86956666Y-93161833D01*
X86923333Y-93095166D01*
X86490000Y-93661833D02*
X86956666Y-93828500D01*
X86490000Y-93995166D02*
X86956666Y-93828500D01*
X87123333Y-93761833D01*
X87156666Y-93728500D01*
X87190000Y-93661833D01*
X86756666Y-94761833D02*
X86756666Y-95095166D01*
X86956666Y-94695166D02*
X86256666Y-94928500D01*
X86956666Y-95161833D01*
X86490000Y-95395166D02*
X86956666Y-95395166D01*
X86556666Y-95395166D02*
X86523333Y-95428500D01*
X86490000Y-95495166D01*
X86490000Y-95595166D01*
X86523333Y-95661833D01*
X86590000Y-95695166D01*
X86956666Y-95695166D01*
X86956666Y-96328500D02*
X86256666Y-96328500D01*
X86923333Y-96328500D02*
X86956666Y-96261833D01*
X86956666Y-96128500D01*
X86923333Y-96061833D01*
X86890000Y-96028500D01*
X86823333Y-95995166D01*
X86623333Y-95995166D01*
X86556666Y-96028500D01*
X86523333Y-96061833D01*
X86490000Y-96128500D01*
X86490000Y-96261833D01*
X86523333Y-96328500D01*
X86956666Y-96661833D02*
X86490000Y-96661833D01*
X86623333Y-96661833D02*
X86556666Y-96695166D01*
X86523333Y-96728500D01*
X86490000Y-96795166D01*
X86490000Y-96861833D01*
X86923333Y-97361833D02*
X86956666Y-97295166D01*
X86956666Y-97161833D01*
X86923333Y-97095166D01*
X86856666Y-97061833D01*
X86590000Y-97061833D01*
X86523333Y-97095166D01*
X86490000Y-97161833D01*
X86490000Y-97295166D01*
X86523333Y-97361833D01*
X86590000Y-97395166D01*
X86656666Y-97395166D01*
X86723333Y-97061833D01*
X86490000Y-97628500D02*
X86956666Y-97795166D01*
X86490000Y-97961833D02*
X86956666Y-97795166D01*
X87123333Y-97728500D01*
X87156666Y-97695166D01*
X87190000Y-97628500D01*
X86923333Y-98728500D02*
X86956666Y-98828500D01*
X86956666Y-98995166D01*
X86923333Y-99061833D01*
X86890000Y-99095166D01*
X86823333Y-99128500D01*
X86756666Y-99128500D01*
X86690000Y-99095166D01*
X86656666Y-99061833D01*
X86623333Y-98995166D01*
X86590000Y-98861833D01*
X86556666Y-98795166D01*
X86523333Y-98761833D01*
X86456666Y-98728500D01*
X86390000Y-98728500D01*
X86323333Y-98761833D01*
X86290000Y-98795166D01*
X86256666Y-98861833D01*
X86256666Y-99028500D01*
X86290000Y-99128500D01*
X86956666Y-99728500D02*
X86590000Y-99728500D01*
X86523333Y-99695166D01*
X86490000Y-99628500D01*
X86490000Y-99495166D01*
X86523333Y-99428500D01*
X86923333Y-99728500D02*
X86956666Y-99661833D01*
X86956666Y-99495166D01*
X86923333Y-99428500D01*
X86856666Y-99395166D01*
X86790000Y-99395166D01*
X86723333Y-99428500D01*
X86690000Y-99495166D01*
X86690000Y-99661833D01*
X86656666Y-99728500D01*
X86956666Y-100161833D02*
X86923333Y-100095166D01*
X86856666Y-100061833D01*
X86256666Y-100061833D01*
X86956666Y-100528500D02*
X86923333Y-100461833D01*
X86890000Y-100428500D01*
X86823333Y-100395166D01*
X86623333Y-100395166D01*
X86556666Y-100428500D01*
X86523333Y-100461833D01*
X86490000Y-100528500D01*
X86490000Y-100628500D01*
X86523333Y-100695166D01*
X86556666Y-100728500D01*
X86623333Y-100761833D01*
X86823333Y-100761833D01*
X86890000Y-100728500D01*
X86923333Y-100695166D01*
X86956666Y-100628500D01*
X86956666Y-100528500D01*
X86956666Y-101061833D02*
X86490000Y-101061833D01*
X86556666Y-101061833D02*
X86523333Y-101095166D01*
X86490000Y-101161833D01*
X86490000Y-101261833D01*
X86523333Y-101328500D01*
X86590000Y-101361833D01*
X86956666Y-101361833D01*
X86590000Y-101361833D02*
X86523333Y-101395166D01*
X86490000Y-101461833D01*
X86490000Y-101561833D01*
X86523333Y-101628500D01*
X86590000Y-101661833D01*
X86956666Y-101661833D01*
X86956666Y-102295166D02*
X86590000Y-102295166D01*
X86523333Y-102261833D01*
X86490000Y-102195166D01*
X86490000Y-102061833D01*
X86523333Y-101995166D01*
X86923333Y-102295166D02*
X86956666Y-102228500D01*
X86956666Y-102061833D01*
X86923333Y-101995166D01*
X86856666Y-101961833D01*
X86790000Y-101961833D01*
X86723333Y-101995166D01*
X86690000Y-102061833D01*
X86690000Y-102228500D01*
X86656666Y-102295166D01*
X86490000Y-102528500D02*
X86490000Y-102795166D01*
X86256666Y-102628500D02*
X86856666Y-102628500D01*
X86923333Y-102661833D01*
X86956666Y-102728500D01*
X86956666Y-102795166D01*
X86956666Y-103028500D02*
X86490000Y-103028500D01*
X86256666Y-103028500D02*
X86290000Y-102995166D01*
X86323333Y-103028500D01*
X86290000Y-103061833D01*
X86256666Y-103028500D01*
X86323333Y-103028500D01*
X86490000Y-103361833D02*
X86956666Y-103361833D01*
X86556666Y-103361833D02*
X86523333Y-103395166D01*
X86490000Y-103461833D01*
X86490000Y-103561833D01*
X86523333Y-103628500D01*
X86590000Y-103661833D01*
X86956666Y-103661833D01*
D11*
X96814285Y-87052380D02*
X97385714Y-87052380D01*
X97100000Y-87052380D02*
X97100000Y-86052380D01*
X97195238Y-86195238D01*
X97290476Y-86290476D01*
X97385714Y-86338095D01*
X103385714Y-86147619D02*
X103338095Y-86100000D01*
X103242857Y-86052380D01*
X103004761Y-86052380D01*
X102909523Y-86100000D01*
X102861904Y-86147619D01*
X102814285Y-86242857D01*
X102814285Y-86338095D01*
X102861904Y-86480952D01*
X103433333Y-87052380D01*
X102814285Y-87052380D01*
D12*
X101885705Y-85142895D02*
X102100000Y-85500000D01*
X101885705Y-85142895D02*
X102300000Y-85000000D01*
X98100001Y-85100001D02*
X97800000Y-85400000D01*
X97600000Y-85000000D02*
X98100001Y-85100001D01*
X98100001Y-85100001D02*
X97600000Y-85000000D01*
X95157454Y-86472298D02*
G75*
G02X98100001Y-85100001I4842546J-6542702D01*
G01*
X101885705Y-85142896D02*
G75*
G02X104799999Y-86500001I-1885705J-7857104D01*
G01*
D13*
G36*
X98222000Y-97714000D02*
G01*
X101778000Y-97714000D01*
X101778000Y-97333000D01*
X98222000Y-97333000D01*
X98222000Y-97714000D01*
G37*
G36*
X98222000Y-88697000D02*
G01*
X101778000Y-88697000D01*
X101778000Y-88316000D01*
X98222000Y-88316000D01*
X98222000Y-88697000D01*
G37*
D14*
X104064000Y-98730000D02*
X105080000Y-97714000D01*
X105080000Y-97714000D02*
X105080000Y-94285000D01*
X105080000Y-88570000D02*
X105080000Y-91745000D01*
X94920000Y-97714000D02*
X94920000Y-94285000D01*
X94920000Y-88570000D02*
X94920000Y-91745000D01*
X100635000Y-93015000D02*
G75*
G03X100635000Y-93015000I-635000J0D01*
G01*
X95936000Y-101270000D02*
X95936000Y-98730000D01*
X104064000Y-101270000D02*
X95936000Y-101270000D01*
X104064000Y-98730000D02*
X104064000Y-101270000D01*
X95936000Y-98730000D02*
X104064000Y-98730000D01*
X100000000Y-92635000D02*
X100000000Y-93365000D01*
X99635000Y-93000000D02*
X100365000Y-93000000D01*
X94920000Y-97714000D02*
X95936000Y-98730000D01*
X94920000Y-88570000D02*
X95555000Y-87935000D01*
X104445000Y-87935000D02*
X105080000Y-88570000D01*
X95555000Y-87935000D02*
X104445000Y-87935000D01*
X103175000Y-93000000D02*
G75*
G03X103175000Y-93000000I-3175000J0D01*
G01*
D12*
X108400000Y-74990000D02*
X108400000Y-77530000D01*
X111570000Y-75003500D02*
X111570000Y-76333500D01*
X109916500Y-75000000D02*
X111570000Y-75003500D01*
X108390000Y-80090000D02*
X108390000Y-82630000D01*
X111560000Y-80103500D02*
X111560000Y-81433500D01*
X109906500Y-80100000D02*
X111560000Y-80103500D01*
X108400000Y-77540000D02*
X108400000Y-80080000D01*
X111570000Y-77553500D02*
X111570000Y-78883500D01*
X109916500Y-77550000D02*
X111570000Y-77553500D01*
X108410000Y-92130000D02*
X108410000Y-94670000D01*
X111580000Y-92143500D02*
X111580000Y-93473500D01*
X109926500Y-92140000D02*
X111580000Y-92143500D01*
X109926500Y-94690000D02*
X111580000Y-94693500D01*
X111580000Y-94693500D02*
X111580000Y-96023500D01*
X108410000Y-94680000D02*
X108410000Y-97220000D01*
X108420000Y-97220000D02*
X108420000Y-99760000D01*
X111590000Y-97233500D02*
X111590000Y-98563500D01*
X109936500Y-97230000D02*
X111590000Y-97233500D01*
X85470000Y-81610000D02*
X85470000Y-79070000D01*
X82300000Y-81596500D02*
X82300000Y-80266500D01*
X83953500Y-81600000D02*
X82300000Y-81596500D01*
X85480000Y-79080000D02*
X85480000Y-76540000D01*
X82310000Y-79066500D02*
X82310000Y-77736500D01*
X83963500Y-79070000D02*
X82310000Y-79066500D01*
D15*
X100574523Y-97261638D02*
X100896257Y-96802019D01*
X101126066Y-97261638D02*
X101126066Y-96296438D01*
X100758371Y-96296438D01*
X100666447Y-96342400D01*
X100620485Y-96388361D01*
X100574523Y-96480285D01*
X100574523Y-96618171D01*
X100620485Y-96710095D01*
X100666447Y-96756057D01*
X100758371Y-96802019D01*
X101126066Y-96802019D01*
X100298752Y-96296438D02*
X99977019Y-97261638D01*
X99655285Y-96296438D01*
X98827971Y-97261638D02*
X99379514Y-97261638D01*
X99103742Y-97261638D02*
X99103742Y-96296438D01*
X99195666Y-96434323D01*
X99287590Y-96526247D01*
X99379514Y-96572209D01*
D16*
X96329569Y-97996302D02*
X95971066Y-97996302D01*
X96164106Y-98216920D01*
X96081375Y-98216920D01*
X96026220Y-98244497D01*
X95998643Y-98272074D01*
X95971066Y-98327228D01*
X95971066Y-98465114D01*
X95998643Y-98520268D01*
X96026220Y-98547845D01*
X96081375Y-98575422D01*
X96246837Y-98575422D01*
X96301992Y-98547845D01*
X96329569Y-98520268D01*
D11*
X106002380Y-74861904D02*
X105002380Y-74861904D01*
X105716666Y-75195238D01*
X105002380Y-75528571D01*
X106002380Y-75528571D01*
X106002380Y-76004761D02*
X105335714Y-76004761D01*
X105002380Y-76004761D02*
X105050000Y-75957142D01*
X105097619Y-76004761D01*
X105050000Y-76052380D01*
X105002380Y-76004761D01*
X105097619Y-76004761D01*
X106002380Y-76385714D02*
X105335714Y-76909523D01*
X105335714Y-76385714D02*
X106002380Y-76909523D01*
X105002380Y-77480952D02*
X105002380Y-77671428D01*
X105050000Y-77766666D01*
X105145238Y-77861904D01*
X105335714Y-77909523D01*
X105669047Y-77909523D01*
X105859523Y-77861904D01*
X105954761Y-77766666D01*
X106002380Y-77671428D01*
X106002380Y-77480952D01*
X105954761Y-77385714D01*
X105859523Y-77290476D01*
X105669047Y-77242857D01*
X105335714Y-77242857D01*
X105145238Y-77290476D01*
X105050000Y-77385714D01*
X105002380Y-77480952D01*
X105335714Y-78766666D02*
X106002380Y-78766666D01*
X105335714Y-78338095D02*
X105859523Y-78338095D01*
X105954761Y-78385714D01*
X106002380Y-78480952D01*
X106002380Y-78623809D01*
X105954761Y-78719047D01*
X105907142Y-78766666D01*
X105335714Y-79100000D02*
X105335714Y-79480952D01*
X105002380Y-79242857D02*
X105859523Y-79242857D01*
X105954761Y-79290476D01*
X106002380Y-79385714D01*
X106002380Y-79480952D01*
X106232380Y-80357142D02*
X105232380Y-80357142D01*
X105946666Y-80690476D01*
X105232380Y-81023809D01*
X106232380Y-81023809D01*
X106232380Y-81500000D02*
X105565714Y-81500000D01*
X105232380Y-81500000D02*
X105280000Y-81452380D01*
X105327619Y-81500000D01*
X105280000Y-81547619D01*
X105232380Y-81500000D01*
X105327619Y-81500000D01*
X106232380Y-81880952D02*
X105565714Y-82404761D01*
X105565714Y-81880952D02*
X106232380Y-82404761D01*
X106232380Y-82785714D02*
X105232380Y-82785714D01*
X105565714Y-83261904D02*
X106232380Y-83261904D01*
X105660952Y-83261904D02*
X105613333Y-83309523D01*
X105565714Y-83404761D01*
X105565714Y-83547619D01*
X105613333Y-83642857D01*
X105708571Y-83690476D01*
X106232380Y-83690476D01*
X105327619Y-84119047D02*
X105280000Y-84166666D01*
X105232380Y-84261904D01*
X105232380Y-84500000D01*
X105280000Y-84595238D01*
X105327619Y-84642857D01*
X105422857Y-84690476D01*
X105518095Y-84690476D01*
X105660952Y-84642857D01*
X106232380Y-84071428D01*
X106232380Y-84690476D01*
X107922380Y-76767142D02*
X106922380Y-76767142D01*
X107636666Y-77100476D01*
X106922380Y-77433809D01*
X107922380Y-77433809D01*
X107922380Y-77910000D02*
X107255714Y-77910000D01*
X106922380Y-77910000D02*
X106970000Y-77862380D01*
X107017619Y-77910000D01*
X106970000Y-77957619D01*
X106922380Y-77910000D01*
X107017619Y-77910000D01*
X107922380Y-78290952D02*
X107255714Y-78814761D01*
X107255714Y-78290952D02*
X107922380Y-78814761D01*
X107922380Y-79195714D02*
X106922380Y-79195714D01*
X107255714Y-79671904D02*
X107922380Y-79671904D01*
X107350952Y-79671904D02*
X107303333Y-79719523D01*
X107255714Y-79814761D01*
X107255714Y-79957619D01*
X107303333Y-80052857D01*
X107398571Y-80100476D01*
X107922380Y-80100476D01*
X107922380Y-81100476D02*
X107922380Y-80529047D01*
X107922380Y-80814761D02*
X106922380Y-80814761D01*
X107065238Y-80719523D01*
X107160476Y-80624285D01*
X107208095Y-80529047D01*
X107837142Y-92047619D02*
X107884761Y-92000000D01*
X107932380Y-91857142D01*
X107932380Y-91761904D01*
X107884761Y-91619047D01*
X107789523Y-91523809D01*
X107694285Y-91476190D01*
X107503809Y-91428571D01*
X107360952Y-91428571D01*
X107170476Y-91476190D01*
X107075238Y-91523809D01*
X106980000Y-91619047D01*
X106932380Y-91761904D01*
X106932380Y-91857142D01*
X106980000Y-92000000D01*
X107027619Y-92047619D01*
X107932380Y-92619047D02*
X107884761Y-92523809D01*
X107837142Y-92476190D01*
X107741904Y-92428571D01*
X107456190Y-92428571D01*
X107360952Y-92476190D01*
X107313333Y-92523809D01*
X107265714Y-92619047D01*
X107265714Y-92761904D01*
X107313333Y-92857142D01*
X107360952Y-92904761D01*
X107456190Y-92952380D01*
X107741904Y-92952380D01*
X107837142Y-92904761D01*
X107884761Y-92857142D01*
X107932380Y-92761904D01*
X107932380Y-92619047D01*
X107265714Y-93380952D02*
X108265714Y-93380952D01*
X107313333Y-93380952D02*
X107265714Y-93476190D01*
X107265714Y-93666666D01*
X107313333Y-93761904D01*
X107360952Y-93809523D01*
X107456190Y-93857142D01*
X107741904Y-93857142D01*
X107837142Y-93809523D01*
X107884761Y-93761904D01*
X107932380Y-93666666D01*
X107932380Y-93476190D01*
X107884761Y-93380952D01*
X107265714Y-94190476D02*
X107932380Y-94428571D01*
X107265714Y-94666666D02*
X107932380Y-94428571D01*
X108170476Y-94333333D01*
X108218095Y-94285714D01*
X108265714Y-94190476D01*
X107027619Y-95000000D02*
X106980000Y-95047619D01*
X106932380Y-95142857D01*
X106932380Y-95380952D01*
X106980000Y-95476190D01*
X107027619Y-95523809D01*
X107122857Y-95571428D01*
X107218095Y-95571428D01*
X107360952Y-95523809D01*
X107932380Y-94952380D01*
X107932380Y-95571428D01*
X106307142Y-94947619D02*
X106354761Y-94900000D01*
X106402380Y-94757142D01*
X106402380Y-94661904D01*
X106354761Y-94519047D01*
X106259523Y-94423809D01*
X106164285Y-94376190D01*
X105973809Y-94328571D01*
X105830952Y-94328571D01*
X105640476Y-94376190D01*
X105545238Y-94423809D01*
X105450000Y-94519047D01*
X105402380Y-94661904D01*
X105402380Y-94757142D01*
X105450000Y-94900000D01*
X105497619Y-94947619D01*
X106402380Y-95519047D02*
X106354761Y-95423809D01*
X106307142Y-95376190D01*
X106211904Y-95328571D01*
X105926190Y-95328571D01*
X105830952Y-95376190D01*
X105783333Y-95423809D01*
X105735714Y-95519047D01*
X105735714Y-95661904D01*
X105783333Y-95757142D01*
X105830952Y-95804761D01*
X105926190Y-95852380D01*
X106211904Y-95852380D01*
X106307142Y-95804761D01*
X106354761Y-95757142D01*
X106402380Y-95661904D01*
X106402380Y-95519047D01*
X105735714Y-96280952D02*
X106735714Y-96280952D01*
X105783333Y-96280952D02*
X105735714Y-96376190D01*
X105735714Y-96566666D01*
X105783333Y-96661904D01*
X105830952Y-96709523D01*
X105926190Y-96757142D01*
X106211904Y-96757142D01*
X106307142Y-96709523D01*
X106354761Y-96661904D01*
X106402380Y-96566666D01*
X106402380Y-96376190D01*
X106354761Y-96280952D01*
X105735714Y-97090476D02*
X106402380Y-97328571D01*
X105735714Y-97566666D02*
X106402380Y-97328571D01*
X106640476Y-97233333D01*
X106688095Y-97185714D01*
X106735714Y-97090476D01*
X106402380Y-98471428D02*
X106402380Y-97900000D01*
X106402380Y-98185714D02*
X105402380Y-98185714D01*
X105545238Y-98090476D01*
X105640476Y-97995238D01*
X105688095Y-97900000D01*
X107857142Y-98214285D02*
X107904761Y-98166666D01*
X107952380Y-98023809D01*
X107952380Y-97928571D01*
X107904761Y-97785714D01*
X107809523Y-97690476D01*
X107714285Y-97642857D01*
X107523809Y-97595238D01*
X107380952Y-97595238D01*
X107190476Y-97642857D01*
X107095238Y-97690476D01*
X107000000Y-97785714D01*
X106952380Y-97928571D01*
X106952380Y-98023809D01*
X107000000Y-98166666D01*
X107047619Y-98214285D01*
X107952380Y-98785714D02*
X107904761Y-98690476D01*
X107809523Y-98642857D01*
X106952380Y-98642857D01*
X107904761Y-99547619D02*
X107952380Y-99452380D01*
X107952380Y-99261904D01*
X107904761Y-99166666D01*
X107809523Y-99119047D01*
X107428571Y-99119047D01*
X107333333Y-99166666D01*
X107285714Y-99261904D01*
X107285714Y-99452380D01*
X107333333Y-99547619D01*
X107428571Y-99595238D01*
X107523809Y-99595238D01*
X107619047Y-99119047D01*
X107952380Y-100452380D02*
X107428571Y-100452380D01*
X107333333Y-100404761D01*
X107285714Y-100309523D01*
X107285714Y-100119047D01*
X107333333Y-100023809D01*
X107904761Y-100452380D02*
X107952380Y-100357142D01*
X107952380Y-100119047D01*
X107904761Y-100023809D01*
X107809523Y-99976190D01*
X107714285Y-99976190D01*
X107619047Y-100023809D01*
X107571428Y-100119047D01*
X107571428Y-100357142D01*
X107523809Y-100452380D01*
X107285714Y-100928571D02*
X107952380Y-100928571D01*
X107380952Y-100928571D02*
X107333333Y-100976190D01*
X107285714Y-101071428D01*
X107285714Y-101214285D01*
X107333333Y-101309523D01*
X107428571Y-101357142D01*
X107952380Y-101357142D01*
X86481428Y-80214285D02*
X86481428Y-80976190D01*
X86862380Y-80595238D02*
X86100476Y-80595238D01*
X86862380Y-81500000D02*
X86862380Y-81690476D01*
X86814761Y-81785714D01*
X86767142Y-81833333D01*
X86624285Y-81928571D01*
X86433809Y-81976190D01*
X86052857Y-81976190D01*
X85957619Y-81928571D01*
X85910000Y-81880952D01*
X85862380Y-81785714D01*
X85862380Y-81595238D01*
X85910000Y-81500000D01*
X85957619Y-81452380D01*
X86052857Y-81404761D01*
X86290952Y-81404761D01*
X86386190Y-81452380D01*
X86433809Y-81500000D01*
X86481428Y-81595238D01*
X86481428Y-81785714D01*
X86433809Y-81880952D01*
X86386190Y-81928571D01*
X86290952Y-81976190D01*
X85862380Y-82261904D02*
X86862380Y-82595238D01*
X85862380Y-82928571D01*
X85910000Y-77188095D02*
X85862380Y-77092857D01*
X85862380Y-76950000D01*
X85910000Y-76807142D01*
X86005238Y-76711904D01*
X86100476Y-76664285D01*
X86290952Y-76616666D01*
X86433809Y-76616666D01*
X86624285Y-76664285D01*
X86719523Y-76711904D01*
X86814761Y-76807142D01*
X86862380Y-76950000D01*
X86862380Y-77045238D01*
X86814761Y-77188095D01*
X86767142Y-77235714D01*
X86433809Y-77235714D01*
X86433809Y-77045238D01*
X86862380Y-77664285D02*
X85862380Y-77664285D01*
X86862380Y-78235714D01*
X85862380Y-78235714D01*
X86862380Y-78711904D02*
X85862380Y-78711904D01*
X85862380Y-78950000D01*
X85910000Y-79092857D01*
X86005238Y-79188095D01*
X86100476Y-79235714D01*
X86290952Y-79283333D01*
X86433809Y-79283333D01*
X86624285Y-79235714D01*
X86719523Y-79188095D01*
X86814761Y-79092857D01*
X86862380Y-78950000D01*
X86862380Y-78711904D01*
M02*
