G04 #@! TF.GenerationSoftware,KiCad,Pcbnew,(5.1.5-0-10_14)*
G04 #@! TF.CreationDate,2021-09-10T16:44:22+02:00*
G04 #@! TF.ProjectId,cleanblend,636c6561-6e62-46c6-956e-642e6b696361,rev?*
G04 #@! TF.SameCoordinates,Original*
G04 #@! TF.FileFunction,Paste,Top*
G04 #@! TF.FilePolarity,Positive*
%FSLAX46Y46*%
G04 Gerber Fmt 4.6, Leading zero omitted, Abs format (unit mm)*
G04 Created by KiCad (PCBNEW (5.1.5-0-10_14)) date 2021-09-10 16:44:22*
%MOMM*%
%LPD*%
G04 APERTURE LIST*
%ADD10C,0.100000*%
G04 APERTURE END LIST*
D10*
G36*
X96354703Y-84050722D02*
G01*
X96369264Y-84052882D01*
X96383543Y-84056459D01*
X96397403Y-84061418D01*
X96410710Y-84067712D01*
X96423336Y-84075280D01*
X96435159Y-84084048D01*
X96446066Y-84093934D01*
X96455952Y-84104841D01*
X96464720Y-84116664D01*
X96472288Y-84129290D01*
X96478582Y-84142597D01*
X96483541Y-84156457D01*
X96487118Y-84170736D01*
X96489278Y-84185297D01*
X96490000Y-84200000D01*
X96490000Y-85850000D01*
X96489278Y-85864703D01*
X96487118Y-85879264D01*
X96483541Y-85893543D01*
X96478582Y-85907403D01*
X96472288Y-85920710D01*
X96464720Y-85933336D01*
X96455952Y-85945159D01*
X96446066Y-85956066D01*
X96435159Y-85965952D01*
X96423336Y-85974720D01*
X96410710Y-85982288D01*
X96397403Y-85988582D01*
X96383543Y-85993541D01*
X96369264Y-85997118D01*
X96354703Y-85999278D01*
X96340000Y-86000000D01*
X96040000Y-86000000D01*
X96025297Y-85999278D01*
X96010736Y-85997118D01*
X95996457Y-85993541D01*
X95982597Y-85988582D01*
X95969290Y-85982288D01*
X95956664Y-85974720D01*
X95944841Y-85965952D01*
X95933934Y-85956066D01*
X95924048Y-85945159D01*
X95915280Y-85933336D01*
X95907712Y-85920710D01*
X95901418Y-85907403D01*
X95896459Y-85893543D01*
X95892882Y-85879264D01*
X95890722Y-85864703D01*
X95890000Y-85850000D01*
X95890000Y-84200000D01*
X95890722Y-84185297D01*
X95892882Y-84170736D01*
X95896459Y-84156457D01*
X95901418Y-84142597D01*
X95907712Y-84129290D01*
X95915280Y-84116664D01*
X95924048Y-84104841D01*
X95933934Y-84093934D01*
X95944841Y-84084048D01*
X95956664Y-84075280D01*
X95969290Y-84067712D01*
X95982597Y-84061418D01*
X95996457Y-84056459D01*
X96010736Y-84052882D01*
X96025297Y-84050722D01*
X96040000Y-84050000D01*
X96340000Y-84050000D01*
X96354703Y-84050722D01*
G37*
G36*
X97624703Y-84050722D02*
G01*
X97639264Y-84052882D01*
X97653543Y-84056459D01*
X97667403Y-84061418D01*
X97680710Y-84067712D01*
X97693336Y-84075280D01*
X97705159Y-84084048D01*
X97716066Y-84093934D01*
X97725952Y-84104841D01*
X97734720Y-84116664D01*
X97742288Y-84129290D01*
X97748582Y-84142597D01*
X97753541Y-84156457D01*
X97757118Y-84170736D01*
X97759278Y-84185297D01*
X97760000Y-84200000D01*
X97760000Y-85850000D01*
X97759278Y-85864703D01*
X97757118Y-85879264D01*
X97753541Y-85893543D01*
X97748582Y-85907403D01*
X97742288Y-85920710D01*
X97734720Y-85933336D01*
X97725952Y-85945159D01*
X97716066Y-85956066D01*
X97705159Y-85965952D01*
X97693336Y-85974720D01*
X97680710Y-85982288D01*
X97667403Y-85988582D01*
X97653543Y-85993541D01*
X97639264Y-85997118D01*
X97624703Y-85999278D01*
X97610000Y-86000000D01*
X97310000Y-86000000D01*
X97295297Y-85999278D01*
X97280736Y-85997118D01*
X97266457Y-85993541D01*
X97252597Y-85988582D01*
X97239290Y-85982288D01*
X97226664Y-85974720D01*
X97214841Y-85965952D01*
X97203934Y-85956066D01*
X97194048Y-85945159D01*
X97185280Y-85933336D01*
X97177712Y-85920710D01*
X97171418Y-85907403D01*
X97166459Y-85893543D01*
X97162882Y-85879264D01*
X97160722Y-85864703D01*
X97160000Y-85850000D01*
X97160000Y-84200000D01*
X97160722Y-84185297D01*
X97162882Y-84170736D01*
X97166459Y-84156457D01*
X97171418Y-84142597D01*
X97177712Y-84129290D01*
X97185280Y-84116664D01*
X97194048Y-84104841D01*
X97203934Y-84093934D01*
X97214841Y-84084048D01*
X97226664Y-84075280D01*
X97239290Y-84067712D01*
X97252597Y-84061418D01*
X97266457Y-84056459D01*
X97280736Y-84052882D01*
X97295297Y-84050722D01*
X97310000Y-84050000D01*
X97610000Y-84050000D01*
X97624703Y-84050722D01*
G37*
G36*
X98894703Y-84050722D02*
G01*
X98909264Y-84052882D01*
X98923543Y-84056459D01*
X98937403Y-84061418D01*
X98950710Y-84067712D01*
X98963336Y-84075280D01*
X98975159Y-84084048D01*
X98986066Y-84093934D01*
X98995952Y-84104841D01*
X99004720Y-84116664D01*
X99012288Y-84129290D01*
X99018582Y-84142597D01*
X99023541Y-84156457D01*
X99027118Y-84170736D01*
X99029278Y-84185297D01*
X99030000Y-84200000D01*
X99030000Y-85850000D01*
X99029278Y-85864703D01*
X99027118Y-85879264D01*
X99023541Y-85893543D01*
X99018582Y-85907403D01*
X99012288Y-85920710D01*
X99004720Y-85933336D01*
X98995952Y-85945159D01*
X98986066Y-85956066D01*
X98975159Y-85965952D01*
X98963336Y-85974720D01*
X98950710Y-85982288D01*
X98937403Y-85988582D01*
X98923543Y-85993541D01*
X98909264Y-85997118D01*
X98894703Y-85999278D01*
X98880000Y-86000000D01*
X98580000Y-86000000D01*
X98565297Y-85999278D01*
X98550736Y-85997118D01*
X98536457Y-85993541D01*
X98522597Y-85988582D01*
X98509290Y-85982288D01*
X98496664Y-85974720D01*
X98484841Y-85965952D01*
X98473934Y-85956066D01*
X98464048Y-85945159D01*
X98455280Y-85933336D01*
X98447712Y-85920710D01*
X98441418Y-85907403D01*
X98436459Y-85893543D01*
X98432882Y-85879264D01*
X98430722Y-85864703D01*
X98430000Y-85850000D01*
X98430000Y-84200000D01*
X98430722Y-84185297D01*
X98432882Y-84170736D01*
X98436459Y-84156457D01*
X98441418Y-84142597D01*
X98447712Y-84129290D01*
X98455280Y-84116664D01*
X98464048Y-84104841D01*
X98473934Y-84093934D01*
X98484841Y-84084048D01*
X98496664Y-84075280D01*
X98509290Y-84067712D01*
X98522597Y-84061418D01*
X98536457Y-84056459D01*
X98550736Y-84052882D01*
X98565297Y-84050722D01*
X98580000Y-84050000D01*
X98880000Y-84050000D01*
X98894703Y-84050722D01*
G37*
G36*
X100164703Y-84050722D02*
G01*
X100179264Y-84052882D01*
X100193543Y-84056459D01*
X100207403Y-84061418D01*
X100220710Y-84067712D01*
X100233336Y-84075280D01*
X100245159Y-84084048D01*
X100256066Y-84093934D01*
X100265952Y-84104841D01*
X100274720Y-84116664D01*
X100282288Y-84129290D01*
X100288582Y-84142597D01*
X100293541Y-84156457D01*
X100297118Y-84170736D01*
X100299278Y-84185297D01*
X100300000Y-84200000D01*
X100300000Y-85850000D01*
X100299278Y-85864703D01*
X100297118Y-85879264D01*
X100293541Y-85893543D01*
X100288582Y-85907403D01*
X100282288Y-85920710D01*
X100274720Y-85933336D01*
X100265952Y-85945159D01*
X100256066Y-85956066D01*
X100245159Y-85965952D01*
X100233336Y-85974720D01*
X100220710Y-85982288D01*
X100207403Y-85988582D01*
X100193543Y-85993541D01*
X100179264Y-85997118D01*
X100164703Y-85999278D01*
X100150000Y-86000000D01*
X99850000Y-86000000D01*
X99835297Y-85999278D01*
X99820736Y-85997118D01*
X99806457Y-85993541D01*
X99792597Y-85988582D01*
X99779290Y-85982288D01*
X99766664Y-85974720D01*
X99754841Y-85965952D01*
X99743934Y-85956066D01*
X99734048Y-85945159D01*
X99725280Y-85933336D01*
X99717712Y-85920710D01*
X99711418Y-85907403D01*
X99706459Y-85893543D01*
X99702882Y-85879264D01*
X99700722Y-85864703D01*
X99700000Y-85850000D01*
X99700000Y-84200000D01*
X99700722Y-84185297D01*
X99702882Y-84170736D01*
X99706459Y-84156457D01*
X99711418Y-84142597D01*
X99717712Y-84129290D01*
X99725280Y-84116664D01*
X99734048Y-84104841D01*
X99743934Y-84093934D01*
X99754841Y-84084048D01*
X99766664Y-84075280D01*
X99779290Y-84067712D01*
X99792597Y-84061418D01*
X99806457Y-84056459D01*
X99820736Y-84052882D01*
X99835297Y-84050722D01*
X99850000Y-84050000D01*
X100150000Y-84050000D01*
X100164703Y-84050722D01*
G37*
G36*
X101434703Y-84050722D02*
G01*
X101449264Y-84052882D01*
X101463543Y-84056459D01*
X101477403Y-84061418D01*
X101490710Y-84067712D01*
X101503336Y-84075280D01*
X101515159Y-84084048D01*
X101526066Y-84093934D01*
X101535952Y-84104841D01*
X101544720Y-84116664D01*
X101552288Y-84129290D01*
X101558582Y-84142597D01*
X101563541Y-84156457D01*
X101567118Y-84170736D01*
X101569278Y-84185297D01*
X101570000Y-84200000D01*
X101570000Y-85850000D01*
X101569278Y-85864703D01*
X101567118Y-85879264D01*
X101563541Y-85893543D01*
X101558582Y-85907403D01*
X101552288Y-85920710D01*
X101544720Y-85933336D01*
X101535952Y-85945159D01*
X101526066Y-85956066D01*
X101515159Y-85965952D01*
X101503336Y-85974720D01*
X101490710Y-85982288D01*
X101477403Y-85988582D01*
X101463543Y-85993541D01*
X101449264Y-85997118D01*
X101434703Y-85999278D01*
X101420000Y-86000000D01*
X101120000Y-86000000D01*
X101105297Y-85999278D01*
X101090736Y-85997118D01*
X101076457Y-85993541D01*
X101062597Y-85988582D01*
X101049290Y-85982288D01*
X101036664Y-85974720D01*
X101024841Y-85965952D01*
X101013934Y-85956066D01*
X101004048Y-85945159D01*
X100995280Y-85933336D01*
X100987712Y-85920710D01*
X100981418Y-85907403D01*
X100976459Y-85893543D01*
X100972882Y-85879264D01*
X100970722Y-85864703D01*
X100970000Y-85850000D01*
X100970000Y-84200000D01*
X100970722Y-84185297D01*
X100972882Y-84170736D01*
X100976459Y-84156457D01*
X100981418Y-84142597D01*
X100987712Y-84129290D01*
X100995280Y-84116664D01*
X101004048Y-84104841D01*
X101013934Y-84093934D01*
X101024841Y-84084048D01*
X101036664Y-84075280D01*
X101049290Y-84067712D01*
X101062597Y-84061418D01*
X101076457Y-84056459D01*
X101090736Y-84052882D01*
X101105297Y-84050722D01*
X101120000Y-84050000D01*
X101420000Y-84050000D01*
X101434703Y-84050722D01*
G37*
G36*
X102704703Y-84050722D02*
G01*
X102719264Y-84052882D01*
X102733543Y-84056459D01*
X102747403Y-84061418D01*
X102760710Y-84067712D01*
X102773336Y-84075280D01*
X102785159Y-84084048D01*
X102796066Y-84093934D01*
X102805952Y-84104841D01*
X102814720Y-84116664D01*
X102822288Y-84129290D01*
X102828582Y-84142597D01*
X102833541Y-84156457D01*
X102837118Y-84170736D01*
X102839278Y-84185297D01*
X102840000Y-84200000D01*
X102840000Y-85850000D01*
X102839278Y-85864703D01*
X102837118Y-85879264D01*
X102833541Y-85893543D01*
X102828582Y-85907403D01*
X102822288Y-85920710D01*
X102814720Y-85933336D01*
X102805952Y-85945159D01*
X102796066Y-85956066D01*
X102785159Y-85965952D01*
X102773336Y-85974720D01*
X102760710Y-85982288D01*
X102747403Y-85988582D01*
X102733543Y-85993541D01*
X102719264Y-85997118D01*
X102704703Y-85999278D01*
X102690000Y-86000000D01*
X102390000Y-86000000D01*
X102375297Y-85999278D01*
X102360736Y-85997118D01*
X102346457Y-85993541D01*
X102332597Y-85988582D01*
X102319290Y-85982288D01*
X102306664Y-85974720D01*
X102294841Y-85965952D01*
X102283934Y-85956066D01*
X102274048Y-85945159D01*
X102265280Y-85933336D01*
X102257712Y-85920710D01*
X102251418Y-85907403D01*
X102246459Y-85893543D01*
X102242882Y-85879264D01*
X102240722Y-85864703D01*
X102240000Y-85850000D01*
X102240000Y-84200000D01*
X102240722Y-84185297D01*
X102242882Y-84170736D01*
X102246459Y-84156457D01*
X102251418Y-84142597D01*
X102257712Y-84129290D01*
X102265280Y-84116664D01*
X102274048Y-84104841D01*
X102283934Y-84093934D01*
X102294841Y-84084048D01*
X102306664Y-84075280D01*
X102319290Y-84067712D01*
X102332597Y-84061418D01*
X102346457Y-84056459D01*
X102360736Y-84052882D01*
X102375297Y-84050722D01*
X102390000Y-84050000D01*
X102690000Y-84050000D01*
X102704703Y-84050722D01*
G37*
G36*
X103974703Y-84050722D02*
G01*
X103989264Y-84052882D01*
X104003543Y-84056459D01*
X104017403Y-84061418D01*
X104030710Y-84067712D01*
X104043336Y-84075280D01*
X104055159Y-84084048D01*
X104066066Y-84093934D01*
X104075952Y-84104841D01*
X104084720Y-84116664D01*
X104092288Y-84129290D01*
X104098582Y-84142597D01*
X104103541Y-84156457D01*
X104107118Y-84170736D01*
X104109278Y-84185297D01*
X104110000Y-84200000D01*
X104110000Y-85850000D01*
X104109278Y-85864703D01*
X104107118Y-85879264D01*
X104103541Y-85893543D01*
X104098582Y-85907403D01*
X104092288Y-85920710D01*
X104084720Y-85933336D01*
X104075952Y-85945159D01*
X104066066Y-85956066D01*
X104055159Y-85965952D01*
X104043336Y-85974720D01*
X104030710Y-85982288D01*
X104017403Y-85988582D01*
X104003543Y-85993541D01*
X103989264Y-85997118D01*
X103974703Y-85999278D01*
X103960000Y-86000000D01*
X103660000Y-86000000D01*
X103645297Y-85999278D01*
X103630736Y-85997118D01*
X103616457Y-85993541D01*
X103602597Y-85988582D01*
X103589290Y-85982288D01*
X103576664Y-85974720D01*
X103564841Y-85965952D01*
X103553934Y-85956066D01*
X103544048Y-85945159D01*
X103535280Y-85933336D01*
X103527712Y-85920710D01*
X103521418Y-85907403D01*
X103516459Y-85893543D01*
X103512882Y-85879264D01*
X103510722Y-85864703D01*
X103510000Y-85850000D01*
X103510000Y-84200000D01*
X103510722Y-84185297D01*
X103512882Y-84170736D01*
X103516459Y-84156457D01*
X103521418Y-84142597D01*
X103527712Y-84129290D01*
X103535280Y-84116664D01*
X103544048Y-84104841D01*
X103553934Y-84093934D01*
X103564841Y-84084048D01*
X103576664Y-84075280D01*
X103589290Y-84067712D01*
X103602597Y-84061418D01*
X103616457Y-84056459D01*
X103630736Y-84052882D01*
X103645297Y-84050722D01*
X103660000Y-84050000D01*
X103960000Y-84050000D01*
X103974703Y-84050722D01*
G37*
G36*
X103974703Y-89000722D02*
G01*
X103989264Y-89002882D01*
X104003543Y-89006459D01*
X104017403Y-89011418D01*
X104030710Y-89017712D01*
X104043336Y-89025280D01*
X104055159Y-89034048D01*
X104066066Y-89043934D01*
X104075952Y-89054841D01*
X104084720Y-89066664D01*
X104092288Y-89079290D01*
X104098582Y-89092597D01*
X104103541Y-89106457D01*
X104107118Y-89120736D01*
X104109278Y-89135297D01*
X104110000Y-89150000D01*
X104110000Y-90800000D01*
X104109278Y-90814703D01*
X104107118Y-90829264D01*
X104103541Y-90843543D01*
X104098582Y-90857403D01*
X104092288Y-90870710D01*
X104084720Y-90883336D01*
X104075952Y-90895159D01*
X104066066Y-90906066D01*
X104055159Y-90915952D01*
X104043336Y-90924720D01*
X104030710Y-90932288D01*
X104017403Y-90938582D01*
X104003543Y-90943541D01*
X103989264Y-90947118D01*
X103974703Y-90949278D01*
X103960000Y-90950000D01*
X103660000Y-90950000D01*
X103645297Y-90949278D01*
X103630736Y-90947118D01*
X103616457Y-90943541D01*
X103602597Y-90938582D01*
X103589290Y-90932288D01*
X103576664Y-90924720D01*
X103564841Y-90915952D01*
X103553934Y-90906066D01*
X103544048Y-90895159D01*
X103535280Y-90883336D01*
X103527712Y-90870710D01*
X103521418Y-90857403D01*
X103516459Y-90843543D01*
X103512882Y-90829264D01*
X103510722Y-90814703D01*
X103510000Y-90800000D01*
X103510000Y-89150000D01*
X103510722Y-89135297D01*
X103512882Y-89120736D01*
X103516459Y-89106457D01*
X103521418Y-89092597D01*
X103527712Y-89079290D01*
X103535280Y-89066664D01*
X103544048Y-89054841D01*
X103553934Y-89043934D01*
X103564841Y-89034048D01*
X103576664Y-89025280D01*
X103589290Y-89017712D01*
X103602597Y-89011418D01*
X103616457Y-89006459D01*
X103630736Y-89002882D01*
X103645297Y-89000722D01*
X103660000Y-89000000D01*
X103960000Y-89000000D01*
X103974703Y-89000722D01*
G37*
G36*
X102704703Y-89000722D02*
G01*
X102719264Y-89002882D01*
X102733543Y-89006459D01*
X102747403Y-89011418D01*
X102760710Y-89017712D01*
X102773336Y-89025280D01*
X102785159Y-89034048D01*
X102796066Y-89043934D01*
X102805952Y-89054841D01*
X102814720Y-89066664D01*
X102822288Y-89079290D01*
X102828582Y-89092597D01*
X102833541Y-89106457D01*
X102837118Y-89120736D01*
X102839278Y-89135297D01*
X102840000Y-89150000D01*
X102840000Y-90800000D01*
X102839278Y-90814703D01*
X102837118Y-90829264D01*
X102833541Y-90843543D01*
X102828582Y-90857403D01*
X102822288Y-90870710D01*
X102814720Y-90883336D01*
X102805952Y-90895159D01*
X102796066Y-90906066D01*
X102785159Y-90915952D01*
X102773336Y-90924720D01*
X102760710Y-90932288D01*
X102747403Y-90938582D01*
X102733543Y-90943541D01*
X102719264Y-90947118D01*
X102704703Y-90949278D01*
X102690000Y-90950000D01*
X102390000Y-90950000D01*
X102375297Y-90949278D01*
X102360736Y-90947118D01*
X102346457Y-90943541D01*
X102332597Y-90938582D01*
X102319290Y-90932288D01*
X102306664Y-90924720D01*
X102294841Y-90915952D01*
X102283934Y-90906066D01*
X102274048Y-90895159D01*
X102265280Y-90883336D01*
X102257712Y-90870710D01*
X102251418Y-90857403D01*
X102246459Y-90843543D01*
X102242882Y-90829264D01*
X102240722Y-90814703D01*
X102240000Y-90800000D01*
X102240000Y-89150000D01*
X102240722Y-89135297D01*
X102242882Y-89120736D01*
X102246459Y-89106457D01*
X102251418Y-89092597D01*
X102257712Y-89079290D01*
X102265280Y-89066664D01*
X102274048Y-89054841D01*
X102283934Y-89043934D01*
X102294841Y-89034048D01*
X102306664Y-89025280D01*
X102319290Y-89017712D01*
X102332597Y-89011418D01*
X102346457Y-89006459D01*
X102360736Y-89002882D01*
X102375297Y-89000722D01*
X102390000Y-89000000D01*
X102690000Y-89000000D01*
X102704703Y-89000722D01*
G37*
G36*
X101434703Y-89000722D02*
G01*
X101449264Y-89002882D01*
X101463543Y-89006459D01*
X101477403Y-89011418D01*
X101490710Y-89017712D01*
X101503336Y-89025280D01*
X101515159Y-89034048D01*
X101526066Y-89043934D01*
X101535952Y-89054841D01*
X101544720Y-89066664D01*
X101552288Y-89079290D01*
X101558582Y-89092597D01*
X101563541Y-89106457D01*
X101567118Y-89120736D01*
X101569278Y-89135297D01*
X101570000Y-89150000D01*
X101570000Y-90800000D01*
X101569278Y-90814703D01*
X101567118Y-90829264D01*
X101563541Y-90843543D01*
X101558582Y-90857403D01*
X101552288Y-90870710D01*
X101544720Y-90883336D01*
X101535952Y-90895159D01*
X101526066Y-90906066D01*
X101515159Y-90915952D01*
X101503336Y-90924720D01*
X101490710Y-90932288D01*
X101477403Y-90938582D01*
X101463543Y-90943541D01*
X101449264Y-90947118D01*
X101434703Y-90949278D01*
X101420000Y-90950000D01*
X101120000Y-90950000D01*
X101105297Y-90949278D01*
X101090736Y-90947118D01*
X101076457Y-90943541D01*
X101062597Y-90938582D01*
X101049290Y-90932288D01*
X101036664Y-90924720D01*
X101024841Y-90915952D01*
X101013934Y-90906066D01*
X101004048Y-90895159D01*
X100995280Y-90883336D01*
X100987712Y-90870710D01*
X100981418Y-90857403D01*
X100976459Y-90843543D01*
X100972882Y-90829264D01*
X100970722Y-90814703D01*
X100970000Y-90800000D01*
X100970000Y-89150000D01*
X100970722Y-89135297D01*
X100972882Y-89120736D01*
X100976459Y-89106457D01*
X100981418Y-89092597D01*
X100987712Y-89079290D01*
X100995280Y-89066664D01*
X101004048Y-89054841D01*
X101013934Y-89043934D01*
X101024841Y-89034048D01*
X101036664Y-89025280D01*
X101049290Y-89017712D01*
X101062597Y-89011418D01*
X101076457Y-89006459D01*
X101090736Y-89002882D01*
X101105297Y-89000722D01*
X101120000Y-89000000D01*
X101420000Y-89000000D01*
X101434703Y-89000722D01*
G37*
G36*
X100164703Y-89000722D02*
G01*
X100179264Y-89002882D01*
X100193543Y-89006459D01*
X100207403Y-89011418D01*
X100220710Y-89017712D01*
X100233336Y-89025280D01*
X100245159Y-89034048D01*
X100256066Y-89043934D01*
X100265952Y-89054841D01*
X100274720Y-89066664D01*
X100282288Y-89079290D01*
X100288582Y-89092597D01*
X100293541Y-89106457D01*
X100297118Y-89120736D01*
X100299278Y-89135297D01*
X100300000Y-89150000D01*
X100300000Y-90800000D01*
X100299278Y-90814703D01*
X100297118Y-90829264D01*
X100293541Y-90843543D01*
X100288582Y-90857403D01*
X100282288Y-90870710D01*
X100274720Y-90883336D01*
X100265952Y-90895159D01*
X100256066Y-90906066D01*
X100245159Y-90915952D01*
X100233336Y-90924720D01*
X100220710Y-90932288D01*
X100207403Y-90938582D01*
X100193543Y-90943541D01*
X100179264Y-90947118D01*
X100164703Y-90949278D01*
X100150000Y-90950000D01*
X99850000Y-90950000D01*
X99835297Y-90949278D01*
X99820736Y-90947118D01*
X99806457Y-90943541D01*
X99792597Y-90938582D01*
X99779290Y-90932288D01*
X99766664Y-90924720D01*
X99754841Y-90915952D01*
X99743934Y-90906066D01*
X99734048Y-90895159D01*
X99725280Y-90883336D01*
X99717712Y-90870710D01*
X99711418Y-90857403D01*
X99706459Y-90843543D01*
X99702882Y-90829264D01*
X99700722Y-90814703D01*
X99700000Y-90800000D01*
X99700000Y-89150000D01*
X99700722Y-89135297D01*
X99702882Y-89120736D01*
X99706459Y-89106457D01*
X99711418Y-89092597D01*
X99717712Y-89079290D01*
X99725280Y-89066664D01*
X99734048Y-89054841D01*
X99743934Y-89043934D01*
X99754841Y-89034048D01*
X99766664Y-89025280D01*
X99779290Y-89017712D01*
X99792597Y-89011418D01*
X99806457Y-89006459D01*
X99820736Y-89002882D01*
X99835297Y-89000722D01*
X99850000Y-89000000D01*
X100150000Y-89000000D01*
X100164703Y-89000722D01*
G37*
G36*
X98894703Y-89000722D02*
G01*
X98909264Y-89002882D01*
X98923543Y-89006459D01*
X98937403Y-89011418D01*
X98950710Y-89017712D01*
X98963336Y-89025280D01*
X98975159Y-89034048D01*
X98986066Y-89043934D01*
X98995952Y-89054841D01*
X99004720Y-89066664D01*
X99012288Y-89079290D01*
X99018582Y-89092597D01*
X99023541Y-89106457D01*
X99027118Y-89120736D01*
X99029278Y-89135297D01*
X99030000Y-89150000D01*
X99030000Y-90800000D01*
X99029278Y-90814703D01*
X99027118Y-90829264D01*
X99023541Y-90843543D01*
X99018582Y-90857403D01*
X99012288Y-90870710D01*
X99004720Y-90883336D01*
X98995952Y-90895159D01*
X98986066Y-90906066D01*
X98975159Y-90915952D01*
X98963336Y-90924720D01*
X98950710Y-90932288D01*
X98937403Y-90938582D01*
X98923543Y-90943541D01*
X98909264Y-90947118D01*
X98894703Y-90949278D01*
X98880000Y-90950000D01*
X98580000Y-90950000D01*
X98565297Y-90949278D01*
X98550736Y-90947118D01*
X98536457Y-90943541D01*
X98522597Y-90938582D01*
X98509290Y-90932288D01*
X98496664Y-90924720D01*
X98484841Y-90915952D01*
X98473934Y-90906066D01*
X98464048Y-90895159D01*
X98455280Y-90883336D01*
X98447712Y-90870710D01*
X98441418Y-90857403D01*
X98436459Y-90843543D01*
X98432882Y-90829264D01*
X98430722Y-90814703D01*
X98430000Y-90800000D01*
X98430000Y-89150000D01*
X98430722Y-89135297D01*
X98432882Y-89120736D01*
X98436459Y-89106457D01*
X98441418Y-89092597D01*
X98447712Y-89079290D01*
X98455280Y-89066664D01*
X98464048Y-89054841D01*
X98473934Y-89043934D01*
X98484841Y-89034048D01*
X98496664Y-89025280D01*
X98509290Y-89017712D01*
X98522597Y-89011418D01*
X98536457Y-89006459D01*
X98550736Y-89002882D01*
X98565297Y-89000722D01*
X98580000Y-89000000D01*
X98880000Y-89000000D01*
X98894703Y-89000722D01*
G37*
G36*
X97624703Y-89000722D02*
G01*
X97639264Y-89002882D01*
X97653543Y-89006459D01*
X97667403Y-89011418D01*
X97680710Y-89017712D01*
X97693336Y-89025280D01*
X97705159Y-89034048D01*
X97716066Y-89043934D01*
X97725952Y-89054841D01*
X97734720Y-89066664D01*
X97742288Y-89079290D01*
X97748582Y-89092597D01*
X97753541Y-89106457D01*
X97757118Y-89120736D01*
X97759278Y-89135297D01*
X97760000Y-89150000D01*
X97760000Y-90800000D01*
X97759278Y-90814703D01*
X97757118Y-90829264D01*
X97753541Y-90843543D01*
X97748582Y-90857403D01*
X97742288Y-90870710D01*
X97734720Y-90883336D01*
X97725952Y-90895159D01*
X97716066Y-90906066D01*
X97705159Y-90915952D01*
X97693336Y-90924720D01*
X97680710Y-90932288D01*
X97667403Y-90938582D01*
X97653543Y-90943541D01*
X97639264Y-90947118D01*
X97624703Y-90949278D01*
X97610000Y-90950000D01*
X97310000Y-90950000D01*
X97295297Y-90949278D01*
X97280736Y-90947118D01*
X97266457Y-90943541D01*
X97252597Y-90938582D01*
X97239290Y-90932288D01*
X97226664Y-90924720D01*
X97214841Y-90915952D01*
X97203934Y-90906066D01*
X97194048Y-90895159D01*
X97185280Y-90883336D01*
X97177712Y-90870710D01*
X97171418Y-90857403D01*
X97166459Y-90843543D01*
X97162882Y-90829264D01*
X97160722Y-90814703D01*
X97160000Y-90800000D01*
X97160000Y-89150000D01*
X97160722Y-89135297D01*
X97162882Y-89120736D01*
X97166459Y-89106457D01*
X97171418Y-89092597D01*
X97177712Y-89079290D01*
X97185280Y-89066664D01*
X97194048Y-89054841D01*
X97203934Y-89043934D01*
X97214841Y-89034048D01*
X97226664Y-89025280D01*
X97239290Y-89017712D01*
X97252597Y-89011418D01*
X97266457Y-89006459D01*
X97280736Y-89002882D01*
X97295297Y-89000722D01*
X97310000Y-89000000D01*
X97610000Y-89000000D01*
X97624703Y-89000722D01*
G37*
G36*
X96354703Y-89000722D02*
G01*
X96369264Y-89002882D01*
X96383543Y-89006459D01*
X96397403Y-89011418D01*
X96410710Y-89017712D01*
X96423336Y-89025280D01*
X96435159Y-89034048D01*
X96446066Y-89043934D01*
X96455952Y-89054841D01*
X96464720Y-89066664D01*
X96472288Y-89079290D01*
X96478582Y-89092597D01*
X96483541Y-89106457D01*
X96487118Y-89120736D01*
X96489278Y-89135297D01*
X96490000Y-89150000D01*
X96490000Y-90800000D01*
X96489278Y-90814703D01*
X96487118Y-90829264D01*
X96483541Y-90843543D01*
X96478582Y-90857403D01*
X96472288Y-90870710D01*
X96464720Y-90883336D01*
X96455952Y-90895159D01*
X96446066Y-90906066D01*
X96435159Y-90915952D01*
X96423336Y-90924720D01*
X96410710Y-90932288D01*
X96397403Y-90938582D01*
X96383543Y-90943541D01*
X96369264Y-90947118D01*
X96354703Y-90949278D01*
X96340000Y-90950000D01*
X96040000Y-90950000D01*
X96025297Y-90949278D01*
X96010736Y-90947118D01*
X95996457Y-90943541D01*
X95982597Y-90938582D01*
X95969290Y-90932288D01*
X95956664Y-90924720D01*
X95944841Y-90915952D01*
X95933934Y-90906066D01*
X95924048Y-90895159D01*
X95915280Y-90883336D01*
X95907712Y-90870710D01*
X95901418Y-90857403D01*
X95896459Y-90843543D01*
X95892882Y-90829264D01*
X95890722Y-90814703D01*
X95890000Y-90800000D01*
X95890000Y-89150000D01*
X95890722Y-89135297D01*
X95892882Y-89120736D01*
X95896459Y-89106457D01*
X95901418Y-89092597D01*
X95907712Y-89079290D01*
X95915280Y-89066664D01*
X95924048Y-89054841D01*
X95933934Y-89043934D01*
X95944841Y-89034048D01*
X95956664Y-89025280D01*
X95969290Y-89017712D01*
X95982597Y-89011418D01*
X95996457Y-89006459D01*
X96010736Y-89002882D01*
X96025297Y-89000722D01*
X96040000Y-89000000D01*
X96340000Y-89000000D01*
X96354703Y-89000722D01*
G37*
G36*
X84160779Y-87751144D02*
G01*
X84183834Y-87754563D01*
X84206443Y-87760227D01*
X84228387Y-87768079D01*
X84249457Y-87778044D01*
X84269448Y-87790026D01*
X84288168Y-87803910D01*
X84305438Y-87819562D01*
X84321090Y-87836832D01*
X84334974Y-87855552D01*
X84346956Y-87875543D01*
X84356921Y-87896613D01*
X84364773Y-87918557D01*
X84370437Y-87941166D01*
X84373856Y-87964221D01*
X84375000Y-87987500D01*
X84375000Y-88562500D01*
X84373856Y-88585779D01*
X84370437Y-88608834D01*
X84364773Y-88631443D01*
X84356921Y-88653387D01*
X84346956Y-88674457D01*
X84334974Y-88694448D01*
X84321090Y-88713168D01*
X84305438Y-88730438D01*
X84288168Y-88746090D01*
X84269448Y-88759974D01*
X84249457Y-88771956D01*
X84228387Y-88781921D01*
X84206443Y-88789773D01*
X84183834Y-88795437D01*
X84160779Y-88798856D01*
X84137500Y-88800000D01*
X83662500Y-88800000D01*
X83639221Y-88798856D01*
X83616166Y-88795437D01*
X83593557Y-88789773D01*
X83571613Y-88781921D01*
X83550543Y-88771956D01*
X83530552Y-88759974D01*
X83511832Y-88746090D01*
X83494562Y-88730438D01*
X83478910Y-88713168D01*
X83465026Y-88694448D01*
X83453044Y-88674457D01*
X83443079Y-88653387D01*
X83435227Y-88631443D01*
X83429563Y-88608834D01*
X83426144Y-88585779D01*
X83425000Y-88562500D01*
X83425000Y-87987500D01*
X83426144Y-87964221D01*
X83429563Y-87941166D01*
X83435227Y-87918557D01*
X83443079Y-87896613D01*
X83453044Y-87875543D01*
X83465026Y-87855552D01*
X83478910Y-87836832D01*
X83494562Y-87819562D01*
X83511832Y-87803910D01*
X83530552Y-87790026D01*
X83550543Y-87778044D01*
X83571613Y-87768079D01*
X83593557Y-87760227D01*
X83616166Y-87754563D01*
X83639221Y-87751144D01*
X83662500Y-87750000D01*
X84137500Y-87750000D01*
X84160779Y-87751144D01*
G37*
G36*
X84160779Y-86001144D02*
G01*
X84183834Y-86004563D01*
X84206443Y-86010227D01*
X84228387Y-86018079D01*
X84249457Y-86028044D01*
X84269448Y-86040026D01*
X84288168Y-86053910D01*
X84305438Y-86069562D01*
X84321090Y-86086832D01*
X84334974Y-86105552D01*
X84346956Y-86125543D01*
X84356921Y-86146613D01*
X84364773Y-86168557D01*
X84370437Y-86191166D01*
X84373856Y-86214221D01*
X84375000Y-86237500D01*
X84375000Y-86812500D01*
X84373856Y-86835779D01*
X84370437Y-86858834D01*
X84364773Y-86881443D01*
X84356921Y-86903387D01*
X84346956Y-86924457D01*
X84334974Y-86944448D01*
X84321090Y-86963168D01*
X84305438Y-86980438D01*
X84288168Y-86996090D01*
X84269448Y-87009974D01*
X84249457Y-87021956D01*
X84228387Y-87031921D01*
X84206443Y-87039773D01*
X84183834Y-87045437D01*
X84160779Y-87048856D01*
X84137500Y-87050000D01*
X83662500Y-87050000D01*
X83639221Y-87048856D01*
X83616166Y-87045437D01*
X83593557Y-87039773D01*
X83571613Y-87031921D01*
X83550543Y-87021956D01*
X83530552Y-87009974D01*
X83511832Y-86996090D01*
X83494562Y-86980438D01*
X83478910Y-86963168D01*
X83465026Y-86944448D01*
X83453044Y-86924457D01*
X83443079Y-86903387D01*
X83435227Y-86881443D01*
X83429563Y-86858834D01*
X83426144Y-86835779D01*
X83425000Y-86812500D01*
X83425000Y-86237500D01*
X83426144Y-86214221D01*
X83429563Y-86191166D01*
X83435227Y-86168557D01*
X83443079Y-86146613D01*
X83453044Y-86125543D01*
X83465026Y-86105552D01*
X83478910Y-86086832D01*
X83494562Y-86069562D01*
X83511832Y-86053910D01*
X83530552Y-86040026D01*
X83550543Y-86028044D01*
X83571613Y-86018079D01*
X83593557Y-86010227D01*
X83616166Y-86004563D01*
X83639221Y-86001144D01*
X83662500Y-86000000D01*
X84137500Y-86000000D01*
X84160779Y-86001144D01*
G37*
G36*
X84160779Y-84151144D02*
G01*
X84183834Y-84154563D01*
X84206443Y-84160227D01*
X84228387Y-84168079D01*
X84249457Y-84178044D01*
X84269448Y-84190026D01*
X84288168Y-84203910D01*
X84305438Y-84219562D01*
X84321090Y-84236832D01*
X84334974Y-84255552D01*
X84346956Y-84275543D01*
X84356921Y-84296613D01*
X84364773Y-84318557D01*
X84370437Y-84341166D01*
X84373856Y-84364221D01*
X84375000Y-84387500D01*
X84375000Y-84962500D01*
X84373856Y-84985779D01*
X84370437Y-85008834D01*
X84364773Y-85031443D01*
X84356921Y-85053387D01*
X84346956Y-85074457D01*
X84334974Y-85094448D01*
X84321090Y-85113168D01*
X84305438Y-85130438D01*
X84288168Y-85146090D01*
X84269448Y-85159974D01*
X84249457Y-85171956D01*
X84228387Y-85181921D01*
X84206443Y-85189773D01*
X84183834Y-85195437D01*
X84160779Y-85198856D01*
X84137500Y-85200000D01*
X83662500Y-85200000D01*
X83639221Y-85198856D01*
X83616166Y-85195437D01*
X83593557Y-85189773D01*
X83571613Y-85181921D01*
X83550543Y-85171956D01*
X83530552Y-85159974D01*
X83511832Y-85146090D01*
X83494562Y-85130438D01*
X83478910Y-85113168D01*
X83465026Y-85094448D01*
X83453044Y-85074457D01*
X83443079Y-85053387D01*
X83435227Y-85031443D01*
X83429563Y-85008834D01*
X83426144Y-84985779D01*
X83425000Y-84962500D01*
X83425000Y-84387500D01*
X83426144Y-84364221D01*
X83429563Y-84341166D01*
X83435227Y-84318557D01*
X83443079Y-84296613D01*
X83453044Y-84275543D01*
X83465026Y-84255552D01*
X83478910Y-84236832D01*
X83494562Y-84219562D01*
X83511832Y-84203910D01*
X83530552Y-84190026D01*
X83550543Y-84178044D01*
X83571613Y-84168079D01*
X83593557Y-84160227D01*
X83616166Y-84154563D01*
X83639221Y-84151144D01*
X83662500Y-84150000D01*
X84137500Y-84150000D01*
X84160779Y-84151144D01*
G37*
G36*
X84160779Y-82401144D02*
G01*
X84183834Y-82404563D01*
X84206443Y-82410227D01*
X84228387Y-82418079D01*
X84249457Y-82428044D01*
X84269448Y-82440026D01*
X84288168Y-82453910D01*
X84305438Y-82469562D01*
X84321090Y-82486832D01*
X84334974Y-82505552D01*
X84346956Y-82525543D01*
X84356921Y-82546613D01*
X84364773Y-82568557D01*
X84370437Y-82591166D01*
X84373856Y-82614221D01*
X84375000Y-82637500D01*
X84375000Y-83212500D01*
X84373856Y-83235779D01*
X84370437Y-83258834D01*
X84364773Y-83281443D01*
X84356921Y-83303387D01*
X84346956Y-83324457D01*
X84334974Y-83344448D01*
X84321090Y-83363168D01*
X84305438Y-83380438D01*
X84288168Y-83396090D01*
X84269448Y-83409974D01*
X84249457Y-83421956D01*
X84228387Y-83431921D01*
X84206443Y-83439773D01*
X84183834Y-83445437D01*
X84160779Y-83448856D01*
X84137500Y-83450000D01*
X83662500Y-83450000D01*
X83639221Y-83448856D01*
X83616166Y-83445437D01*
X83593557Y-83439773D01*
X83571613Y-83431921D01*
X83550543Y-83421956D01*
X83530552Y-83409974D01*
X83511832Y-83396090D01*
X83494562Y-83380438D01*
X83478910Y-83363168D01*
X83465026Y-83344448D01*
X83453044Y-83324457D01*
X83443079Y-83303387D01*
X83435227Y-83281443D01*
X83429563Y-83258834D01*
X83426144Y-83235779D01*
X83425000Y-83212500D01*
X83425000Y-82637500D01*
X83426144Y-82614221D01*
X83429563Y-82591166D01*
X83435227Y-82568557D01*
X83443079Y-82546613D01*
X83453044Y-82525543D01*
X83465026Y-82505552D01*
X83478910Y-82486832D01*
X83494562Y-82469562D01*
X83511832Y-82453910D01*
X83530552Y-82440026D01*
X83550543Y-82428044D01*
X83571613Y-82418079D01*
X83593557Y-82410227D01*
X83616166Y-82404563D01*
X83639221Y-82401144D01*
X83662500Y-82400000D01*
X84137500Y-82400000D01*
X84160779Y-82401144D01*
G37*
G36*
X110360779Y-83401144D02*
G01*
X110383834Y-83404563D01*
X110406443Y-83410227D01*
X110428387Y-83418079D01*
X110449457Y-83428044D01*
X110469448Y-83440026D01*
X110488168Y-83453910D01*
X110505438Y-83469562D01*
X110521090Y-83486832D01*
X110534974Y-83505552D01*
X110546956Y-83525543D01*
X110556921Y-83546613D01*
X110564773Y-83568557D01*
X110570437Y-83591166D01*
X110573856Y-83614221D01*
X110575000Y-83637500D01*
X110575000Y-84212500D01*
X110573856Y-84235779D01*
X110570437Y-84258834D01*
X110564773Y-84281443D01*
X110556921Y-84303387D01*
X110546956Y-84324457D01*
X110534974Y-84344448D01*
X110521090Y-84363168D01*
X110505438Y-84380438D01*
X110488168Y-84396090D01*
X110469448Y-84409974D01*
X110449457Y-84421956D01*
X110428387Y-84431921D01*
X110406443Y-84439773D01*
X110383834Y-84445437D01*
X110360779Y-84448856D01*
X110337500Y-84450000D01*
X109862500Y-84450000D01*
X109839221Y-84448856D01*
X109816166Y-84445437D01*
X109793557Y-84439773D01*
X109771613Y-84431921D01*
X109750543Y-84421956D01*
X109730552Y-84409974D01*
X109711832Y-84396090D01*
X109694562Y-84380438D01*
X109678910Y-84363168D01*
X109665026Y-84344448D01*
X109653044Y-84324457D01*
X109643079Y-84303387D01*
X109635227Y-84281443D01*
X109629563Y-84258834D01*
X109626144Y-84235779D01*
X109625000Y-84212500D01*
X109625000Y-83637500D01*
X109626144Y-83614221D01*
X109629563Y-83591166D01*
X109635227Y-83568557D01*
X109643079Y-83546613D01*
X109653044Y-83525543D01*
X109665026Y-83505552D01*
X109678910Y-83486832D01*
X109694562Y-83469562D01*
X109711832Y-83453910D01*
X109730552Y-83440026D01*
X109750543Y-83428044D01*
X109771613Y-83418079D01*
X109793557Y-83410227D01*
X109816166Y-83404563D01*
X109839221Y-83401144D01*
X109862500Y-83400000D01*
X110337500Y-83400000D01*
X110360779Y-83401144D01*
G37*
G36*
X110360779Y-85151144D02*
G01*
X110383834Y-85154563D01*
X110406443Y-85160227D01*
X110428387Y-85168079D01*
X110449457Y-85178044D01*
X110469448Y-85190026D01*
X110488168Y-85203910D01*
X110505438Y-85219562D01*
X110521090Y-85236832D01*
X110534974Y-85255552D01*
X110546956Y-85275543D01*
X110556921Y-85296613D01*
X110564773Y-85318557D01*
X110570437Y-85341166D01*
X110573856Y-85364221D01*
X110575000Y-85387500D01*
X110575000Y-85962500D01*
X110573856Y-85985779D01*
X110570437Y-86008834D01*
X110564773Y-86031443D01*
X110556921Y-86053387D01*
X110546956Y-86074457D01*
X110534974Y-86094448D01*
X110521090Y-86113168D01*
X110505438Y-86130438D01*
X110488168Y-86146090D01*
X110469448Y-86159974D01*
X110449457Y-86171956D01*
X110428387Y-86181921D01*
X110406443Y-86189773D01*
X110383834Y-86195437D01*
X110360779Y-86198856D01*
X110337500Y-86200000D01*
X109862500Y-86200000D01*
X109839221Y-86198856D01*
X109816166Y-86195437D01*
X109793557Y-86189773D01*
X109771613Y-86181921D01*
X109750543Y-86171956D01*
X109730552Y-86159974D01*
X109711832Y-86146090D01*
X109694562Y-86130438D01*
X109678910Y-86113168D01*
X109665026Y-86094448D01*
X109653044Y-86074457D01*
X109643079Y-86053387D01*
X109635227Y-86031443D01*
X109629563Y-86008834D01*
X109626144Y-85985779D01*
X109625000Y-85962500D01*
X109625000Y-85387500D01*
X109626144Y-85364221D01*
X109629563Y-85341166D01*
X109635227Y-85318557D01*
X109643079Y-85296613D01*
X109653044Y-85275543D01*
X109665026Y-85255552D01*
X109678910Y-85236832D01*
X109694562Y-85219562D01*
X109711832Y-85203910D01*
X109730552Y-85190026D01*
X109750543Y-85178044D01*
X109771613Y-85168079D01*
X109793557Y-85160227D01*
X109816166Y-85154563D01*
X109839221Y-85151144D01*
X109862500Y-85150000D01*
X110337500Y-85150000D01*
X110360779Y-85151144D01*
G37*
G36*
X95835779Y-82326144D02*
G01*
X95858834Y-82329563D01*
X95881443Y-82335227D01*
X95903387Y-82343079D01*
X95924457Y-82353044D01*
X95944448Y-82365026D01*
X95963168Y-82378910D01*
X95980438Y-82394562D01*
X95996090Y-82411832D01*
X96009974Y-82430552D01*
X96021956Y-82450543D01*
X96031921Y-82471613D01*
X96039773Y-82493557D01*
X96045437Y-82516166D01*
X96048856Y-82539221D01*
X96050000Y-82562500D01*
X96050000Y-83037500D01*
X96048856Y-83060779D01*
X96045437Y-83083834D01*
X96039773Y-83106443D01*
X96031921Y-83128387D01*
X96021956Y-83149457D01*
X96009974Y-83169448D01*
X95996090Y-83188168D01*
X95980438Y-83205438D01*
X95963168Y-83221090D01*
X95944448Y-83234974D01*
X95924457Y-83246956D01*
X95903387Y-83256921D01*
X95881443Y-83264773D01*
X95858834Y-83270437D01*
X95835779Y-83273856D01*
X95812500Y-83275000D01*
X95237500Y-83275000D01*
X95214221Y-83273856D01*
X95191166Y-83270437D01*
X95168557Y-83264773D01*
X95146613Y-83256921D01*
X95125543Y-83246956D01*
X95105552Y-83234974D01*
X95086832Y-83221090D01*
X95069562Y-83205438D01*
X95053910Y-83188168D01*
X95040026Y-83169448D01*
X95028044Y-83149457D01*
X95018079Y-83128387D01*
X95010227Y-83106443D01*
X95004563Y-83083834D01*
X95001144Y-83060779D01*
X95000000Y-83037500D01*
X95000000Y-82562500D01*
X95001144Y-82539221D01*
X95004563Y-82516166D01*
X95010227Y-82493557D01*
X95018079Y-82471613D01*
X95028044Y-82450543D01*
X95040026Y-82430552D01*
X95053910Y-82411832D01*
X95069562Y-82394562D01*
X95086832Y-82378910D01*
X95105552Y-82365026D01*
X95125543Y-82353044D01*
X95146613Y-82343079D01*
X95168557Y-82335227D01*
X95191166Y-82329563D01*
X95214221Y-82326144D01*
X95237500Y-82325000D01*
X95812500Y-82325000D01*
X95835779Y-82326144D01*
G37*
G36*
X97585779Y-82326144D02*
G01*
X97608834Y-82329563D01*
X97631443Y-82335227D01*
X97653387Y-82343079D01*
X97674457Y-82353044D01*
X97694448Y-82365026D01*
X97713168Y-82378910D01*
X97730438Y-82394562D01*
X97746090Y-82411832D01*
X97759974Y-82430552D01*
X97771956Y-82450543D01*
X97781921Y-82471613D01*
X97789773Y-82493557D01*
X97795437Y-82516166D01*
X97798856Y-82539221D01*
X97800000Y-82562500D01*
X97800000Y-83037500D01*
X97798856Y-83060779D01*
X97795437Y-83083834D01*
X97789773Y-83106443D01*
X97781921Y-83128387D01*
X97771956Y-83149457D01*
X97759974Y-83169448D01*
X97746090Y-83188168D01*
X97730438Y-83205438D01*
X97713168Y-83221090D01*
X97694448Y-83234974D01*
X97674457Y-83246956D01*
X97653387Y-83256921D01*
X97631443Y-83264773D01*
X97608834Y-83270437D01*
X97585779Y-83273856D01*
X97562500Y-83275000D01*
X96987500Y-83275000D01*
X96964221Y-83273856D01*
X96941166Y-83270437D01*
X96918557Y-83264773D01*
X96896613Y-83256921D01*
X96875543Y-83246956D01*
X96855552Y-83234974D01*
X96836832Y-83221090D01*
X96819562Y-83205438D01*
X96803910Y-83188168D01*
X96790026Y-83169448D01*
X96778044Y-83149457D01*
X96768079Y-83128387D01*
X96760227Y-83106443D01*
X96754563Y-83083834D01*
X96751144Y-83060779D01*
X96750000Y-83037500D01*
X96750000Y-82562500D01*
X96751144Y-82539221D01*
X96754563Y-82516166D01*
X96760227Y-82493557D01*
X96768079Y-82471613D01*
X96778044Y-82450543D01*
X96790026Y-82430552D01*
X96803910Y-82411832D01*
X96819562Y-82394562D01*
X96836832Y-82378910D01*
X96855552Y-82365026D01*
X96875543Y-82353044D01*
X96896613Y-82343079D01*
X96918557Y-82335227D01*
X96941166Y-82329563D01*
X96964221Y-82326144D01*
X96987500Y-82325000D01*
X97562500Y-82325000D01*
X97585779Y-82326144D01*
G37*
G36*
X97485779Y-76626144D02*
G01*
X97508834Y-76629563D01*
X97531443Y-76635227D01*
X97553387Y-76643079D01*
X97574457Y-76653044D01*
X97594448Y-76665026D01*
X97613168Y-76678910D01*
X97630438Y-76694562D01*
X97646090Y-76711832D01*
X97659974Y-76730552D01*
X97671956Y-76750543D01*
X97681921Y-76771613D01*
X97689773Y-76793557D01*
X97695437Y-76816166D01*
X97698856Y-76839221D01*
X97700000Y-76862500D01*
X97700000Y-77337500D01*
X97698856Y-77360779D01*
X97695437Y-77383834D01*
X97689773Y-77406443D01*
X97681921Y-77428387D01*
X97671956Y-77449457D01*
X97659974Y-77469448D01*
X97646090Y-77488168D01*
X97630438Y-77505438D01*
X97613168Y-77521090D01*
X97594448Y-77534974D01*
X97574457Y-77546956D01*
X97553387Y-77556921D01*
X97531443Y-77564773D01*
X97508834Y-77570437D01*
X97485779Y-77573856D01*
X97462500Y-77575000D01*
X96887500Y-77575000D01*
X96864221Y-77573856D01*
X96841166Y-77570437D01*
X96818557Y-77564773D01*
X96796613Y-77556921D01*
X96775543Y-77546956D01*
X96755552Y-77534974D01*
X96736832Y-77521090D01*
X96719562Y-77505438D01*
X96703910Y-77488168D01*
X96690026Y-77469448D01*
X96678044Y-77449457D01*
X96668079Y-77428387D01*
X96660227Y-77406443D01*
X96654563Y-77383834D01*
X96651144Y-77360779D01*
X96650000Y-77337500D01*
X96650000Y-76862500D01*
X96651144Y-76839221D01*
X96654563Y-76816166D01*
X96660227Y-76793557D01*
X96668079Y-76771613D01*
X96678044Y-76750543D01*
X96690026Y-76730552D01*
X96703910Y-76711832D01*
X96719562Y-76694562D01*
X96736832Y-76678910D01*
X96755552Y-76665026D01*
X96775543Y-76653044D01*
X96796613Y-76643079D01*
X96818557Y-76635227D01*
X96841166Y-76629563D01*
X96864221Y-76626144D01*
X96887500Y-76625000D01*
X97462500Y-76625000D01*
X97485779Y-76626144D01*
G37*
G36*
X95735779Y-76626144D02*
G01*
X95758834Y-76629563D01*
X95781443Y-76635227D01*
X95803387Y-76643079D01*
X95824457Y-76653044D01*
X95844448Y-76665026D01*
X95863168Y-76678910D01*
X95880438Y-76694562D01*
X95896090Y-76711832D01*
X95909974Y-76730552D01*
X95921956Y-76750543D01*
X95931921Y-76771613D01*
X95939773Y-76793557D01*
X95945437Y-76816166D01*
X95948856Y-76839221D01*
X95950000Y-76862500D01*
X95950000Y-77337500D01*
X95948856Y-77360779D01*
X95945437Y-77383834D01*
X95939773Y-77406443D01*
X95931921Y-77428387D01*
X95921956Y-77449457D01*
X95909974Y-77469448D01*
X95896090Y-77488168D01*
X95880438Y-77505438D01*
X95863168Y-77521090D01*
X95844448Y-77534974D01*
X95824457Y-77546956D01*
X95803387Y-77556921D01*
X95781443Y-77564773D01*
X95758834Y-77570437D01*
X95735779Y-77573856D01*
X95712500Y-77575000D01*
X95137500Y-77575000D01*
X95114221Y-77573856D01*
X95091166Y-77570437D01*
X95068557Y-77564773D01*
X95046613Y-77556921D01*
X95025543Y-77546956D01*
X95005552Y-77534974D01*
X94986832Y-77521090D01*
X94969562Y-77505438D01*
X94953910Y-77488168D01*
X94940026Y-77469448D01*
X94928044Y-77449457D01*
X94918079Y-77428387D01*
X94910227Y-77406443D01*
X94904563Y-77383834D01*
X94901144Y-77360779D01*
X94900000Y-77337500D01*
X94900000Y-76862500D01*
X94901144Y-76839221D01*
X94904563Y-76816166D01*
X94910227Y-76793557D01*
X94918079Y-76771613D01*
X94928044Y-76750543D01*
X94940026Y-76730552D01*
X94953910Y-76711832D01*
X94969562Y-76694562D01*
X94986832Y-76678910D01*
X95005552Y-76665026D01*
X95025543Y-76653044D01*
X95046613Y-76643079D01*
X95068557Y-76635227D01*
X95091166Y-76629563D01*
X95114221Y-76626144D01*
X95137500Y-76625000D01*
X95712500Y-76625000D01*
X95735779Y-76626144D01*
G37*
G36*
X99760779Y-82251144D02*
G01*
X99783834Y-82254563D01*
X99806443Y-82260227D01*
X99828387Y-82268079D01*
X99849457Y-82278044D01*
X99869448Y-82290026D01*
X99888168Y-82303910D01*
X99905438Y-82319562D01*
X99921090Y-82336832D01*
X99934974Y-82355552D01*
X99946956Y-82375543D01*
X99956921Y-82396613D01*
X99964773Y-82418557D01*
X99970437Y-82441166D01*
X99973856Y-82464221D01*
X99975000Y-82487500D01*
X99975000Y-83062500D01*
X99973856Y-83085779D01*
X99970437Y-83108834D01*
X99964773Y-83131443D01*
X99956921Y-83153387D01*
X99946956Y-83174457D01*
X99934974Y-83194448D01*
X99921090Y-83213168D01*
X99905438Y-83230438D01*
X99888168Y-83246090D01*
X99869448Y-83259974D01*
X99849457Y-83271956D01*
X99828387Y-83281921D01*
X99806443Y-83289773D01*
X99783834Y-83295437D01*
X99760779Y-83298856D01*
X99737500Y-83300000D01*
X99262500Y-83300000D01*
X99239221Y-83298856D01*
X99216166Y-83295437D01*
X99193557Y-83289773D01*
X99171613Y-83281921D01*
X99150543Y-83271956D01*
X99130552Y-83259974D01*
X99111832Y-83246090D01*
X99094562Y-83230438D01*
X99078910Y-83213168D01*
X99065026Y-83194448D01*
X99053044Y-83174457D01*
X99043079Y-83153387D01*
X99035227Y-83131443D01*
X99029563Y-83108834D01*
X99026144Y-83085779D01*
X99025000Y-83062500D01*
X99025000Y-82487500D01*
X99026144Y-82464221D01*
X99029563Y-82441166D01*
X99035227Y-82418557D01*
X99043079Y-82396613D01*
X99053044Y-82375543D01*
X99065026Y-82355552D01*
X99078910Y-82336832D01*
X99094562Y-82319562D01*
X99111832Y-82303910D01*
X99130552Y-82290026D01*
X99150543Y-82278044D01*
X99171613Y-82268079D01*
X99193557Y-82260227D01*
X99216166Y-82254563D01*
X99239221Y-82251144D01*
X99262500Y-82250000D01*
X99737500Y-82250000D01*
X99760779Y-82251144D01*
G37*
G36*
X99760779Y-80501144D02*
G01*
X99783834Y-80504563D01*
X99806443Y-80510227D01*
X99828387Y-80518079D01*
X99849457Y-80528044D01*
X99869448Y-80540026D01*
X99888168Y-80553910D01*
X99905438Y-80569562D01*
X99921090Y-80586832D01*
X99934974Y-80605552D01*
X99946956Y-80625543D01*
X99956921Y-80646613D01*
X99964773Y-80668557D01*
X99970437Y-80691166D01*
X99973856Y-80714221D01*
X99975000Y-80737500D01*
X99975000Y-81312500D01*
X99973856Y-81335779D01*
X99970437Y-81358834D01*
X99964773Y-81381443D01*
X99956921Y-81403387D01*
X99946956Y-81424457D01*
X99934974Y-81444448D01*
X99921090Y-81463168D01*
X99905438Y-81480438D01*
X99888168Y-81496090D01*
X99869448Y-81509974D01*
X99849457Y-81521956D01*
X99828387Y-81531921D01*
X99806443Y-81539773D01*
X99783834Y-81545437D01*
X99760779Y-81548856D01*
X99737500Y-81550000D01*
X99262500Y-81550000D01*
X99239221Y-81548856D01*
X99216166Y-81545437D01*
X99193557Y-81539773D01*
X99171613Y-81531921D01*
X99150543Y-81521956D01*
X99130552Y-81509974D01*
X99111832Y-81496090D01*
X99094562Y-81480438D01*
X99078910Y-81463168D01*
X99065026Y-81444448D01*
X99053044Y-81424457D01*
X99043079Y-81403387D01*
X99035227Y-81381443D01*
X99029563Y-81358834D01*
X99026144Y-81335779D01*
X99025000Y-81312500D01*
X99025000Y-80737500D01*
X99026144Y-80714221D01*
X99029563Y-80691166D01*
X99035227Y-80668557D01*
X99043079Y-80646613D01*
X99053044Y-80625543D01*
X99065026Y-80605552D01*
X99078910Y-80586832D01*
X99094562Y-80569562D01*
X99111832Y-80553910D01*
X99130552Y-80540026D01*
X99150543Y-80528044D01*
X99171613Y-80518079D01*
X99193557Y-80510227D01*
X99216166Y-80504563D01*
X99239221Y-80501144D01*
X99262500Y-80500000D01*
X99737500Y-80500000D01*
X99760779Y-80501144D01*
G37*
G36*
X102585779Y-101926144D02*
G01*
X102608834Y-101929563D01*
X102631443Y-101935227D01*
X102653387Y-101943079D01*
X102674457Y-101953044D01*
X102694448Y-101965026D01*
X102713168Y-101978910D01*
X102730438Y-101994562D01*
X102746090Y-102011832D01*
X102759974Y-102030552D01*
X102771956Y-102050543D01*
X102781921Y-102071613D01*
X102789773Y-102093557D01*
X102795437Y-102116166D01*
X102798856Y-102139221D01*
X102800000Y-102162500D01*
X102800000Y-102637500D01*
X102798856Y-102660779D01*
X102795437Y-102683834D01*
X102789773Y-102706443D01*
X102781921Y-102728387D01*
X102771956Y-102749457D01*
X102759974Y-102769448D01*
X102746090Y-102788168D01*
X102730438Y-102805438D01*
X102713168Y-102821090D01*
X102694448Y-102834974D01*
X102674457Y-102846956D01*
X102653387Y-102856921D01*
X102631443Y-102864773D01*
X102608834Y-102870437D01*
X102585779Y-102873856D01*
X102562500Y-102875000D01*
X101987500Y-102875000D01*
X101964221Y-102873856D01*
X101941166Y-102870437D01*
X101918557Y-102864773D01*
X101896613Y-102856921D01*
X101875543Y-102846956D01*
X101855552Y-102834974D01*
X101836832Y-102821090D01*
X101819562Y-102805438D01*
X101803910Y-102788168D01*
X101790026Y-102769448D01*
X101778044Y-102749457D01*
X101768079Y-102728387D01*
X101760227Y-102706443D01*
X101754563Y-102683834D01*
X101751144Y-102660779D01*
X101750000Y-102637500D01*
X101750000Y-102162500D01*
X101751144Y-102139221D01*
X101754563Y-102116166D01*
X101760227Y-102093557D01*
X101768079Y-102071613D01*
X101778044Y-102050543D01*
X101790026Y-102030552D01*
X101803910Y-102011832D01*
X101819562Y-101994562D01*
X101836832Y-101978910D01*
X101855552Y-101965026D01*
X101875543Y-101953044D01*
X101896613Y-101943079D01*
X101918557Y-101935227D01*
X101941166Y-101929563D01*
X101964221Y-101926144D01*
X101987500Y-101925000D01*
X102562500Y-101925000D01*
X102585779Y-101926144D01*
G37*
G36*
X100835779Y-101926144D02*
G01*
X100858834Y-101929563D01*
X100881443Y-101935227D01*
X100903387Y-101943079D01*
X100924457Y-101953044D01*
X100944448Y-101965026D01*
X100963168Y-101978910D01*
X100980438Y-101994562D01*
X100996090Y-102011832D01*
X101009974Y-102030552D01*
X101021956Y-102050543D01*
X101031921Y-102071613D01*
X101039773Y-102093557D01*
X101045437Y-102116166D01*
X101048856Y-102139221D01*
X101050000Y-102162500D01*
X101050000Y-102637500D01*
X101048856Y-102660779D01*
X101045437Y-102683834D01*
X101039773Y-102706443D01*
X101031921Y-102728387D01*
X101021956Y-102749457D01*
X101009974Y-102769448D01*
X100996090Y-102788168D01*
X100980438Y-102805438D01*
X100963168Y-102821090D01*
X100944448Y-102834974D01*
X100924457Y-102846956D01*
X100903387Y-102856921D01*
X100881443Y-102864773D01*
X100858834Y-102870437D01*
X100835779Y-102873856D01*
X100812500Y-102875000D01*
X100237500Y-102875000D01*
X100214221Y-102873856D01*
X100191166Y-102870437D01*
X100168557Y-102864773D01*
X100146613Y-102856921D01*
X100125543Y-102846956D01*
X100105552Y-102834974D01*
X100086832Y-102821090D01*
X100069562Y-102805438D01*
X100053910Y-102788168D01*
X100040026Y-102769448D01*
X100028044Y-102749457D01*
X100018079Y-102728387D01*
X100010227Y-102706443D01*
X100004563Y-102683834D01*
X100001144Y-102660779D01*
X100000000Y-102637500D01*
X100000000Y-102162500D01*
X100001144Y-102139221D01*
X100004563Y-102116166D01*
X100010227Y-102093557D01*
X100018079Y-102071613D01*
X100028044Y-102050543D01*
X100040026Y-102030552D01*
X100053910Y-102011832D01*
X100069562Y-101994562D01*
X100086832Y-101978910D01*
X100105552Y-101965026D01*
X100125543Y-101953044D01*
X100146613Y-101943079D01*
X100168557Y-101935227D01*
X100191166Y-101929563D01*
X100214221Y-101926144D01*
X100237500Y-101925000D01*
X100812500Y-101925000D01*
X100835779Y-101926144D01*
G37*
G36*
X111185779Y-102026144D02*
G01*
X111208834Y-102029563D01*
X111231443Y-102035227D01*
X111253387Y-102043079D01*
X111274457Y-102053044D01*
X111294448Y-102065026D01*
X111313168Y-102078910D01*
X111330438Y-102094562D01*
X111346090Y-102111832D01*
X111359974Y-102130552D01*
X111371956Y-102150543D01*
X111381921Y-102171613D01*
X111389773Y-102193557D01*
X111395437Y-102216166D01*
X111398856Y-102239221D01*
X111400000Y-102262500D01*
X111400000Y-102737500D01*
X111398856Y-102760779D01*
X111395437Y-102783834D01*
X111389773Y-102806443D01*
X111381921Y-102828387D01*
X111371956Y-102849457D01*
X111359974Y-102869448D01*
X111346090Y-102888168D01*
X111330438Y-102905438D01*
X111313168Y-102921090D01*
X111294448Y-102934974D01*
X111274457Y-102946956D01*
X111253387Y-102956921D01*
X111231443Y-102964773D01*
X111208834Y-102970437D01*
X111185779Y-102973856D01*
X111162500Y-102975000D01*
X110587500Y-102975000D01*
X110564221Y-102973856D01*
X110541166Y-102970437D01*
X110518557Y-102964773D01*
X110496613Y-102956921D01*
X110475543Y-102946956D01*
X110455552Y-102934974D01*
X110436832Y-102921090D01*
X110419562Y-102905438D01*
X110403910Y-102888168D01*
X110390026Y-102869448D01*
X110378044Y-102849457D01*
X110368079Y-102828387D01*
X110360227Y-102806443D01*
X110354563Y-102783834D01*
X110351144Y-102760779D01*
X110350000Y-102737500D01*
X110350000Y-102262500D01*
X110351144Y-102239221D01*
X110354563Y-102216166D01*
X110360227Y-102193557D01*
X110368079Y-102171613D01*
X110378044Y-102150543D01*
X110390026Y-102130552D01*
X110403910Y-102111832D01*
X110419562Y-102094562D01*
X110436832Y-102078910D01*
X110455552Y-102065026D01*
X110475543Y-102053044D01*
X110496613Y-102043079D01*
X110518557Y-102035227D01*
X110541166Y-102029563D01*
X110564221Y-102026144D01*
X110587500Y-102025000D01*
X111162500Y-102025000D01*
X111185779Y-102026144D01*
G37*
G36*
X109435779Y-102026144D02*
G01*
X109458834Y-102029563D01*
X109481443Y-102035227D01*
X109503387Y-102043079D01*
X109524457Y-102053044D01*
X109544448Y-102065026D01*
X109563168Y-102078910D01*
X109580438Y-102094562D01*
X109596090Y-102111832D01*
X109609974Y-102130552D01*
X109621956Y-102150543D01*
X109631921Y-102171613D01*
X109639773Y-102193557D01*
X109645437Y-102216166D01*
X109648856Y-102239221D01*
X109650000Y-102262500D01*
X109650000Y-102737500D01*
X109648856Y-102760779D01*
X109645437Y-102783834D01*
X109639773Y-102806443D01*
X109631921Y-102828387D01*
X109621956Y-102849457D01*
X109609974Y-102869448D01*
X109596090Y-102888168D01*
X109580438Y-102905438D01*
X109563168Y-102921090D01*
X109544448Y-102934974D01*
X109524457Y-102946956D01*
X109503387Y-102956921D01*
X109481443Y-102964773D01*
X109458834Y-102970437D01*
X109435779Y-102973856D01*
X109412500Y-102975000D01*
X108837500Y-102975000D01*
X108814221Y-102973856D01*
X108791166Y-102970437D01*
X108768557Y-102964773D01*
X108746613Y-102956921D01*
X108725543Y-102946956D01*
X108705552Y-102934974D01*
X108686832Y-102921090D01*
X108669562Y-102905438D01*
X108653910Y-102888168D01*
X108640026Y-102869448D01*
X108628044Y-102849457D01*
X108618079Y-102828387D01*
X108610227Y-102806443D01*
X108604563Y-102783834D01*
X108601144Y-102760779D01*
X108600000Y-102737500D01*
X108600000Y-102262500D01*
X108601144Y-102239221D01*
X108604563Y-102216166D01*
X108610227Y-102193557D01*
X108618079Y-102171613D01*
X108628044Y-102150543D01*
X108640026Y-102130552D01*
X108653910Y-102111832D01*
X108669562Y-102094562D01*
X108686832Y-102078910D01*
X108705552Y-102065026D01*
X108725543Y-102053044D01*
X108746613Y-102043079D01*
X108768557Y-102035227D01*
X108791166Y-102029563D01*
X108814221Y-102026144D01*
X108837500Y-102025000D01*
X109412500Y-102025000D01*
X109435779Y-102026144D01*
G37*
G36*
X104485779Y-82326144D02*
G01*
X104508834Y-82329563D01*
X104531443Y-82335227D01*
X104553387Y-82343079D01*
X104574457Y-82353044D01*
X104594448Y-82365026D01*
X104613168Y-82378910D01*
X104630438Y-82394562D01*
X104646090Y-82411832D01*
X104659974Y-82430552D01*
X104671956Y-82450543D01*
X104681921Y-82471613D01*
X104689773Y-82493557D01*
X104695437Y-82516166D01*
X104698856Y-82539221D01*
X104700000Y-82562500D01*
X104700000Y-83037500D01*
X104698856Y-83060779D01*
X104695437Y-83083834D01*
X104689773Y-83106443D01*
X104681921Y-83128387D01*
X104671956Y-83149457D01*
X104659974Y-83169448D01*
X104646090Y-83188168D01*
X104630438Y-83205438D01*
X104613168Y-83221090D01*
X104594448Y-83234974D01*
X104574457Y-83246956D01*
X104553387Y-83256921D01*
X104531443Y-83264773D01*
X104508834Y-83270437D01*
X104485779Y-83273856D01*
X104462500Y-83275000D01*
X103887500Y-83275000D01*
X103864221Y-83273856D01*
X103841166Y-83270437D01*
X103818557Y-83264773D01*
X103796613Y-83256921D01*
X103775543Y-83246956D01*
X103755552Y-83234974D01*
X103736832Y-83221090D01*
X103719562Y-83205438D01*
X103703910Y-83188168D01*
X103690026Y-83169448D01*
X103678044Y-83149457D01*
X103668079Y-83128387D01*
X103660227Y-83106443D01*
X103654563Y-83083834D01*
X103651144Y-83060779D01*
X103650000Y-83037500D01*
X103650000Y-82562500D01*
X103651144Y-82539221D01*
X103654563Y-82516166D01*
X103660227Y-82493557D01*
X103668079Y-82471613D01*
X103678044Y-82450543D01*
X103690026Y-82430552D01*
X103703910Y-82411832D01*
X103719562Y-82394562D01*
X103736832Y-82378910D01*
X103755552Y-82365026D01*
X103775543Y-82353044D01*
X103796613Y-82343079D01*
X103818557Y-82335227D01*
X103841166Y-82329563D01*
X103864221Y-82326144D01*
X103887500Y-82325000D01*
X104462500Y-82325000D01*
X104485779Y-82326144D01*
G37*
G36*
X102735779Y-82326144D02*
G01*
X102758834Y-82329563D01*
X102781443Y-82335227D01*
X102803387Y-82343079D01*
X102824457Y-82353044D01*
X102844448Y-82365026D01*
X102863168Y-82378910D01*
X102880438Y-82394562D01*
X102896090Y-82411832D01*
X102909974Y-82430552D01*
X102921956Y-82450543D01*
X102931921Y-82471613D01*
X102939773Y-82493557D01*
X102945437Y-82516166D01*
X102948856Y-82539221D01*
X102950000Y-82562500D01*
X102950000Y-83037500D01*
X102948856Y-83060779D01*
X102945437Y-83083834D01*
X102939773Y-83106443D01*
X102931921Y-83128387D01*
X102921956Y-83149457D01*
X102909974Y-83169448D01*
X102896090Y-83188168D01*
X102880438Y-83205438D01*
X102863168Y-83221090D01*
X102844448Y-83234974D01*
X102824457Y-83246956D01*
X102803387Y-83256921D01*
X102781443Y-83264773D01*
X102758834Y-83270437D01*
X102735779Y-83273856D01*
X102712500Y-83275000D01*
X102137500Y-83275000D01*
X102114221Y-83273856D01*
X102091166Y-83270437D01*
X102068557Y-83264773D01*
X102046613Y-83256921D01*
X102025543Y-83246956D01*
X102005552Y-83234974D01*
X101986832Y-83221090D01*
X101969562Y-83205438D01*
X101953910Y-83188168D01*
X101940026Y-83169448D01*
X101928044Y-83149457D01*
X101918079Y-83128387D01*
X101910227Y-83106443D01*
X101904563Y-83083834D01*
X101901144Y-83060779D01*
X101900000Y-83037500D01*
X101900000Y-82562500D01*
X101901144Y-82539221D01*
X101904563Y-82516166D01*
X101910227Y-82493557D01*
X101918079Y-82471613D01*
X101928044Y-82450543D01*
X101940026Y-82430552D01*
X101953910Y-82411832D01*
X101969562Y-82394562D01*
X101986832Y-82378910D01*
X102005552Y-82365026D01*
X102025543Y-82353044D01*
X102046613Y-82343079D01*
X102068557Y-82335227D01*
X102091166Y-82329563D01*
X102114221Y-82326144D01*
X102137500Y-82325000D01*
X102712500Y-82325000D01*
X102735779Y-82326144D01*
G37*
G36*
X93760779Y-94501144D02*
G01*
X93783834Y-94504563D01*
X93806443Y-94510227D01*
X93828387Y-94518079D01*
X93849457Y-94528044D01*
X93869448Y-94540026D01*
X93888168Y-94553910D01*
X93905438Y-94569562D01*
X93921090Y-94586832D01*
X93934974Y-94605552D01*
X93946956Y-94625543D01*
X93956921Y-94646613D01*
X93964773Y-94668557D01*
X93970437Y-94691166D01*
X93973856Y-94714221D01*
X93975000Y-94737500D01*
X93975000Y-95312500D01*
X93973856Y-95335779D01*
X93970437Y-95358834D01*
X93964773Y-95381443D01*
X93956921Y-95403387D01*
X93946956Y-95424457D01*
X93934974Y-95444448D01*
X93921090Y-95463168D01*
X93905438Y-95480438D01*
X93888168Y-95496090D01*
X93869448Y-95509974D01*
X93849457Y-95521956D01*
X93828387Y-95531921D01*
X93806443Y-95539773D01*
X93783834Y-95545437D01*
X93760779Y-95548856D01*
X93737500Y-95550000D01*
X93262500Y-95550000D01*
X93239221Y-95548856D01*
X93216166Y-95545437D01*
X93193557Y-95539773D01*
X93171613Y-95531921D01*
X93150543Y-95521956D01*
X93130552Y-95509974D01*
X93111832Y-95496090D01*
X93094562Y-95480438D01*
X93078910Y-95463168D01*
X93065026Y-95444448D01*
X93053044Y-95424457D01*
X93043079Y-95403387D01*
X93035227Y-95381443D01*
X93029563Y-95358834D01*
X93026144Y-95335779D01*
X93025000Y-95312500D01*
X93025000Y-94737500D01*
X93026144Y-94714221D01*
X93029563Y-94691166D01*
X93035227Y-94668557D01*
X93043079Y-94646613D01*
X93053044Y-94625543D01*
X93065026Y-94605552D01*
X93078910Y-94586832D01*
X93094562Y-94569562D01*
X93111832Y-94553910D01*
X93130552Y-94540026D01*
X93150543Y-94528044D01*
X93171613Y-94518079D01*
X93193557Y-94510227D01*
X93216166Y-94504563D01*
X93239221Y-94501144D01*
X93262500Y-94500000D01*
X93737500Y-94500000D01*
X93760779Y-94501144D01*
G37*
G36*
X93760779Y-96251144D02*
G01*
X93783834Y-96254563D01*
X93806443Y-96260227D01*
X93828387Y-96268079D01*
X93849457Y-96278044D01*
X93869448Y-96290026D01*
X93888168Y-96303910D01*
X93905438Y-96319562D01*
X93921090Y-96336832D01*
X93934974Y-96355552D01*
X93946956Y-96375543D01*
X93956921Y-96396613D01*
X93964773Y-96418557D01*
X93970437Y-96441166D01*
X93973856Y-96464221D01*
X93975000Y-96487500D01*
X93975000Y-97062500D01*
X93973856Y-97085779D01*
X93970437Y-97108834D01*
X93964773Y-97131443D01*
X93956921Y-97153387D01*
X93946956Y-97174457D01*
X93934974Y-97194448D01*
X93921090Y-97213168D01*
X93905438Y-97230438D01*
X93888168Y-97246090D01*
X93869448Y-97259974D01*
X93849457Y-97271956D01*
X93828387Y-97281921D01*
X93806443Y-97289773D01*
X93783834Y-97295437D01*
X93760779Y-97298856D01*
X93737500Y-97300000D01*
X93262500Y-97300000D01*
X93239221Y-97298856D01*
X93216166Y-97295437D01*
X93193557Y-97289773D01*
X93171613Y-97281921D01*
X93150543Y-97271956D01*
X93130552Y-97259974D01*
X93111832Y-97246090D01*
X93094562Y-97230438D01*
X93078910Y-97213168D01*
X93065026Y-97194448D01*
X93053044Y-97174457D01*
X93043079Y-97153387D01*
X93035227Y-97131443D01*
X93029563Y-97108834D01*
X93026144Y-97085779D01*
X93025000Y-97062500D01*
X93025000Y-96487500D01*
X93026144Y-96464221D01*
X93029563Y-96441166D01*
X93035227Y-96418557D01*
X93043079Y-96396613D01*
X93053044Y-96375543D01*
X93065026Y-96355552D01*
X93078910Y-96336832D01*
X93094562Y-96319562D01*
X93111832Y-96303910D01*
X93130552Y-96290026D01*
X93150543Y-96278044D01*
X93171613Y-96268079D01*
X93193557Y-96260227D01*
X93216166Y-96254563D01*
X93239221Y-96251144D01*
X93262500Y-96250000D01*
X93737500Y-96250000D01*
X93760779Y-96251144D01*
G37*
G36*
X93760779Y-98401144D02*
G01*
X93783834Y-98404563D01*
X93806443Y-98410227D01*
X93828387Y-98418079D01*
X93849457Y-98428044D01*
X93869448Y-98440026D01*
X93888168Y-98453910D01*
X93905438Y-98469562D01*
X93921090Y-98486832D01*
X93934974Y-98505552D01*
X93946956Y-98525543D01*
X93956921Y-98546613D01*
X93964773Y-98568557D01*
X93970437Y-98591166D01*
X93973856Y-98614221D01*
X93975000Y-98637500D01*
X93975000Y-99212500D01*
X93973856Y-99235779D01*
X93970437Y-99258834D01*
X93964773Y-99281443D01*
X93956921Y-99303387D01*
X93946956Y-99324457D01*
X93934974Y-99344448D01*
X93921090Y-99363168D01*
X93905438Y-99380438D01*
X93888168Y-99396090D01*
X93869448Y-99409974D01*
X93849457Y-99421956D01*
X93828387Y-99431921D01*
X93806443Y-99439773D01*
X93783834Y-99445437D01*
X93760779Y-99448856D01*
X93737500Y-99450000D01*
X93262500Y-99450000D01*
X93239221Y-99448856D01*
X93216166Y-99445437D01*
X93193557Y-99439773D01*
X93171613Y-99431921D01*
X93150543Y-99421956D01*
X93130552Y-99409974D01*
X93111832Y-99396090D01*
X93094562Y-99380438D01*
X93078910Y-99363168D01*
X93065026Y-99344448D01*
X93053044Y-99324457D01*
X93043079Y-99303387D01*
X93035227Y-99281443D01*
X93029563Y-99258834D01*
X93026144Y-99235779D01*
X93025000Y-99212500D01*
X93025000Y-98637500D01*
X93026144Y-98614221D01*
X93029563Y-98591166D01*
X93035227Y-98568557D01*
X93043079Y-98546613D01*
X93053044Y-98525543D01*
X93065026Y-98505552D01*
X93078910Y-98486832D01*
X93094562Y-98469562D01*
X93111832Y-98453910D01*
X93130552Y-98440026D01*
X93150543Y-98428044D01*
X93171613Y-98418079D01*
X93193557Y-98410227D01*
X93216166Y-98404563D01*
X93239221Y-98401144D01*
X93262500Y-98400000D01*
X93737500Y-98400000D01*
X93760779Y-98401144D01*
G37*
G36*
X93760779Y-100151144D02*
G01*
X93783834Y-100154563D01*
X93806443Y-100160227D01*
X93828387Y-100168079D01*
X93849457Y-100178044D01*
X93869448Y-100190026D01*
X93888168Y-100203910D01*
X93905438Y-100219562D01*
X93921090Y-100236832D01*
X93934974Y-100255552D01*
X93946956Y-100275543D01*
X93956921Y-100296613D01*
X93964773Y-100318557D01*
X93970437Y-100341166D01*
X93973856Y-100364221D01*
X93975000Y-100387500D01*
X93975000Y-100962500D01*
X93973856Y-100985779D01*
X93970437Y-101008834D01*
X93964773Y-101031443D01*
X93956921Y-101053387D01*
X93946956Y-101074457D01*
X93934974Y-101094448D01*
X93921090Y-101113168D01*
X93905438Y-101130438D01*
X93888168Y-101146090D01*
X93869448Y-101159974D01*
X93849457Y-101171956D01*
X93828387Y-101181921D01*
X93806443Y-101189773D01*
X93783834Y-101195437D01*
X93760779Y-101198856D01*
X93737500Y-101200000D01*
X93262500Y-101200000D01*
X93239221Y-101198856D01*
X93216166Y-101195437D01*
X93193557Y-101189773D01*
X93171613Y-101181921D01*
X93150543Y-101171956D01*
X93130552Y-101159974D01*
X93111832Y-101146090D01*
X93094562Y-101130438D01*
X93078910Y-101113168D01*
X93065026Y-101094448D01*
X93053044Y-101074457D01*
X93043079Y-101053387D01*
X93035227Y-101031443D01*
X93029563Y-101008834D01*
X93026144Y-100985779D01*
X93025000Y-100962500D01*
X93025000Y-100387500D01*
X93026144Y-100364221D01*
X93029563Y-100341166D01*
X93035227Y-100318557D01*
X93043079Y-100296613D01*
X93053044Y-100275543D01*
X93065026Y-100255552D01*
X93078910Y-100236832D01*
X93094562Y-100219562D01*
X93111832Y-100203910D01*
X93130552Y-100190026D01*
X93150543Y-100178044D01*
X93171613Y-100168079D01*
X93193557Y-100160227D01*
X93216166Y-100154563D01*
X93239221Y-100151144D01*
X93262500Y-100150000D01*
X93737500Y-100150000D01*
X93760779Y-100151144D01*
G37*
G36*
X90860779Y-96251144D02*
G01*
X90883834Y-96254563D01*
X90906443Y-96260227D01*
X90928387Y-96268079D01*
X90949457Y-96278044D01*
X90969448Y-96290026D01*
X90988168Y-96303910D01*
X91005438Y-96319562D01*
X91021090Y-96336832D01*
X91034974Y-96355552D01*
X91046956Y-96375543D01*
X91056921Y-96396613D01*
X91064773Y-96418557D01*
X91070437Y-96441166D01*
X91073856Y-96464221D01*
X91075000Y-96487500D01*
X91075000Y-97062500D01*
X91073856Y-97085779D01*
X91070437Y-97108834D01*
X91064773Y-97131443D01*
X91056921Y-97153387D01*
X91046956Y-97174457D01*
X91034974Y-97194448D01*
X91021090Y-97213168D01*
X91005438Y-97230438D01*
X90988168Y-97246090D01*
X90969448Y-97259974D01*
X90949457Y-97271956D01*
X90928387Y-97281921D01*
X90906443Y-97289773D01*
X90883834Y-97295437D01*
X90860779Y-97298856D01*
X90837500Y-97300000D01*
X90362500Y-97300000D01*
X90339221Y-97298856D01*
X90316166Y-97295437D01*
X90293557Y-97289773D01*
X90271613Y-97281921D01*
X90250543Y-97271956D01*
X90230552Y-97259974D01*
X90211832Y-97246090D01*
X90194562Y-97230438D01*
X90178910Y-97213168D01*
X90165026Y-97194448D01*
X90153044Y-97174457D01*
X90143079Y-97153387D01*
X90135227Y-97131443D01*
X90129563Y-97108834D01*
X90126144Y-97085779D01*
X90125000Y-97062500D01*
X90125000Y-96487500D01*
X90126144Y-96464221D01*
X90129563Y-96441166D01*
X90135227Y-96418557D01*
X90143079Y-96396613D01*
X90153044Y-96375543D01*
X90165026Y-96355552D01*
X90178910Y-96336832D01*
X90194562Y-96319562D01*
X90211832Y-96303910D01*
X90230552Y-96290026D01*
X90250543Y-96278044D01*
X90271613Y-96268079D01*
X90293557Y-96260227D01*
X90316166Y-96254563D01*
X90339221Y-96251144D01*
X90362500Y-96250000D01*
X90837500Y-96250000D01*
X90860779Y-96251144D01*
G37*
G36*
X90860779Y-94501144D02*
G01*
X90883834Y-94504563D01*
X90906443Y-94510227D01*
X90928387Y-94518079D01*
X90949457Y-94528044D01*
X90969448Y-94540026D01*
X90988168Y-94553910D01*
X91005438Y-94569562D01*
X91021090Y-94586832D01*
X91034974Y-94605552D01*
X91046956Y-94625543D01*
X91056921Y-94646613D01*
X91064773Y-94668557D01*
X91070437Y-94691166D01*
X91073856Y-94714221D01*
X91075000Y-94737500D01*
X91075000Y-95312500D01*
X91073856Y-95335779D01*
X91070437Y-95358834D01*
X91064773Y-95381443D01*
X91056921Y-95403387D01*
X91046956Y-95424457D01*
X91034974Y-95444448D01*
X91021090Y-95463168D01*
X91005438Y-95480438D01*
X90988168Y-95496090D01*
X90969448Y-95509974D01*
X90949457Y-95521956D01*
X90928387Y-95531921D01*
X90906443Y-95539773D01*
X90883834Y-95545437D01*
X90860779Y-95548856D01*
X90837500Y-95550000D01*
X90362500Y-95550000D01*
X90339221Y-95548856D01*
X90316166Y-95545437D01*
X90293557Y-95539773D01*
X90271613Y-95531921D01*
X90250543Y-95521956D01*
X90230552Y-95509974D01*
X90211832Y-95496090D01*
X90194562Y-95480438D01*
X90178910Y-95463168D01*
X90165026Y-95444448D01*
X90153044Y-95424457D01*
X90143079Y-95403387D01*
X90135227Y-95381443D01*
X90129563Y-95358834D01*
X90126144Y-95335779D01*
X90125000Y-95312500D01*
X90125000Y-94737500D01*
X90126144Y-94714221D01*
X90129563Y-94691166D01*
X90135227Y-94668557D01*
X90143079Y-94646613D01*
X90153044Y-94625543D01*
X90165026Y-94605552D01*
X90178910Y-94586832D01*
X90194562Y-94569562D01*
X90211832Y-94553910D01*
X90230552Y-94540026D01*
X90250543Y-94528044D01*
X90271613Y-94518079D01*
X90293557Y-94510227D01*
X90316166Y-94504563D01*
X90339221Y-94501144D01*
X90362500Y-94500000D01*
X90837500Y-94500000D01*
X90860779Y-94501144D01*
G37*
G36*
X97760779Y-94901144D02*
G01*
X97783834Y-94904563D01*
X97806443Y-94910227D01*
X97828387Y-94918079D01*
X97849457Y-94928044D01*
X97869448Y-94940026D01*
X97888168Y-94953910D01*
X97905438Y-94969562D01*
X97921090Y-94986832D01*
X97934974Y-95005552D01*
X97946956Y-95025543D01*
X97956921Y-95046613D01*
X97964773Y-95068557D01*
X97970437Y-95091166D01*
X97973856Y-95114221D01*
X97975000Y-95137500D01*
X97975000Y-95712500D01*
X97973856Y-95735779D01*
X97970437Y-95758834D01*
X97964773Y-95781443D01*
X97956921Y-95803387D01*
X97946956Y-95824457D01*
X97934974Y-95844448D01*
X97921090Y-95863168D01*
X97905438Y-95880438D01*
X97888168Y-95896090D01*
X97869448Y-95909974D01*
X97849457Y-95921956D01*
X97828387Y-95931921D01*
X97806443Y-95939773D01*
X97783834Y-95945437D01*
X97760779Y-95948856D01*
X97737500Y-95950000D01*
X97262500Y-95950000D01*
X97239221Y-95948856D01*
X97216166Y-95945437D01*
X97193557Y-95939773D01*
X97171613Y-95931921D01*
X97150543Y-95921956D01*
X97130552Y-95909974D01*
X97111832Y-95896090D01*
X97094562Y-95880438D01*
X97078910Y-95863168D01*
X97065026Y-95844448D01*
X97053044Y-95824457D01*
X97043079Y-95803387D01*
X97035227Y-95781443D01*
X97029563Y-95758834D01*
X97026144Y-95735779D01*
X97025000Y-95712500D01*
X97025000Y-95137500D01*
X97026144Y-95114221D01*
X97029563Y-95091166D01*
X97035227Y-95068557D01*
X97043079Y-95046613D01*
X97053044Y-95025543D01*
X97065026Y-95005552D01*
X97078910Y-94986832D01*
X97094562Y-94969562D01*
X97111832Y-94953910D01*
X97130552Y-94940026D01*
X97150543Y-94928044D01*
X97171613Y-94918079D01*
X97193557Y-94910227D01*
X97216166Y-94904563D01*
X97239221Y-94901144D01*
X97262500Y-94900000D01*
X97737500Y-94900000D01*
X97760779Y-94901144D01*
G37*
G36*
X97760779Y-96651144D02*
G01*
X97783834Y-96654563D01*
X97806443Y-96660227D01*
X97828387Y-96668079D01*
X97849457Y-96678044D01*
X97869448Y-96690026D01*
X97888168Y-96703910D01*
X97905438Y-96719562D01*
X97921090Y-96736832D01*
X97934974Y-96755552D01*
X97946956Y-96775543D01*
X97956921Y-96796613D01*
X97964773Y-96818557D01*
X97970437Y-96841166D01*
X97973856Y-96864221D01*
X97975000Y-96887500D01*
X97975000Y-97462500D01*
X97973856Y-97485779D01*
X97970437Y-97508834D01*
X97964773Y-97531443D01*
X97956921Y-97553387D01*
X97946956Y-97574457D01*
X97934974Y-97594448D01*
X97921090Y-97613168D01*
X97905438Y-97630438D01*
X97888168Y-97646090D01*
X97869448Y-97659974D01*
X97849457Y-97671956D01*
X97828387Y-97681921D01*
X97806443Y-97689773D01*
X97783834Y-97695437D01*
X97760779Y-97698856D01*
X97737500Y-97700000D01*
X97262500Y-97700000D01*
X97239221Y-97698856D01*
X97216166Y-97695437D01*
X97193557Y-97689773D01*
X97171613Y-97681921D01*
X97150543Y-97671956D01*
X97130552Y-97659974D01*
X97111832Y-97646090D01*
X97094562Y-97630438D01*
X97078910Y-97613168D01*
X97065026Y-97594448D01*
X97053044Y-97574457D01*
X97043079Y-97553387D01*
X97035227Y-97531443D01*
X97029563Y-97508834D01*
X97026144Y-97485779D01*
X97025000Y-97462500D01*
X97025000Y-96887500D01*
X97026144Y-96864221D01*
X97029563Y-96841166D01*
X97035227Y-96818557D01*
X97043079Y-96796613D01*
X97053044Y-96775543D01*
X97065026Y-96755552D01*
X97078910Y-96736832D01*
X97094562Y-96719562D01*
X97111832Y-96703910D01*
X97130552Y-96690026D01*
X97150543Y-96678044D01*
X97171613Y-96668079D01*
X97193557Y-96660227D01*
X97216166Y-96654563D01*
X97239221Y-96651144D01*
X97262500Y-96650000D01*
X97737500Y-96650000D01*
X97760779Y-96651144D01*
G37*
G36*
X90860779Y-100151144D02*
G01*
X90883834Y-100154563D01*
X90906443Y-100160227D01*
X90928387Y-100168079D01*
X90949457Y-100178044D01*
X90969448Y-100190026D01*
X90988168Y-100203910D01*
X91005438Y-100219562D01*
X91021090Y-100236832D01*
X91034974Y-100255552D01*
X91046956Y-100275543D01*
X91056921Y-100296613D01*
X91064773Y-100318557D01*
X91070437Y-100341166D01*
X91073856Y-100364221D01*
X91075000Y-100387500D01*
X91075000Y-100962500D01*
X91073856Y-100985779D01*
X91070437Y-101008834D01*
X91064773Y-101031443D01*
X91056921Y-101053387D01*
X91046956Y-101074457D01*
X91034974Y-101094448D01*
X91021090Y-101113168D01*
X91005438Y-101130438D01*
X90988168Y-101146090D01*
X90969448Y-101159974D01*
X90949457Y-101171956D01*
X90928387Y-101181921D01*
X90906443Y-101189773D01*
X90883834Y-101195437D01*
X90860779Y-101198856D01*
X90837500Y-101200000D01*
X90362500Y-101200000D01*
X90339221Y-101198856D01*
X90316166Y-101195437D01*
X90293557Y-101189773D01*
X90271613Y-101181921D01*
X90250543Y-101171956D01*
X90230552Y-101159974D01*
X90211832Y-101146090D01*
X90194562Y-101130438D01*
X90178910Y-101113168D01*
X90165026Y-101094448D01*
X90153044Y-101074457D01*
X90143079Y-101053387D01*
X90135227Y-101031443D01*
X90129563Y-101008834D01*
X90126144Y-100985779D01*
X90125000Y-100962500D01*
X90125000Y-100387500D01*
X90126144Y-100364221D01*
X90129563Y-100341166D01*
X90135227Y-100318557D01*
X90143079Y-100296613D01*
X90153044Y-100275543D01*
X90165026Y-100255552D01*
X90178910Y-100236832D01*
X90194562Y-100219562D01*
X90211832Y-100203910D01*
X90230552Y-100190026D01*
X90250543Y-100178044D01*
X90271613Y-100168079D01*
X90293557Y-100160227D01*
X90316166Y-100154563D01*
X90339221Y-100151144D01*
X90362500Y-100150000D01*
X90837500Y-100150000D01*
X90860779Y-100151144D01*
G37*
G36*
X90860779Y-98401144D02*
G01*
X90883834Y-98404563D01*
X90906443Y-98410227D01*
X90928387Y-98418079D01*
X90949457Y-98428044D01*
X90969448Y-98440026D01*
X90988168Y-98453910D01*
X91005438Y-98469562D01*
X91021090Y-98486832D01*
X91034974Y-98505552D01*
X91046956Y-98525543D01*
X91056921Y-98546613D01*
X91064773Y-98568557D01*
X91070437Y-98591166D01*
X91073856Y-98614221D01*
X91075000Y-98637500D01*
X91075000Y-99212500D01*
X91073856Y-99235779D01*
X91070437Y-99258834D01*
X91064773Y-99281443D01*
X91056921Y-99303387D01*
X91046956Y-99324457D01*
X91034974Y-99344448D01*
X91021090Y-99363168D01*
X91005438Y-99380438D01*
X90988168Y-99396090D01*
X90969448Y-99409974D01*
X90949457Y-99421956D01*
X90928387Y-99431921D01*
X90906443Y-99439773D01*
X90883834Y-99445437D01*
X90860779Y-99448856D01*
X90837500Y-99450000D01*
X90362500Y-99450000D01*
X90339221Y-99448856D01*
X90316166Y-99445437D01*
X90293557Y-99439773D01*
X90271613Y-99431921D01*
X90250543Y-99421956D01*
X90230552Y-99409974D01*
X90211832Y-99396090D01*
X90194562Y-99380438D01*
X90178910Y-99363168D01*
X90165026Y-99344448D01*
X90153044Y-99324457D01*
X90143079Y-99303387D01*
X90135227Y-99281443D01*
X90129563Y-99258834D01*
X90126144Y-99235779D01*
X90125000Y-99212500D01*
X90125000Y-98637500D01*
X90126144Y-98614221D01*
X90129563Y-98591166D01*
X90135227Y-98568557D01*
X90143079Y-98546613D01*
X90153044Y-98525543D01*
X90165026Y-98505552D01*
X90178910Y-98486832D01*
X90194562Y-98469562D01*
X90211832Y-98453910D01*
X90230552Y-98440026D01*
X90250543Y-98428044D01*
X90271613Y-98418079D01*
X90293557Y-98410227D01*
X90316166Y-98404563D01*
X90339221Y-98401144D01*
X90362500Y-98400000D01*
X90837500Y-98400000D01*
X90860779Y-98401144D01*
G37*
G36*
X91074504Y-75551204D02*
G01*
X91098773Y-75554804D01*
X91122571Y-75560765D01*
X91145671Y-75569030D01*
X91167849Y-75579520D01*
X91188893Y-75592133D01*
X91208598Y-75606747D01*
X91226777Y-75623223D01*
X91243253Y-75641402D01*
X91257867Y-75661107D01*
X91270480Y-75682151D01*
X91280970Y-75704329D01*
X91289235Y-75727429D01*
X91295196Y-75751227D01*
X91298796Y-75775496D01*
X91300000Y-75800000D01*
X91300000Y-78800000D01*
X91298796Y-78824504D01*
X91295196Y-78848773D01*
X91289235Y-78872571D01*
X91280970Y-78895671D01*
X91270480Y-78917849D01*
X91257867Y-78938893D01*
X91243253Y-78958598D01*
X91226777Y-78976777D01*
X91208598Y-78993253D01*
X91188893Y-79007867D01*
X91167849Y-79020480D01*
X91145671Y-79030970D01*
X91122571Y-79039235D01*
X91098773Y-79045196D01*
X91074504Y-79048796D01*
X91050000Y-79050000D01*
X89950000Y-79050000D01*
X89925496Y-79048796D01*
X89901227Y-79045196D01*
X89877429Y-79039235D01*
X89854329Y-79030970D01*
X89832151Y-79020480D01*
X89811107Y-79007867D01*
X89791402Y-78993253D01*
X89773223Y-78976777D01*
X89756747Y-78958598D01*
X89742133Y-78938893D01*
X89729520Y-78917849D01*
X89719030Y-78895671D01*
X89710765Y-78872571D01*
X89704804Y-78848773D01*
X89701204Y-78824504D01*
X89700000Y-78800000D01*
X89700000Y-75800000D01*
X89701204Y-75775496D01*
X89704804Y-75751227D01*
X89710765Y-75727429D01*
X89719030Y-75704329D01*
X89729520Y-75682151D01*
X89742133Y-75661107D01*
X89756747Y-75641402D01*
X89773223Y-75623223D01*
X89791402Y-75606747D01*
X89811107Y-75592133D01*
X89832151Y-75579520D01*
X89854329Y-75569030D01*
X89877429Y-75560765D01*
X89901227Y-75554804D01*
X89925496Y-75551204D01*
X89950000Y-75550000D01*
X91050000Y-75550000D01*
X91074504Y-75551204D01*
G37*
G36*
X91074504Y-80951204D02*
G01*
X91098773Y-80954804D01*
X91122571Y-80960765D01*
X91145671Y-80969030D01*
X91167849Y-80979520D01*
X91188893Y-80992133D01*
X91208598Y-81006747D01*
X91226777Y-81023223D01*
X91243253Y-81041402D01*
X91257867Y-81061107D01*
X91270480Y-81082151D01*
X91280970Y-81104329D01*
X91289235Y-81127429D01*
X91295196Y-81151227D01*
X91298796Y-81175496D01*
X91300000Y-81200000D01*
X91300000Y-84200000D01*
X91298796Y-84224504D01*
X91295196Y-84248773D01*
X91289235Y-84272571D01*
X91280970Y-84295671D01*
X91270480Y-84317849D01*
X91257867Y-84338893D01*
X91243253Y-84358598D01*
X91226777Y-84376777D01*
X91208598Y-84393253D01*
X91188893Y-84407867D01*
X91167849Y-84420480D01*
X91145671Y-84430970D01*
X91122571Y-84439235D01*
X91098773Y-84445196D01*
X91074504Y-84448796D01*
X91050000Y-84450000D01*
X89950000Y-84450000D01*
X89925496Y-84448796D01*
X89901227Y-84445196D01*
X89877429Y-84439235D01*
X89854329Y-84430970D01*
X89832151Y-84420480D01*
X89811107Y-84407867D01*
X89791402Y-84393253D01*
X89773223Y-84376777D01*
X89756747Y-84358598D01*
X89742133Y-84338893D01*
X89729520Y-84317849D01*
X89719030Y-84295671D01*
X89710765Y-84272571D01*
X89704804Y-84248773D01*
X89701204Y-84224504D01*
X89700000Y-84200000D01*
X89700000Y-81200000D01*
X89701204Y-81175496D01*
X89704804Y-81151227D01*
X89710765Y-81127429D01*
X89719030Y-81104329D01*
X89729520Y-81082151D01*
X89742133Y-81061107D01*
X89756747Y-81041402D01*
X89773223Y-81023223D01*
X89791402Y-81006747D01*
X89811107Y-80992133D01*
X89832151Y-80979520D01*
X89854329Y-80969030D01*
X89877429Y-80960765D01*
X89901227Y-80954804D01*
X89925496Y-80951204D01*
X89950000Y-80950000D01*
X91050000Y-80950000D01*
X91074504Y-80951204D01*
G37*
G36*
X91074504Y-90201204D02*
G01*
X91098773Y-90204804D01*
X91122571Y-90210765D01*
X91145671Y-90219030D01*
X91167849Y-90229520D01*
X91188893Y-90242133D01*
X91208598Y-90256747D01*
X91226777Y-90273223D01*
X91243253Y-90291402D01*
X91257867Y-90311107D01*
X91270480Y-90332151D01*
X91280970Y-90354329D01*
X91289235Y-90377429D01*
X91295196Y-90401227D01*
X91298796Y-90425496D01*
X91300000Y-90450000D01*
X91300000Y-92950000D01*
X91298796Y-92974504D01*
X91295196Y-92998773D01*
X91289235Y-93022571D01*
X91280970Y-93045671D01*
X91270480Y-93067849D01*
X91257867Y-93088893D01*
X91243253Y-93108598D01*
X91226777Y-93126777D01*
X91208598Y-93143253D01*
X91188893Y-93157867D01*
X91167849Y-93170480D01*
X91145671Y-93180970D01*
X91122571Y-93189235D01*
X91098773Y-93195196D01*
X91074504Y-93198796D01*
X91050000Y-93200000D01*
X89950000Y-93200000D01*
X89925496Y-93198796D01*
X89901227Y-93195196D01*
X89877429Y-93189235D01*
X89854329Y-93180970D01*
X89832151Y-93170480D01*
X89811107Y-93157867D01*
X89791402Y-93143253D01*
X89773223Y-93126777D01*
X89756747Y-93108598D01*
X89742133Y-93088893D01*
X89729520Y-93067849D01*
X89719030Y-93045671D01*
X89710765Y-93022571D01*
X89704804Y-92998773D01*
X89701204Y-92974504D01*
X89700000Y-92950000D01*
X89700000Y-90450000D01*
X89701204Y-90425496D01*
X89704804Y-90401227D01*
X89710765Y-90377429D01*
X89719030Y-90354329D01*
X89729520Y-90332151D01*
X89742133Y-90311107D01*
X89756747Y-90291402D01*
X89773223Y-90273223D01*
X89791402Y-90256747D01*
X89811107Y-90242133D01*
X89832151Y-90229520D01*
X89854329Y-90219030D01*
X89877429Y-90210765D01*
X89901227Y-90204804D01*
X89925496Y-90201204D01*
X89950000Y-90200000D01*
X91050000Y-90200000D01*
X91074504Y-90201204D01*
G37*
G36*
X91074504Y-85801204D02*
G01*
X91098773Y-85804804D01*
X91122571Y-85810765D01*
X91145671Y-85819030D01*
X91167849Y-85829520D01*
X91188893Y-85842133D01*
X91208598Y-85856747D01*
X91226777Y-85873223D01*
X91243253Y-85891402D01*
X91257867Y-85911107D01*
X91270480Y-85932151D01*
X91280970Y-85954329D01*
X91289235Y-85977429D01*
X91295196Y-86001227D01*
X91298796Y-86025496D01*
X91300000Y-86050000D01*
X91300000Y-88550000D01*
X91298796Y-88574504D01*
X91295196Y-88598773D01*
X91289235Y-88622571D01*
X91280970Y-88645671D01*
X91270480Y-88667849D01*
X91257867Y-88688893D01*
X91243253Y-88708598D01*
X91226777Y-88726777D01*
X91208598Y-88743253D01*
X91188893Y-88757867D01*
X91167849Y-88770480D01*
X91145671Y-88780970D01*
X91122571Y-88789235D01*
X91098773Y-88795196D01*
X91074504Y-88798796D01*
X91050000Y-88800000D01*
X89950000Y-88800000D01*
X89925496Y-88798796D01*
X89901227Y-88795196D01*
X89877429Y-88789235D01*
X89854329Y-88780970D01*
X89832151Y-88770480D01*
X89811107Y-88757867D01*
X89791402Y-88743253D01*
X89773223Y-88726777D01*
X89756747Y-88708598D01*
X89742133Y-88688893D01*
X89729520Y-88667849D01*
X89719030Y-88645671D01*
X89710765Y-88622571D01*
X89704804Y-88598773D01*
X89701204Y-88574504D01*
X89700000Y-88550000D01*
X89700000Y-86050000D01*
X89701204Y-86025496D01*
X89704804Y-86001227D01*
X89710765Y-85977429D01*
X89719030Y-85954329D01*
X89729520Y-85932151D01*
X89742133Y-85911107D01*
X89756747Y-85891402D01*
X89773223Y-85873223D01*
X89791402Y-85856747D01*
X89811107Y-85842133D01*
X89832151Y-85829520D01*
X89854329Y-85819030D01*
X89877429Y-85810765D01*
X89901227Y-85804804D01*
X89925496Y-85801204D01*
X89950000Y-85800000D01*
X91050000Y-85800000D01*
X91074504Y-85801204D01*
G37*
G36*
X98324505Y-91801204D02*
G01*
X98348773Y-91804804D01*
X98372572Y-91810765D01*
X98395671Y-91819030D01*
X98417850Y-91829520D01*
X98438893Y-91842132D01*
X98458599Y-91856747D01*
X98476777Y-91873223D01*
X98493253Y-91891401D01*
X98507868Y-91911107D01*
X98520480Y-91932150D01*
X98530970Y-91954329D01*
X98539235Y-91977428D01*
X98545196Y-92001227D01*
X98548796Y-92025495D01*
X98550000Y-92049999D01*
X98550000Y-92950001D01*
X98548796Y-92974505D01*
X98545196Y-92998773D01*
X98539235Y-93022572D01*
X98530970Y-93045671D01*
X98520480Y-93067850D01*
X98507868Y-93088893D01*
X98493253Y-93108599D01*
X98476777Y-93126777D01*
X98458599Y-93143253D01*
X98438893Y-93157868D01*
X98417850Y-93170480D01*
X98395671Y-93180970D01*
X98372572Y-93189235D01*
X98348773Y-93195196D01*
X98324505Y-93198796D01*
X98300001Y-93200000D01*
X97649999Y-93200000D01*
X97625495Y-93198796D01*
X97601227Y-93195196D01*
X97577428Y-93189235D01*
X97554329Y-93180970D01*
X97532150Y-93170480D01*
X97511107Y-93157868D01*
X97491401Y-93143253D01*
X97473223Y-93126777D01*
X97456747Y-93108599D01*
X97442132Y-93088893D01*
X97429520Y-93067850D01*
X97419030Y-93045671D01*
X97410765Y-93022572D01*
X97404804Y-92998773D01*
X97401204Y-92974505D01*
X97400000Y-92950001D01*
X97400000Y-92049999D01*
X97401204Y-92025495D01*
X97404804Y-92001227D01*
X97410765Y-91977428D01*
X97419030Y-91954329D01*
X97429520Y-91932150D01*
X97442132Y-91911107D01*
X97456747Y-91891401D01*
X97473223Y-91873223D01*
X97491401Y-91856747D01*
X97511107Y-91842132D01*
X97532150Y-91829520D01*
X97554329Y-91819030D01*
X97577428Y-91810765D01*
X97601227Y-91804804D01*
X97625495Y-91801204D01*
X97649999Y-91800000D01*
X98300001Y-91800000D01*
X98324505Y-91801204D01*
G37*
G36*
X100374505Y-91801204D02*
G01*
X100398773Y-91804804D01*
X100422572Y-91810765D01*
X100445671Y-91819030D01*
X100467850Y-91829520D01*
X100488893Y-91842132D01*
X100508599Y-91856747D01*
X100526777Y-91873223D01*
X100543253Y-91891401D01*
X100557868Y-91911107D01*
X100570480Y-91932150D01*
X100580970Y-91954329D01*
X100589235Y-91977428D01*
X100595196Y-92001227D01*
X100598796Y-92025495D01*
X100600000Y-92049999D01*
X100600000Y-92950001D01*
X100598796Y-92974505D01*
X100595196Y-92998773D01*
X100589235Y-93022572D01*
X100580970Y-93045671D01*
X100570480Y-93067850D01*
X100557868Y-93088893D01*
X100543253Y-93108599D01*
X100526777Y-93126777D01*
X100508599Y-93143253D01*
X100488893Y-93157868D01*
X100467850Y-93170480D01*
X100445671Y-93180970D01*
X100422572Y-93189235D01*
X100398773Y-93195196D01*
X100374505Y-93198796D01*
X100350001Y-93200000D01*
X99699999Y-93200000D01*
X99675495Y-93198796D01*
X99651227Y-93195196D01*
X99627428Y-93189235D01*
X99604329Y-93180970D01*
X99582150Y-93170480D01*
X99561107Y-93157868D01*
X99541401Y-93143253D01*
X99523223Y-93126777D01*
X99506747Y-93108599D01*
X99492132Y-93088893D01*
X99479520Y-93067850D01*
X99469030Y-93045671D01*
X99460765Y-93022572D01*
X99454804Y-92998773D01*
X99451204Y-92974505D01*
X99450000Y-92950001D01*
X99450000Y-92049999D01*
X99451204Y-92025495D01*
X99454804Y-92001227D01*
X99460765Y-91977428D01*
X99469030Y-91954329D01*
X99479520Y-91932150D01*
X99492132Y-91911107D01*
X99506747Y-91891401D01*
X99523223Y-91873223D01*
X99541401Y-91856747D01*
X99561107Y-91842132D01*
X99582150Y-91829520D01*
X99604329Y-91819030D01*
X99627428Y-91810765D01*
X99651227Y-91804804D01*
X99675495Y-91801204D01*
X99699999Y-91800000D01*
X100350001Y-91800000D01*
X100374505Y-91801204D01*
G37*
G36*
X110574505Y-86901204D02*
G01*
X110598773Y-86904804D01*
X110622572Y-86910765D01*
X110645671Y-86919030D01*
X110667850Y-86929520D01*
X110688893Y-86942132D01*
X110708599Y-86956747D01*
X110726777Y-86973223D01*
X110743253Y-86991401D01*
X110757868Y-87011107D01*
X110770480Y-87032150D01*
X110780970Y-87054329D01*
X110789235Y-87077428D01*
X110795196Y-87101227D01*
X110798796Y-87125495D01*
X110800000Y-87149999D01*
X110800000Y-87800001D01*
X110798796Y-87824505D01*
X110795196Y-87848773D01*
X110789235Y-87872572D01*
X110780970Y-87895671D01*
X110770480Y-87917850D01*
X110757868Y-87938893D01*
X110743253Y-87958599D01*
X110726777Y-87976777D01*
X110708599Y-87993253D01*
X110688893Y-88007868D01*
X110667850Y-88020480D01*
X110645671Y-88030970D01*
X110622572Y-88039235D01*
X110598773Y-88045196D01*
X110574505Y-88048796D01*
X110550001Y-88050000D01*
X109649999Y-88050000D01*
X109625495Y-88048796D01*
X109601227Y-88045196D01*
X109577428Y-88039235D01*
X109554329Y-88030970D01*
X109532150Y-88020480D01*
X109511107Y-88007868D01*
X109491401Y-87993253D01*
X109473223Y-87976777D01*
X109456747Y-87958599D01*
X109442132Y-87938893D01*
X109429520Y-87917850D01*
X109419030Y-87895671D01*
X109410765Y-87872572D01*
X109404804Y-87848773D01*
X109401204Y-87824505D01*
X109400000Y-87800001D01*
X109400000Y-87149999D01*
X109401204Y-87125495D01*
X109404804Y-87101227D01*
X109410765Y-87077428D01*
X109419030Y-87054329D01*
X109429520Y-87032150D01*
X109442132Y-87011107D01*
X109456747Y-86991401D01*
X109473223Y-86973223D01*
X109491401Y-86956747D01*
X109511107Y-86942132D01*
X109532150Y-86929520D01*
X109554329Y-86919030D01*
X109577428Y-86910765D01*
X109601227Y-86904804D01*
X109625495Y-86901204D01*
X109649999Y-86900000D01*
X110550001Y-86900000D01*
X110574505Y-86901204D01*
G37*
G36*
X110574505Y-88951204D02*
G01*
X110598773Y-88954804D01*
X110622572Y-88960765D01*
X110645671Y-88969030D01*
X110667850Y-88979520D01*
X110688893Y-88992132D01*
X110708599Y-89006747D01*
X110726777Y-89023223D01*
X110743253Y-89041401D01*
X110757868Y-89061107D01*
X110770480Y-89082150D01*
X110780970Y-89104329D01*
X110789235Y-89127428D01*
X110795196Y-89151227D01*
X110798796Y-89175495D01*
X110800000Y-89199999D01*
X110800000Y-89850001D01*
X110798796Y-89874505D01*
X110795196Y-89898773D01*
X110789235Y-89922572D01*
X110780970Y-89945671D01*
X110770480Y-89967850D01*
X110757868Y-89988893D01*
X110743253Y-90008599D01*
X110726777Y-90026777D01*
X110708599Y-90043253D01*
X110688893Y-90057868D01*
X110667850Y-90070480D01*
X110645671Y-90080970D01*
X110622572Y-90089235D01*
X110598773Y-90095196D01*
X110574505Y-90098796D01*
X110550001Y-90100000D01*
X109649999Y-90100000D01*
X109625495Y-90098796D01*
X109601227Y-90095196D01*
X109577428Y-90089235D01*
X109554329Y-90080970D01*
X109532150Y-90070480D01*
X109511107Y-90057868D01*
X109491401Y-90043253D01*
X109473223Y-90026777D01*
X109456747Y-90008599D01*
X109442132Y-89988893D01*
X109429520Y-89967850D01*
X109419030Y-89945671D01*
X109410765Y-89922572D01*
X109404804Y-89898773D01*
X109401204Y-89874505D01*
X109400000Y-89850001D01*
X109400000Y-89199999D01*
X109401204Y-89175495D01*
X109404804Y-89151227D01*
X109410765Y-89127428D01*
X109419030Y-89104329D01*
X109429520Y-89082150D01*
X109442132Y-89061107D01*
X109456747Y-89041401D01*
X109473223Y-89023223D01*
X109491401Y-89006747D01*
X109511107Y-88992132D01*
X109532150Y-88979520D01*
X109554329Y-88969030D01*
X109577428Y-88960765D01*
X109601227Y-88954804D01*
X109625495Y-88951204D01*
X109649999Y-88950000D01*
X110550001Y-88950000D01*
X110574505Y-88951204D01*
G37*
G36*
X97585779Y-79526144D02*
G01*
X97608834Y-79529563D01*
X97631443Y-79535227D01*
X97653387Y-79543079D01*
X97674457Y-79553044D01*
X97694448Y-79565026D01*
X97713168Y-79578910D01*
X97730438Y-79594562D01*
X97746090Y-79611832D01*
X97759974Y-79630552D01*
X97771956Y-79650543D01*
X97781921Y-79671613D01*
X97789773Y-79693557D01*
X97795437Y-79716166D01*
X97798856Y-79739221D01*
X97800000Y-79762500D01*
X97800000Y-80237500D01*
X97798856Y-80260779D01*
X97795437Y-80283834D01*
X97789773Y-80306443D01*
X97781921Y-80328387D01*
X97771956Y-80349457D01*
X97759974Y-80369448D01*
X97746090Y-80388168D01*
X97730438Y-80405438D01*
X97713168Y-80421090D01*
X97694448Y-80434974D01*
X97674457Y-80446956D01*
X97653387Y-80456921D01*
X97631443Y-80464773D01*
X97608834Y-80470437D01*
X97585779Y-80473856D01*
X97562500Y-80475000D01*
X96987500Y-80475000D01*
X96964221Y-80473856D01*
X96941166Y-80470437D01*
X96918557Y-80464773D01*
X96896613Y-80456921D01*
X96875543Y-80446956D01*
X96855552Y-80434974D01*
X96836832Y-80421090D01*
X96819562Y-80405438D01*
X96803910Y-80388168D01*
X96790026Y-80369448D01*
X96778044Y-80349457D01*
X96768079Y-80328387D01*
X96760227Y-80306443D01*
X96754563Y-80283834D01*
X96751144Y-80260779D01*
X96750000Y-80237500D01*
X96750000Y-79762500D01*
X96751144Y-79739221D01*
X96754563Y-79716166D01*
X96760227Y-79693557D01*
X96768079Y-79671613D01*
X96778044Y-79650543D01*
X96790026Y-79630552D01*
X96803910Y-79611832D01*
X96819562Y-79594562D01*
X96836832Y-79578910D01*
X96855552Y-79565026D01*
X96875543Y-79553044D01*
X96896613Y-79543079D01*
X96918557Y-79535227D01*
X96941166Y-79529563D01*
X96964221Y-79526144D01*
X96987500Y-79525000D01*
X97562500Y-79525000D01*
X97585779Y-79526144D01*
G37*
G36*
X95835779Y-79526144D02*
G01*
X95858834Y-79529563D01*
X95881443Y-79535227D01*
X95903387Y-79543079D01*
X95924457Y-79553044D01*
X95944448Y-79565026D01*
X95963168Y-79578910D01*
X95980438Y-79594562D01*
X95996090Y-79611832D01*
X96009974Y-79630552D01*
X96021956Y-79650543D01*
X96031921Y-79671613D01*
X96039773Y-79693557D01*
X96045437Y-79716166D01*
X96048856Y-79739221D01*
X96050000Y-79762500D01*
X96050000Y-80237500D01*
X96048856Y-80260779D01*
X96045437Y-80283834D01*
X96039773Y-80306443D01*
X96031921Y-80328387D01*
X96021956Y-80349457D01*
X96009974Y-80369448D01*
X95996090Y-80388168D01*
X95980438Y-80405438D01*
X95963168Y-80421090D01*
X95944448Y-80434974D01*
X95924457Y-80446956D01*
X95903387Y-80456921D01*
X95881443Y-80464773D01*
X95858834Y-80470437D01*
X95835779Y-80473856D01*
X95812500Y-80475000D01*
X95237500Y-80475000D01*
X95214221Y-80473856D01*
X95191166Y-80470437D01*
X95168557Y-80464773D01*
X95146613Y-80456921D01*
X95125543Y-80446956D01*
X95105552Y-80434974D01*
X95086832Y-80421090D01*
X95069562Y-80405438D01*
X95053910Y-80388168D01*
X95040026Y-80369448D01*
X95028044Y-80349457D01*
X95018079Y-80328387D01*
X95010227Y-80306443D01*
X95004563Y-80283834D01*
X95001144Y-80260779D01*
X95000000Y-80237500D01*
X95000000Y-79762500D01*
X95001144Y-79739221D01*
X95004563Y-79716166D01*
X95010227Y-79693557D01*
X95018079Y-79671613D01*
X95028044Y-79650543D01*
X95040026Y-79630552D01*
X95053910Y-79611832D01*
X95069562Y-79594562D01*
X95086832Y-79578910D01*
X95105552Y-79565026D01*
X95125543Y-79553044D01*
X95146613Y-79543079D01*
X95168557Y-79535227D01*
X95191166Y-79529563D01*
X95214221Y-79526144D01*
X95237500Y-79525000D01*
X95812500Y-79525000D01*
X95835779Y-79526144D01*
G37*
G36*
X99974505Y-78551204D02*
G01*
X99998773Y-78554804D01*
X100022572Y-78560765D01*
X100045671Y-78569030D01*
X100067850Y-78579520D01*
X100088893Y-78592132D01*
X100108599Y-78606747D01*
X100126777Y-78623223D01*
X100143253Y-78641401D01*
X100157868Y-78661107D01*
X100170480Y-78682150D01*
X100180970Y-78704329D01*
X100189235Y-78727428D01*
X100195196Y-78751227D01*
X100198796Y-78775495D01*
X100200000Y-78799999D01*
X100200000Y-79450001D01*
X100198796Y-79474505D01*
X100195196Y-79498773D01*
X100189235Y-79522572D01*
X100180970Y-79545671D01*
X100170480Y-79567850D01*
X100157868Y-79588893D01*
X100143253Y-79608599D01*
X100126777Y-79626777D01*
X100108599Y-79643253D01*
X100088893Y-79657868D01*
X100067850Y-79670480D01*
X100045671Y-79680970D01*
X100022572Y-79689235D01*
X99998773Y-79695196D01*
X99974505Y-79698796D01*
X99950001Y-79700000D01*
X99049999Y-79700000D01*
X99025495Y-79698796D01*
X99001227Y-79695196D01*
X98977428Y-79689235D01*
X98954329Y-79680970D01*
X98932150Y-79670480D01*
X98911107Y-79657868D01*
X98891401Y-79643253D01*
X98873223Y-79626777D01*
X98856747Y-79608599D01*
X98842132Y-79588893D01*
X98829520Y-79567850D01*
X98819030Y-79545671D01*
X98810765Y-79522572D01*
X98804804Y-79498773D01*
X98801204Y-79474505D01*
X98800000Y-79450001D01*
X98800000Y-78799999D01*
X98801204Y-78775495D01*
X98804804Y-78751227D01*
X98810765Y-78727428D01*
X98819030Y-78704329D01*
X98829520Y-78682150D01*
X98842132Y-78661107D01*
X98856747Y-78641401D01*
X98873223Y-78623223D01*
X98891401Y-78606747D01*
X98911107Y-78592132D01*
X98932150Y-78579520D01*
X98954329Y-78569030D01*
X98977428Y-78560765D01*
X99001227Y-78554804D01*
X99025495Y-78551204D01*
X99049999Y-78550000D01*
X99950001Y-78550000D01*
X99974505Y-78551204D01*
G37*
G36*
X99974505Y-76501204D02*
G01*
X99998773Y-76504804D01*
X100022572Y-76510765D01*
X100045671Y-76519030D01*
X100067850Y-76529520D01*
X100088893Y-76542132D01*
X100108599Y-76556747D01*
X100126777Y-76573223D01*
X100143253Y-76591401D01*
X100157868Y-76611107D01*
X100170480Y-76632150D01*
X100180970Y-76654329D01*
X100189235Y-76677428D01*
X100195196Y-76701227D01*
X100198796Y-76725495D01*
X100200000Y-76749999D01*
X100200000Y-77400001D01*
X100198796Y-77424505D01*
X100195196Y-77448773D01*
X100189235Y-77472572D01*
X100180970Y-77495671D01*
X100170480Y-77517850D01*
X100157868Y-77538893D01*
X100143253Y-77558599D01*
X100126777Y-77576777D01*
X100108599Y-77593253D01*
X100088893Y-77607868D01*
X100067850Y-77620480D01*
X100045671Y-77630970D01*
X100022572Y-77639235D01*
X99998773Y-77645196D01*
X99974505Y-77648796D01*
X99950001Y-77650000D01*
X99049999Y-77650000D01*
X99025495Y-77648796D01*
X99001227Y-77645196D01*
X98977428Y-77639235D01*
X98954329Y-77630970D01*
X98932150Y-77620480D01*
X98911107Y-77607868D01*
X98891401Y-77593253D01*
X98873223Y-77576777D01*
X98856747Y-77558599D01*
X98842132Y-77538893D01*
X98829520Y-77517850D01*
X98819030Y-77495671D01*
X98810765Y-77472572D01*
X98804804Y-77448773D01*
X98801204Y-77424505D01*
X98800000Y-77400001D01*
X98800000Y-76749999D01*
X98801204Y-76725495D01*
X98804804Y-76701227D01*
X98810765Y-76677428D01*
X98819030Y-76654329D01*
X98829520Y-76632150D01*
X98842132Y-76611107D01*
X98856747Y-76591401D01*
X98873223Y-76573223D01*
X98891401Y-76556747D01*
X98911107Y-76542132D01*
X98932150Y-76529520D01*
X98954329Y-76519030D01*
X98977428Y-76510765D01*
X99001227Y-76504804D01*
X99025495Y-76501204D01*
X99049999Y-76500000D01*
X99950001Y-76500000D01*
X99974505Y-76501204D01*
G37*
G36*
X97024505Y-101701204D02*
G01*
X97048773Y-101704804D01*
X97072572Y-101710765D01*
X97095671Y-101719030D01*
X97117850Y-101729520D01*
X97138893Y-101742132D01*
X97158599Y-101756747D01*
X97176777Y-101773223D01*
X97193253Y-101791401D01*
X97207868Y-101811107D01*
X97220480Y-101832150D01*
X97230970Y-101854329D01*
X97239235Y-101877428D01*
X97245196Y-101901227D01*
X97248796Y-101925495D01*
X97250000Y-101949999D01*
X97250000Y-102850001D01*
X97248796Y-102874505D01*
X97245196Y-102898773D01*
X97239235Y-102922572D01*
X97230970Y-102945671D01*
X97220480Y-102967850D01*
X97207868Y-102988893D01*
X97193253Y-103008599D01*
X97176777Y-103026777D01*
X97158599Y-103043253D01*
X97138893Y-103057868D01*
X97117850Y-103070480D01*
X97095671Y-103080970D01*
X97072572Y-103089235D01*
X97048773Y-103095196D01*
X97024505Y-103098796D01*
X97000001Y-103100000D01*
X96349999Y-103100000D01*
X96325495Y-103098796D01*
X96301227Y-103095196D01*
X96277428Y-103089235D01*
X96254329Y-103080970D01*
X96232150Y-103070480D01*
X96211107Y-103057868D01*
X96191401Y-103043253D01*
X96173223Y-103026777D01*
X96156747Y-103008599D01*
X96142132Y-102988893D01*
X96129520Y-102967850D01*
X96119030Y-102945671D01*
X96110765Y-102922572D01*
X96104804Y-102898773D01*
X96101204Y-102874505D01*
X96100000Y-102850001D01*
X96100000Y-101949999D01*
X96101204Y-101925495D01*
X96104804Y-101901227D01*
X96110765Y-101877428D01*
X96119030Y-101854329D01*
X96129520Y-101832150D01*
X96142132Y-101811107D01*
X96156747Y-101791401D01*
X96173223Y-101773223D01*
X96191401Y-101756747D01*
X96211107Y-101742132D01*
X96232150Y-101729520D01*
X96254329Y-101719030D01*
X96277428Y-101710765D01*
X96301227Y-101704804D01*
X96325495Y-101701204D01*
X96349999Y-101700000D01*
X97000001Y-101700000D01*
X97024505Y-101701204D01*
G37*
G36*
X99074505Y-101701204D02*
G01*
X99098773Y-101704804D01*
X99122572Y-101710765D01*
X99145671Y-101719030D01*
X99167850Y-101729520D01*
X99188893Y-101742132D01*
X99208599Y-101756747D01*
X99226777Y-101773223D01*
X99243253Y-101791401D01*
X99257868Y-101811107D01*
X99270480Y-101832150D01*
X99280970Y-101854329D01*
X99289235Y-101877428D01*
X99295196Y-101901227D01*
X99298796Y-101925495D01*
X99300000Y-101949999D01*
X99300000Y-102850001D01*
X99298796Y-102874505D01*
X99295196Y-102898773D01*
X99289235Y-102922572D01*
X99280970Y-102945671D01*
X99270480Y-102967850D01*
X99257868Y-102988893D01*
X99243253Y-103008599D01*
X99226777Y-103026777D01*
X99208599Y-103043253D01*
X99188893Y-103057868D01*
X99167850Y-103070480D01*
X99145671Y-103080970D01*
X99122572Y-103089235D01*
X99098773Y-103095196D01*
X99074505Y-103098796D01*
X99050001Y-103100000D01*
X98399999Y-103100000D01*
X98375495Y-103098796D01*
X98351227Y-103095196D01*
X98327428Y-103089235D01*
X98304329Y-103080970D01*
X98282150Y-103070480D01*
X98261107Y-103057868D01*
X98241401Y-103043253D01*
X98223223Y-103026777D01*
X98206747Y-103008599D01*
X98192132Y-102988893D01*
X98179520Y-102967850D01*
X98169030Y-102945671D01*
X98160765Y-102922572D01*
X98154804Y-102898773D01*
X98151204Y-102874505D01*
X98150000Y-102850001D01*
X98150000Y-101949999D01*
X98151204Y-101925495D01*
X98154804Y-101901227D01*
X98160765Y-101877428D01*
X98169030Y-101854329D01*
X98179520Y-101832150D01*
X98192132Y-101811107D01*
X98206747Y-101791401D01*
X98223223Y-101773223D01*
X98241401Y-101756747D01*
X98261107Y-101742132D01*
X98282150Y-101729520D01*
X98304329Y-101719030D01*
X98327428Y-101710765D01*
X98351227Y-101704804D01*
X98375495Y-101701204D01*
X98399999Y-101700000D01*
X99050001Y-101700000D01*
X99074505Y-101701204D01*
G37*
G36*
X105624505Y-101701204D02*
G01*
X105648773Y-101704804D01*
X105672572Y-101710765D01*
X105695671Y-101719030D01*
X105717850Y-101729520D01*
X105738893Y-101742132D01*
X105758599Y-101756747D01*
X105776777Y-101773223D01*
X105793253Y-101791401D01*
X105807868Y-101811107D01*
X105820480Y-101832150D01*
X105830970Y-101854329D01*
X105839235Y-101877428D01*
X105845196Y-101901227D01*
X105848796Y-101925495D01*
X105850000Y-101949999D01*
X105850000Y-102850001D01*
X105848796Y-102874505D01*
X105845196Y-102898773D01*
X105839235Y-102922572D01*
X105830970Y-102945671D01*
X105820480Y-102967850D01*
X105807868Y-102988893D01*
X105793253Y-103008599D01*
X105776777Y-103026777D01*
X105758599Y-103043253D01*
X105738893Y-103057868D01*
X105717850Y-103070480D01*
X105695671Y-103080970D01*
X105672572Y-103089235D01*
X105648773Y-103095196D01*
X105624505Y-103098796D01*
X105600001Y-103100000D01*
X104949999Y-103100000D01*
X104925495Y-103098796D01*
X104901227Y-103095196D01*
X104877428Y-103089235D01*
X104854329Y-103080970D01*
X104832150Y-103070480D01*
X104811107Y-103057868D01*
X104791401Y-103043253D01*
X104773223Y-103026777D01*
X104756747Y-103008599D01*
X104742132Y-102988893D01*
X104729520Y-102967850D01*
X104719030Y-102945671D01*
X104710765Y-102922572D01*
X104704804Y-102898773D01*
X104701204Y-102874505D01*
X104700000Y-102850001D01*
X104700000Y-101949999D01*
X104701204Y-101925495D01*
X104704804Y-101901227D01*
X104710765Y-101877428D01*
X104719030Y-101854329D01*
X104729520Y-101832150D01*
X104742132Y-101811107D01*
X104756747Y-101791401D01*
X104773223Y-101773223D01*
X104791401Y-101756747D01*
X104811107Y-101742132D01*
X104832150Y-101729520D01*
X104854329Y-101719030D01*
X104877428Y-101710765D01*
X104901227Y-101704804D01*
X104925495Y-101701204D01*
X104949999Y-101700000D01*
X105600001Y-101700000D01*
X105624505Y-101701204D01*
G37*
G36*
X107674505Y-101701204D02*
G01*
X107698773Y-101704804D01*
X107722572Y-101710765D01*
X107745671Y-101719030D01*
X107767850Y-101729520D01*
X107788893Y-101742132D01*
X107808599Y-101756747D01*
X107826777Y-101773223D01*
X107843253Y-101791401D01*
X107857868Y-101811107D01*
X107870480Y-101832150D01*
X107880970Y-101854329D01*
X107889235Y-101877428D01*
X107895196Y-101901227D01*
X107898796Y-101925495D01*
X107900000Y-101949999D01*
X107900000Y-102850001D01*
X107898796Y-102874505D01*
X107895196Y-102898773D01*
X107889235Y-102922572D01*
X107880970Y-102945671D01*
X107870480Y-102967850D01*
X107857868Y-102988893D01*
X107843253Y-103008599D01*
X107826777Y-103026777D01*
X107808599Y-103043253D01*
X107788893Y-103057868D01*
X107767850Y-103070480D01*
X107745671Y-103080970D01*
X107722572Y-103089235D01*
X107698773Y-103095196D01*
X107674505Y-103098796D01*
X107650001Y-103100000D01*
X106999999Y-103100000D01*
X106975495Y-103098796D01*
X106951227Y-103095196D01*
X106927428Y-103089235D01*
X106904329Y-103080970D01*
X106882150Y-103070480D01*
X106861107Y-103057868D01*
X106841401Y-103043253D01*
X106823223Y-103026777D01*
X106806747Y-103008599D01*
X106792132Y-102988893D01*
X106779520Y-102967850D01*
X106769030Y-102945671D01*
X106760765Y-102922572D01*
X106754804Y-102898773D01*
X106751204Y-102874505D01*
X106750000Y-102850001D01*
X106750000Y-101949999D01*
X106751204Y-101925495D01*
X106754804Y-101901227D01*
X106760765Y-101877428D01*
X106769030Y-101854329D01*
X106779520Y-101832150D01*
X106792132Y-101811107D01*
X106806747Y-101791401D01*
X106823223Y-101773223D01*
X106841401Y-101756747D01*
X106861107Y-101742132D01*
X106882150Y-101729520D01*
X106904329Y-101719030D01*
X106927428Y-101710765D01*
X106951227Y-101704804D01*
X106975495Y-101701204D01*
X106999999Y-101700000D01*
X107650001Y-101700000D01*
X107674505Y-101701204D01*
G37*
G36*
X102735779Y-79526144D02*
G01*
X102758834Y-79529563D01*
X102781443Y-79535227D01*
X102803387Y-79543079D01*
X102824457Y-79553044D01*
X102844448Y-79565026D01*
X102863168Y-79578910D01*
X102880438Y-79594562D01*
X102896090Y-79611832D01*
X102909974Y-79630552D01*
X102921956Y-79650543D01*
X102931921Y-79671613D01*
X102939773Y-79693557D01*
X102945437Y-79716166D01*
X102948856Y-79739221D01*
X102950000Y-79762500D01*
X102950000Y-80237500D01*
X102948856Y-80260779D01*
X102945437Y-80283834D01*
X102939773Y-80306443D01*
X102931921Y-80328387D01*
X102921956Y-80349457D01*
X102909974Y-80369448D01*
X102896090Y-80388168D01*
X102880438Y-80405438D01*
X102863168Y-80421090D01*
X102844448Y-80434974D01*
X102824457Y-80446956D01*
X102803387Y-80456921D01*
X102781443Y-80464773D01*
X102758834Y-80470437D01*
X102735779Y-80473856D01*
X102712500Y-80475000D01*
X102137500Y-80475000D01*
X102114221Y-80473856D01*
X102091166Y-80470437D01*
X102068557Y-80464773D01*
X102046613Y-80456921D01*
X102025543Y-80446956D01*
X102005552Y-80434974D01*
X101986832Y-80421090D01*
X101969562Y-80405438D01*
X101953910Y-80388168D01*
X101940026Y-80369448D01*
X101928044Y-80349457D01*
X101918079Y-80328387D01*
X101910227Y-80306443D01*
X101904563Y-80283834D01*
X101901144Y-80260779D01*
X101900000Y-80237500D01*
X101900000Y-79762500D01*
X101901144Y-79739221D01*
X101904563Y-79716166D01*
X101910227Y-79693557D01*
X101918079Y-79671613D01*
X101928044Y-79650543D01*
X101940026Y-79630552D01*
X101953910Y-79611832D01*
X101969562Y-79594562D01*
X101986832Y-79578910D01*
X102005552Y-79565026D01*
X102025543Y-79553044D01*
X102046613Y-79543079D01*
X102068557Y-79535227D01*
X102091166Y-79529563D01*
X102114221Y-79526144D01*
X102137500Y-79525000D01*
X102712500Y-79525000D01*
X102735779Y-79526144D01*
G37*
G36*
X104485779Y-79526144D02*
G01*
X104508834Y-79529563D01*
X104531443Y-79535227D01*
X104553387Y-79543079D01*
X104574457Y-79553044D01*
X104594448Y-79565026D01*
X104613168Y-79578910D01*
X104630438Y-79594562D01*
X104646090Y-79611832D01*
X104659974Y-79630552D01*
X104671956Y-79650543D01*
X104681921Y-79671613D01*
X104689773Y-79693557D01*
X104695437Y-79716166D01*
X104698856Y-79739221D01*
X104700000Y-79762500D01*
X104700000Y-80237500D01*
X104698856Y-80260779D01*
X104695437Y-80283834D01*
X104689773Y-80306443D01*
X104681921Y-80328387D01*
X104671956Y-80349457D01*
X104659974Y-80369448D01*
X104646090Y-80388168D01*
X104630438Y-80405438D01*
X104613168Y-80421090D01*
X104594448Y-80434974D01*
X104574457Y-80446956D01*
X104553387Y-80456921D01*
X104531443Y-80464773D01*
X104508834Y-80470437D01*
X104485779Y-80473856D01*
X104462500Y-80475000D01*
X103887500Y-80475000D01*
X103864221Y-80473856D01*
X103841166Y-80470437D01*
X103818557Y-80464773D01*
X103796613Y-80456921D01*
X103775543Y-80446956D01*
X103755552Y-80434974D01*
X103736832Y-80421090D01*
X103719562Y-80405438D01*
X103703910Y-80388168D01*
X103690026Y-80369448D01*
X103678044Y-80349457D01*
X103668079Y-80328387D01*
X103660227Y-80306443D01*
X103654563Y-80283834D01*
X103651144Y-80260779D01*
X103650000Y-80237500D01*
X103650000Y-79762500D01*
X103651144Y-79739221D01*
X103654563Y-79716166D01*
X103660227Y-79693557D01*
X103668079Y-79671613D01*
X103678044Y-79650543D01*
X103690026Y-79630552D01*
X103703910Y-79611832D01*
X103719562Y-79594562D01*
X103736832Y-79578910D01*
X103755552Y-79565026D01*
X103775543Y-79553044D01*
X103796613Y-79543079D01*
X103818557Y-79535227D01*
X103841166Y-79529563D01*
X103864221Y-79526144D01*
X103887500Y-79525000D01*
X104462500Y-79525000D01*
X104485779Y-79526144D01*
G37*
G36*
X103774505Y-96551204D02*
G01*
X103798773Y-96554804D01*
X103822572Y-96560765D01*
X103845671Y-96569030D01*
X103867850Y-96579520D01*
X103888893Y-96592132D01*
X103908599Y-96606747D01*
X103926777Y-96623223D01*
X103943253Y-96641401D01*
X103957868Y-96661107D01*
X103970480Y-96682150D01*
X103980970Y-96704329D01*
X103989235Y-96727428D01*
X103995196Y-96751227D01*
X103998796Y-96775495D01*
X104000000Y-96799999D01*
X104000000Y-97450001D01*
X103998796Y-97474505D01*
X103995196Y-97498773D01*
X103989235Y-97522572D01*
X103980970Y-97545671D01*
X103970480Y-97567850D01*
X103957868Y-97588893D01*
X103943253Y-97608599D01*
X103926777Y-97626777D01*
X103908599Y-97643253D01*
X103888893Y-97657868D01*
X103867850Y-97670480D01*
X103845671Y-97680970D01*
X103822572Y-97689235D01*
X103798773Y-97695196D01*
X103774505Y-97698796D01*
X103750001Y-97700000D01*
X102849999Y-97700000D01*
X102825495Y-97698796D01*
X102801227Y-97695196D01*
X102777428Y-97689235D01*
X102754329Y-97680970D01*
X102732150Y-97670480D01*
X102711107Y-97657868D01*
X102691401Y-97643253D01*
X102673223Y-97626777D01*
X102656747Y-97608599D01*
X102642132Y-97588893D01*
X102629520Y-97567850D01*
X102619030Y-97545671D01*
X102610765Y-97522572D01*
X102604804Y-97498773D01*
X102601204Y-97474505D01*
X102600000Y-97450001D01*
X102600000Y-96799999D01*
X102601204Y-96775495D01*
X102604804Y-96751227D01*
X102610765Y-96727428D01*
X102619030Y-96704329D01*
X102629520Y-96682150D01*
X102642132Y-96661107D01*
X102656747Y-96641401D01*
X102673223Y-96623223D01*
X102691401Y-96606747D01*
X102711107Y-96592132D01*
X102732150Y-96579520D01*
X102754329Y-96569030D01*
X102777428Y-96560765D01*
X102801227Y-96554804D01*
X102825495Y-96551204D01*
X102849999Y-96550000D01*
X103750001Y-96550000D01*
X103774505Y-96551204D01*
G37*
G36*
X103774505Y-94501204D02*
G01*
X103798773Y-94504804D01*
X103822572Y-94510765D01*
X103845671Y-94519030D01*
X103867850Y-94529520D01*
X103888893Y-94542132D01*
X103908599Y-94556747D01*
X103926777Y-94573223D01*
X103943253Y-94591401D01*
X103957868Y-94611107D01*
X103970480Y-94632150D01*
X103980970Y-94654329D01*
X103989235Y-94677428D01*
X103995196Y-94701227D01*
X103998796Y-94725495D01*
X104000000Y-94749999D01*
X104000000Y-95400001D01*
X103998796Y-95424505D01*
X103995196Y-95448773D01*
X103989235Y-95472572D01*
X103980970Y-95495671D01*
X103970480Y-95517850D01*
X103957868Y-95538893D01*
X103943253Y-95558599D01*
X103926777Y-95576777D01*
X103908599Y-95593253D01*
X103888893Y-95607868D01*
X103867850Y-95620480D01*
X103845671Y-95630970D01*
X103822572Y-95639235D01*
X103798773Y-95645196D01*
X103774505Y-95648796D01*
X103750001Y-95650000D01*
X102849999Y-95650000D01*
X102825495Y-95648796D01*
X102801227Y-95645196D01*
X102777428Y-95639235D01*
X102754329Y-95630970D01*
X102732150Y-95620480D01*
X102711107Y-95607868D01*
X102691401Y-95593253D01*
X102673223Y-95576777D01*
X102656747Y-95558599D01*
X102642132Y-95538893D01*
X102629520Y-95517850D01*
X102619030Y-95495671D01*
X102610765Y-95472572D01*
X102604804Y-95448773D01*
X102601204Y-95424505D01*
X102600000Y-95400001D01*
X102600000Y-94749999D01*
X102601204Y-94725495D01*
X102604804Y-94701227D01*
X102610765Y-94677428D01*
X102619030Y-94654329D01*
X102629520Y-94632150D01*
X102642132Y-94611107D01*
X102656747Y-94591401D01*
X102673223Y-94573223D01*
X102691401Y-94556747D01*
X102711107Y-94542132D01*
X102732150Y-94529520D01*
X102754329Y-94519030D01*
X102777428Y-94510765D01*
X102801227Y-94504804D01*
X102825495Y-94501204D01*
X102849999Y-94500000D01*
X103750001Y-94500000D01*
X103774505Y-94501204D01*
G37*
G36*
X87974505Y-96551204D02*
G01*
X87998773Y-96554804D01*
X88022572Y-96560765D01*
X88045671Y-96569030D01*
X88067850Y-96579520D01*
X88088893Y-96592132D01*
X88108599Y-96606747D01*
X88126777Y-96623223D01*
X88143253Y-96641401D01*
X88157868Y-96661107D01*
X88170480Y-96682150D01*
X88180970Y-96704329D01*
X88189235Y-96727428D01*
X88195196Y-96751227D01*
X88198796Y-96775495D01*
X88200000Y-96799999D01*
X88200000Y-97450001D01*
X88198796Y-97474505D01*
X88195196Y-97498773D01*
X88189235Y-97522572D01*
X88180970Y-97545671D01*
X88170480Y-97567850D01*
X88157868Y-97588893D01*
X88143253Y-97608599D01*
X88126777Y-97626777D01*
X88108599Y-97643253D01*
X88088893Y-97657868D01*
X88067850Y-97670480D01*
X88045671Y-97680970D01*
X88022572Y-97689235D01*
X87998773Y-97695196D01*
X87974505Y-97698796D01*
X87950001Y-97700000D01*
X87049999Y-97700000D01*
X87025495Y-97698796D01*
X87001227Y-97695196D01*
X86977428Y-97689235D01*
X86954329Y-97680970D01*
X86932150Y-97670480D01*
X86911107Y-97657868D01*
X86891401Y-97643253D01*
X86873223Y-97626777D01*
X86856747Y-97608599D01*
X86842132Y-97588893D01*
X86829520Y-97567850D01*
X86819030Y-97545671D01*
X86810765Y-97522572D01*
X86804804Y-97498773D01*
X86801204Y-97474505D01*
X86800000Y-97450001D01*
X86800000Y-96799999D01*
X86801204Y-96775495D01*
X86804804Y-96751227D01*
X86810765Y-96727428D01*
X86819030Y-96704329D01*
X86829520Y-96682150D01*
X86842132Y-96661107D01*
X86856747Y-96641401D01*
X86873223Y-96623223D01*
X86891401Y-96606747D01*
X86911107Y-96592132D01*
X86932150Y-96579520D01*
X86954329Y-96569030D01*
X86977428Y-96560765D01*
X87001227Y-96554804D01*
X87025495Y-96551204D01*
X87049999Y-96550000D01*
X87950001Y-96550000D01*
X87974505Y-96551204D01*
G37*
G36*
X87974505Y-94501204D02*
G01*
X87998773Y-94504804D01*
X88022572Y-94510765D01*
X88045671Y-94519030D01*
X88067850Y-94529520D01*
X88088893Y-94542132D01*
X88108599Y-94556747D01*
X88126777Y-94573223D01*
X88143253Y-94591401D01*
X88157868Y-94611107D01*
X88170480Y-94632150D01*
X88180970Y-94654329D01*
X88189235Y-94677428D01*
X88195196Y-94701227D01*
X88198796Y-94725495D01*
X88200000Y-94749999D01*
X88200000Y-95400001D01*
X88198796Y-95424505D01*
X88195196Y-95448773D01*
X88189235Y-95472572D01*
X88180970Y-95495671D01*
X88170480Y-95517850D01*
X88157868Y-95538893D01*
X88143253Y-95558599D01*
X88126777Y-95576777D01*
X88108599Y-95593253D01*
X88088893Y-95607868D01*
X88067850Y-95620480D01*
X88045671Y-95630970D01*
X88022572Y-95639235D01*
X87998773Y-95645196D01*
X87974505Y-95648796D01*
X87950001Y-95650000D01*
X87049999Y-95650000D01*
X87025495Y-95648796D01*
X87001227Y-95645196D01*
X86977428Y-95639235D01*
X86954329Y-95630970D01*
X86932150Y-95620480D01*
X86911107Y-95607868D01*
X86891401Y-95593253D01*
X86873223Y-95576777D01*
X86856747Y-95558599D01*
X86842132Y-95538893D01*
X86829520Y-95517850D01*
X86819030Y-95495671D01*
X86810765Y-95472572D01*
X86804804Y-95448773D01*
X86801204Y-95424505D01*
X86800000Y-95400001D01*
X86800000Y-94749999D01*
X86801204Y-94725495D01*
X86804804Y-94701227D01*
X86810765Y-94677428D01*
X86819030Y-94654329D01*
X86829520Y-94632150D01*
X86842132Y-94611107D01*
X86856747Y-94591401D01*
X86873223Y-94573223D01*
X86891401Y-94556747D01*
X86911107Y-94542132D01*
X86932150Y-94529520D01*
X86954329Y-94519030D01*
X86977428Y-94510765D01*
X87001227Y-94504804D01*
X87025495Y-94501204D01*
X87049999Y-94500000D01*
X87950001Y-94500000D01*
X87974505Y-94501204D01*
G37*
G36*
X87974505Y-100451204D02*
G01*
X87998773Y-100454804D01*
X88022572Y-100460765D01*
X88045671Y-100469030D01*
X88067850Y-100479520D01*
X88088893Y-100492132D01*
X88108599Y-100506747D01*
X88126777Y-100523223D01*
X88143253Y-100541401D01*
X88157868Y-100561107D01*
X88170480Y-100582150D01*
X88180970Y-100604329D01*
X88189235Y-100627428D01*
X88195196Y-100651227D01*
X88198796Y-100675495D01*
X88200000Y-100699999D01*
X88200000Y-101350001D01*
X88198796Y-101374505D01*
X88195196Y-101398773D01*
X88189235Y-101422572D01*
X88180970Y-101445671D01*
X88170480Y-101467850D01*
X88157868Y-101488893D01*
X88143253Y-101508599D01*
X88126777Y-101526777D01*
X88108599Y-101543253D01*
X88088893Y-101557868D01*
X88067850Y-101570480D01*
X88045671Y-101580970D01*
X88022572Y-101589235D01*
X87998773Y-101595196D01*
X87974505Y-101598796D01*
X87950001Y-101600000D01*
X87049999Y-101600000D01*
X87025495Y-101598796D01*
X87001227Y-101595196D01*
X86977428Y-101589235D01*
X86954329Y-101580970D01*
X86932150Y-101570480D01*
X86911107Y-101557868D01*
X86891401Y-101543253D01*
X86873223Y-101526777D01*
X86856747Y-101508599D01*
X86842132Y-101488893D01*
X86829520Y-101467850D01*
X86819030Y-101445671D01*
X86810765Y-101422572D01*
X86804804Y-101398773D01*
X86801204Y-101374505D01*
X86800000Y-101350001D01*
X86800000Y-100699999D01*
X86801204Y-100675495D01*
X86804804Y-100651227D01*
X86810765Y-100627428D01*
X86819030Y-100604329D01*
X86829520Y-100582150D01*
X86842132Y-100561107D01*
X86856747Y-100541401D01*
X86873223Y-100523223D01*
X86891401Y-100506747D01*
X86911107Y-100492132D01*
X86932150Y-100479520D01*
X86954329Y-100469030D01*
X86977428Y-100460765D01*
X87001227Y-100454804D01*
X87025495Y-100451204D01*
X87049999Y-100450000D01*
X87950001Y-100450000D01*
X87974505Y-100451204D01*
G37*
G36*
X87974505Y-98401204D02*
G01*
X87998773Y-98404804D01*
X88022572Y-98410765D01*
X88045671Y-98419030D01*
X88067850Y-98429520D01*
X88088893Y-98442132D01*
X88108599Y-98456747D01*
X88126777Y-98473223D01*
X88143253Y-98491401D01*
X88157868Y-98511107D01*
X88170480Y-98532150D01*
X88180970Y-98554329D01*
X88189235Y-98577428D01*
X88195196Y-98601227D01*
X88198796Y-98625495D01*
X88200000Y-98649999D01*
X88200000Y-99300001D01*
X88198796Y-99324505D01*
X88195196Y-99348773D01*
X88189235Y-99372572D01*
X88180970Y-99395671D01*
X88170480Y-99417850D01*
X88157868Y-99438893D01*
X88143253Y-99458599D01*
X88126777Y-99476777D01*
X88108599Y-99493253D01*
X88088893Y-99507868D01*
X88067850Y-99520480D01*
X88045671Y-99530970D01*
X88022572Y-99539235D01*
X87998773Y-99545196D01*
X87974505Y-99548796D01*
X87950001Y-99550000D01*
X87049999Y-99550000D01*
X87025495Y-99548796D01*
X87001227Y-99545196D01*
X86977428Y-99539235D01*
X86954329Y-99530970D01*
X86932150Y-99520480D01*
X86911107Y-99507868D01*
X86891401Y-99493253D01*
X86873223Y-99476777D01*
X86856747Y-99458599D01*
X86842132Y-99438893D01*
X86829520Y-99417850D01*
X86819030Y-99395671D01*
X86810765Y-99372572D01*
X86804804Y-99348773D01*
X86801204Y-99324505D01*
X86800000Y-99300001D01*
X86800000Y-98649999D01*
X86801204Y-98625495D01*
X86804804Y-98601227D01*
X86810765Y-98577428D01*
X86819030Y-98554329D01*
X86829520Y-98532150D01*
X86842132Y-98511107D01*
X86856747Y-98491401D01*
X86873223Y-98473223D01*
X86891401Y-98456747D01*
X86911107Y-98442132D01*
X86932150Y-98429520D01*
X86954329Y-98419030D01*
X86977428Y-98410765D01*
X87001227Y-98404804D01*
X87025495Y-98401204D01*
X87049999Y-98400000D01*
X87950001Y-98400000D01*
X87974505Y-98401204D01*
G37*
M02*
